<?xml version="1.0" standalone="no"?>
<!DOCTYPE svg PUBLIC "-//W3C//DTD SVG 1.1//EN" "http://www.w3.org/Graphics/SVG/1.1/DTD/svg11.dtd" >
<svg xmlns="http://www.w3.org/2000/svg" version="1.1">
<metadata>
Created by FontForge 20161116 at Fri Aug 31 09:18:19 2012
 By Jimmy Warting
Copyright (c) 2012, Pablo Impallari (www.impallari.com|impallari@gmail.com), Brenda Gallo. (gbrenda1987@gmail.com), with Reserved Font Name Ranchers.
</metadata>
<defs>
<font id="Ranchers-Regular" horiz-adv-x="537" >
  <font-face 
    font-family="Ranchers"
    font-weight="400"
    font-stretch="normal"
    units-per-em="1000"
    panose-1="2 11 9 3 3 2 2 5 0 4"
    ascent="800"
    descent="-200"
    x-height="598"
    cap-height="818"
    bbox="-64 -205 1142 1045"
    underline-thickness="57"
    underline-position="-114"
    unicode-range="U+0020-FB04"
  />
<missing-glyph horiz-adv-x="626" 
d="M596 1045v-1250h-566v1250h566zM122 959v-1079h382v1079h-382z" />
    <glyph glyph-name="f_f" unicode="ff" horiz-adv-x="597" 
d="M60 320h-46v210h45v72q0 66 6 105t20 65q17 33 47.5 51t68.5 18q28 0 39 -1.5t21 -4.5q6 -33 6 -109q0 -84 -7 -111q-12 4 -24 4q-25 0 -33.5 -19t-8.5 -49v-21h81v-210h-79v-320h-136v320zM366 320h-46v210h45v72q0 66 6 105t20 65q19 33 54 51t82 18q15 0 34.5 -1.5
t28.5 -4.5q3 -15 4.5 -41t1.5 -68q0 -84 -7 -111q-5 2 -19.5 3t-27.5 1t-21.5 -2.5t-13 -10t-6 -21t-1.5 -34.5v-21h81v-210h-79v-320h-136v320z" />
    <glyph glyph-name="f_l" unicode="fl" horiz-adv-x="496" 
d="M479 841q-5 -139 -7.5 -282t-2.5 -304v-109.5v-68t0.5 -43t0.5 -34.5h-150q3 88 4 206t1 274v115.5t-0.5 86.5t-0.5 75.5v83.5h155zM60 320h-46v210h45v72q0 66 6 105t20 65q17 33 47.5 51t68.5 18q28 0 39 -1.5t21 -4.5q6 -33 6 -109q0 -84 -7 -111q-12 4 -24 4
q-25 0 -33.5 -19t-8.5 -49v-21h81v-210h-79v-320h-136v320z" />
    <glyph glyph-name="f_f_i" unicode="ffi" horiz-adv-x="815" 
d="M642 582h147v-582h-147v582zM719 830q24 0 43.5 -9.5t32.5 -24.5t20 -33.5t7 -35.5q0 -23 -8.5 -42.5t-23 -34t-33 -23t-39.5 -8.5q-26 0 -46 8.5t-33.5 22t-20 31.5t-6.5 37t7.5 39t21 36.5t33.5 26.5t45 10zM60 320h-46v210h45v72q0 66 6 105t20 65q17 33 47.5 51
t68.5 18q28 0 39 -1.5t21 -4.5q6 -33 6 -109q0 -84 -7 -111q-12 4 -24 4q-25 0 -33.5 -19t-8.5 -49v-21h81v-210h-79v-320h-136v320zM366 320h-46v210h45v72q0 66 6 105t20 65q17 33 47.5 51t68.5 18q28 0 39 -1.5t21 -4.5q6 -33 6 -109q0 -84 -7 -111q-12 4 -24 4
q-25 0 -33.5 -19t-8.5 -49v-21h81v-210h-79v-320h-136v320z" />
    <glyph glyph-name="f_f_l" unicode="ffl" horiz-adv-x="802" 
d="M785 841q-5 -139 -7.5 -282t-2.5 -304v-109.5v-68t0.5 -43t0.5 -34.5h-150q3 88 4 206t1 274v115.5t-0.5 86.5t-0.5 75.5v83.5h155zM366 320h-46v210h45v72q0 66 6 105t20 65q17 33 47.5 51t68.5 18q28 0 39 -1.5t21 -4.5q6 -33 6 -109q0 -84 -7 -111q-12 4 -24 4
q-25 0 -33.5 -19t-8.5 -49v-21h81v-210h-79v-320h-136v320zM60 320h-46v210h45v72q0 66 6 105t20 65q17 33 47.5 51t68.5 18q28 0 39 -1.5t21 -4.5q6 -33 6 -109q0 -84 -7 -111q-12 4 -24 4q-25 0 -33.5 -19t-8.5 -49v-21h81v-210h-79v-320h-136v320z" />
    <glyph glyph-name="f_i" unicode="fi" horiz-adv-x="509" 
d="M336 582h147v-582h-147v582zM413 830q24 0 43.5 -9.5t32.5 -24.5t20 -33.5t7 -35.5q0 -23 -8.5 -42.5t-23 -34t-33 -23t-39.5 -8.5q-26 0 -46 8.5t-33.5 22t-20 31.5t-6.5 37t7.5 39t21 36.5t33.5 26.5t45 10zM60 320h-46v210h45v72q0 66 6 105t20 65q17 33 47.5 51
t68.5 18q28 0 39 -1.5t21 -4.5q6 -33 6 -109q0 -84 -7 -111q-12 4 -24 4q-25 0 -33.5 -19t-8.5 -49v-21h81v-210h-79v-320h-136v320z" />
    <glyph glyph-name="f_b" unicode="fb" horiz-adv-x="834" 
d="M320 841h142v-293q27 26 63.5 43.5t77.5 17.5q47 0 87.5 -24.5t70 -68t46.5 -102.5t17 -127q0 -65 -16 -120t-43.5 -94.5t-65.5 -61.5t-83 -22q-38 0 -78 15.5t-76 44.5v-49h-137zM462 361q0 -41 22.5 -66t57.5 -25q38 0 64.5 27t26.5 69q0 19 -6.5 36t-18.5 29.5
t-27.5 19.5t-33.5 7q-37 0 -61 -27t-24 -70zM60 320h-46v210h45v72q0 66 6 105t20 65q17 33 47.5 51t68.5 18q28 0 39 -1.5t21 -4.5q6 -33 6 -109q0 -84 -7 -111q-12 4 -24 4q-25 0 -33.5 -19t-8.5 -49v-21h81v-210h-79v-320h-136v320z" />
    <glyph glyph-name="f_f_b" unicode="ffb" horiz-adv-x="1140" 
d="M626 841h142v-293q27 26 63.5 43.5t77.5 17.5q47 0 87.5 -24.5t70 -68t46.5 -102.5t17 -127q0 -65 -16 -120t-43.5 -94.5t-65.5 -61.5t-83 -22q-38 0 -78 15.5t-76 44.5v-49h-137zM768 361q0 -41 22.5 -66t57.5 -25q38 0 64.5 27t26.5 69q0 19 -6.5 36t-18.5 29.5
t-27.5 19.5t-33.5 7q-37 0 -61 -27t-24 -70zM366 320h-46v210h45v72q0 66 6 105t20 65q17 33 47.5 51t68.5 18q28 0 39 -1.5t21 -4.5q6 -33 6 -109q0 -84 -7 -111q-12 4 -24 4q-25 0 -33.5 -19t-8.5 -49v-21h81v-210h-79v-320h-136v320zM60 320h-46v210h45v72q0 66 6 105
t20 65q17 33 47.5 51t68.5 18q28 0 39 -1.5t21 -4.5q6 -33 6 -109q0 -84 -7 -111q-12 4 -24 4q-25 0 -33.5 -19t-8.5 -49v-21h81v-210h-79v-320h-136v320z" />
    <glyph glyph-name="f_h" unicode="fh" horiz-adv-x="755" 
d="M477 841q-3 -56 -5 -97.5t-3 -76t-1.5 -64t-0.5 -59.5q24 30 58 47.5t69 17.5q22 0 42.5 -6.5t37.5 -17.5t29.5 -26.5t18.5 -33.5q4 -14 6.5 -40.5t2.5 -57.5v-427h-147v300q0 30 -14.5 47.5t-38.5 17.5q-25 0 -44.5 -16t-19.5 -39v-310h-147q2 133 2 284.5v325.5v90.5
v61.5t-0.5 43t-0.5 36h156zM60 320h-46v210h45v72q0 66 6 105t20 65q17 33 47.5 51t68.5 18q28 0 39 -1.5t21 -4.5q6 -33 6 -109q0 -84 -7 -111q-12 4 -24 4q-25 0 -33.5 -19t-8.5 -49v-21h81v-210h-79v-320h-136v320z" />
    <glyph glyph-name="f_f_h" unicode="ffh" horiz-adv-x="1061" 
d="M783 841q-3 -56 -5 -97.5t-3 -76t-1.5 -64t-0.5 -59.5q24 30 58 47.5t69 17.5q22 0 42.5 -6.5t37.5 -17.5t29.5 -26.5t18.5 -33.5q4 -14 6.5 -40.5t2.5 -57.5v-427h-147v300q0 30 -14.5 47.5t-38.5 17.5q-25 0 -44.5 -16t-19.5 -39v-310h-147q2 133 2 284.5v325.5v90.5
v61.5t-0.5 43t-0.5 36h156zM366 320h-46v210h45v72q0 66 6 105t20 65q17 33 47.5 51t68.5 18q28 0 39 -1.5t21 -4.5q6 -33 6 -109q0 -84 -7 -111q-12 4 -24 4q-25 0 -33.5 -19t-8.5 -49v-21h81v-210h-79v-320h-136v320zM60 320h-46v210h45v72q0 66 6 105t20 65
q17 33 47.5 51t68.5 18q28 0 39 -1.5t21 -4.5q6 -33 6 -109q0 -84 -7 -111q-12 4 -24 4q-25 0 -33.5 -19t-8.5 -49v-21h81v-210h-79v-320h-136v320z" />
    <glyph glyph-name="f_j" unicode="fj" horiz-adv-x="504" 
d="M478 -3q0 -38 -2 -68.5t-11 -54.5q-25 -66 -114 -66q-8 0 -20 0.5t-24.5 1.5t-24 2.5t-18.5 3.5q-4 14 -5 29t-1 27q0 21 2 42t6 37q6 -2 17.5 -3t18.5 -1q25 0 32.5 13.5t7.5 54.5v567h136v-585zM413 830q24 0 43.5 -9.5t32.5 -24.5t20 -33.5t7 -35.5q0 -23 -8.5 -42.5
t-23 -34t-33 -23t-39.5 -8.5q-26 0 -46 8.5t-33.5 22t-20 31.5t-6.5 37t7.5 39t21 36.5t33.5 26.5t45 10zM60 320h-46v210h45v72q0 66 6 105t20 65q17 33 47.5 51t68.5 18q28 0 39 -1.5t21 -4.5q6 -33 6 -109q0 -84 -7 -111q-12 4 -24 4q-25 0 -33.5 -19t-8.5 -49v-21h81
v-210h-79v-320h-136v320z" />
    <glyph glyph-name="f_k" unicode="fk" horiz-adv-x="781" 
d="M787 598l-160 -283l171 -315h-171l-139 250h-7v-57.5t0.5 -58.5t1.5 -63t2 -71h-165q5 123 6 275.5t1 334.5v99v62t-0.5 39t-1.5 31h170q-3 -92 -5 -165.5t-3.5 -133t-2.5 -107t-2 -87.5h7l138 250h160zM60 320h-46v210h45v72q0 66 6 105t20 65q17 33 47.5 51t68.5 18
q28 0 39 -1.5t21 -4.5q6 -33 6 -109q0 -84 -7 -111q-12 4 -24 4q-25 0 -33.5 -19t-8.5 -49v-21h81v-210h-79v-320h-136v320z" />
    <glyph glyph-name="f_f_j" unicode="ffj" horiz-adv-x="810" 
d="M784 -3q0 -38 -2 -68.5t-11 -54.5q-25 -66 -114 -66q-8 0 -20 0.5t-24.5 1.5t-24 2.5t-18.5 3.5q-4 14 -5 29t-1 27q0 21 2 42t6 37q6 -2 17.5 -3t18.5 -1q25 0 32.5 13.5t7.5 54.5v567h136v-585zM719 830q24 0 43.5 -9.5t32.5 -24.5t20 -33.5t7 -35.5q0 -23 -8.5 -42.5
t-23 -34t-33 -23t-39.5 -8.5q-26 0 -46 8.5t-33.5 22t-20 31.5t-6.5 37t7.5 39t21 36.5t33.5 26.5t45 10zM366 320h-46v210h45v72q0 66 6 105t20 65q17 33 47.5 51t68.5 18q28 0 39 -1.5t21 -4.5q6 -33 6 -109q0 -84 -7 -111q-12 4 -24 4q-25 0 -33.5 -19t-8.5 -49v-21h81
v-210h-79v-320h-136v320zM60 320h-46v210h45v72q0 66 6 105t20 65q17 33 47.5 51t68.5 18q28 0 39 -1.5t21 -4.5q6 -33 6 -109q0 -84 -7 -111q-12 4 -24 4q-25 0 -33.5 -19t-8.5 -49v-21h81v-210h-79v-320h-136v320z" />
    <glyph glyph-name="f_f_k" unicode="ffk" horiz-adv-x="1087" 
d="M1093 598l-160 -283l171 -315h-171l-139 250h-7v-57.5t0.5 -58.5t1.5 -63t2 -71h-165q5 123 6 275.5t1 334.5v99v62t-0.5 39t-1.5 31h170q-3 -92 -5 -165.5t-3.5 -133t-2.5 -107t-2 -87.5h7l138 250h160zM366 320h-46v210h45v72q0 66 6 105t20 65q17 33 47.5 51t68.5 18
q28 0 39 -1.5t21 -4.5q6 -33 6 -109q0 -84 -7 -111q-12 4 -24 4q-25 0 -33.5 -19t-8.5 -49v-21h81v-210h-79v-320h-136v320zM60 320h-46v210h45v72q0 66 6 105t20 65q17 33 47.5 51t68.5 18q28 0 39 -1.5t21 -4.5q6 -33 6 -109q0 -84 -7 -111q-12 4 -24 4q-25 0 -33.5 -19
t-8.5 -49v-21h81v-210h-79v-320h-136v320z" />
    <glyph glyph-name="f_t" unicode="ft" horiz-adv-x="604" 
d="M376 714h137v-116h77v-266h-79v-140q0 -41 7 -54.5t32 -13.5q7 0 19 1t18 3q2 -7 2 -28.5v-43.5v-34.5t-1 -21.5q-12 -2 -26.5 -3.5t-28 -2.5t-25 -1.5t-18.5 -0.5q-36 0 -59 14t-36 37.5t-18 53t-5 60.5q0 12 0.5 35.5t1 49.5t1.5 50.5t1 39.5h-60v266h60v116zM60 320
h-46v210h45v72q0 66 6 105t20 65q17 33 47.5 51t68.5 18q28 0 39 -1.5t21 -4.5q6 -33 6 -109q0 -84 -7 -111q-12 4 -24 4q-25 0 -33.5 -19t-8.5 -49v-21h81v-210h-79v-320h-136v320z" />
    <glyph glyph-name="f_f_t" unicode="fft" horiz-adv-x="910" 
d="M682 714h137v-116h77v-266h-79v-140q0 -41 7 -54.5t32 -13.5q7 0 19 1t18 3q2 -7 2 -28.5v-43.5v-34.5t-1 -21.5q-12 -2 -26.5 -3.5t-28 -2.5t-25 -1.5t-18.5 -0.5q-36 0 -59 14t-36 37.5t-18 53t-5 60.5q0 12 0.5 35.5t1 49.5t1.5 50.5t1 39.5h-60v266h60v116zM366 320
h-46v210h45v72q0 66 6 105t20 65q17 33 47.5 51t68.5 18q28 0 39 -1.5t21 -4.5q6 -33 6 -109q0 -84 -7 -111q-12 4 -24 4q-25 0 -33.5 -19t-8.5 -49v-21h81v-210h-79v-320h-136v320zM60 320h-46v210h45v72q0 66 6 105t20 65q17 33 47.5 51t68.5 18q28 0 39 -1.5t21 -4.5
q6 -33 6 -109q0 -84 -7 -111q-12 4 -24 4q-25 0 -33.5 -19t-8.5 -49v-21h81v-210h-79v-320h-136v320z" />
    <glyph glyph-name=".notdef" horiz-adv-x="626" 
d="M596 1045v-1250h-566v1250h566zM122 959v-1079h382v1079h-382z" />
    <glyph glyph-name="NULL" horiz-adv-x="0" 
 />
    <glyph glyph-name="nonmarkingreturn" horiz-adv-x="216" 
 />
    <glyph glyph-name="space" unicode=" " horiz-adv-x="124" 
 />
    <glyph glyph-name="t" unicode="t" horiz-adv-x="303" 
d="M75 714h137v-116h77v-266h-79v-140q0 -41 7 -54.5t32 -13.5q7 0 19 1t18 3q2 -7 2 -28.5v-43.5v-34.5t-1 -21.5q-12 -2 -26.5 -3.5t-28 -2.5t-25 -1.5t-18.5 -0.5q-36 0 -59 14t-36 37.5t-18 53t-5 60.5q0 12 0.5 35.5t1 49.5t1.5 50.5t1 39.5h-60v266h60v116z" />
    <glyph glyph-name="r" unicode="r" horiz-adv-x="314" 
d="M152 598l7 -76q12 19 29 35t35.5 27.5t37 18t34.5 6.5q2 -26 3.5 -59.5t1.5 -68.5q0 -40 -1.5 -79t-3.5 -72q-9 4 -25 6t-27 2q-37 0 -54.5 -17.5t-17.5 -43.5v-277h-147q1 162 1.5 307.5t0.5 290.5h126z" />
    <glyph glyph-name="c" unicode="c" horiz-adv-x="430" 
d="M301 609q59 0 107 -17q0 -17 0.5 -36.5t0.5 -39.5q0 -21 -0.5 -42t-0.5 -39q-33 28 -81 28q-30 0 -50 -9.5t-32.5 -24.5t-17.5 -32.5t-5 -33.5q0 -22 8 -41.5t22 -34.5t32.5 -23.5t39.5 -8.5q20 0 42 8t42 22q0 -33 0.5 -68.5t0.5 -71.5q0 -35 -0.5 -71.5t-0.5 -72.5
q-56 -12 -111 -12q-68 0 -121 21.5t-90 61.5t-56.5 97.5t-19.5 128.5q0 67 18 124.5t54.5 98.5t91 64.5t127.5 23.5z" />
    <glyph glyph-name="s" unicode="s" horiz-adv-x="383" 
d="M82 561q34 27 73 37.5t79 10.5q29 0 57.5 -5t54.5 -13q2 -61 2.5 -99.5t0.5 -59.5q0 -30 -1 -42.5t-2 -23.5q-2 0 -10 2t-19 4t-23.5 3.5t-24.5 1.5q-18 0 -30.5 -4.5t-12.5 -17.5q0 -11 8 -20.5t19.5 -19t25 -18t25.5 -15.5q27 -18 50.5 -48.5t23.5 -80.5
q0 -44 -19.5 -75t-49.5 -51t-67.5 -29t-73.5 -9q-14 0 -32 1t-36.5 4t-36.5 7.5t-33 11.5q-5 17 -7 36.5t-2 38.5q0 9 0.5 22t1.5 26.5t3 26.5t4 22q11 -5 25.5 -10.5t30.5 -10.5t31.5 -8.5t29.5 -3.5q20 0 31 8t11 22q0 12 -7 21.5t-17 18t-22 15t-22 11.5q-19 10 -39 22
t-36 29.5t-26 42.5t-10 61q0 42 16.5 84t55.5 74z" />
    <glyph glyph-name="p" unicode="p" 
d="M28 597h137v-49q36 28 75.5 44.5t78.5 16.5q45 0 83 -22.5t65.5 -62.5t43.5 -95t16 -121q0 -68 -17 -126.5t-47 -101.5t-70.5 -67t-87.5 -24q-40 0 -76.5 17t-63.5 43v-230h-142zM165 361q0 -41 22.5 -66t57.5 -25q38 0 64.5 27t26.5 69q0 19 -6.5 36t-18.5 29.5
t-27.5 19.5t-33.5 7q-37 0 -61 -27t-24 -70z" />
    <glyph glyph-name="a" unicode="a" 
d="M509 0h-137v49q-36 -29 -76 -44.5t-78 -15.5q-45 0 -83 22t-65.5 61.5t-43.5 94.5t-16 120q0 68 17 127t46.5 102.5t70 68t87.5 24.5q41 0 78 -17.5t63 -43.5v50h142zM201 361q0 -41 22.5 -66t57.5 -25q38 0 64.5 27t26.5 69q0 19 -6.5 36t-18.5 29.5t-28 19.5t-34 7
q-36 0 -60 -27t-24 -70z" />
    <glyph glyph-name="d" unicode="d" 
d="M509 0h-137v49q-36 -29 -76 -44.5t-78 -15.5q-45 0 -83 22t-65.5 61.5t-43.5 94.5t-16 120q0 68 17 127t46.5 102.5t70 68t87.5 24.5q41 0 78 -17.5t63 -43.5v293h142zM201 361q0 -41 22.5 -66t57.5 -25q38 0 64.5 27t26.5 69q0 19 -6.5 36t-18.5 29.5t-28 19.5t-34 7
q-36 0 -60 -27t-24 -70z" />
    <glyph glyph-name="exclam" unicode="!" horiz-adv-x="256" 
d="M239 824l-49 -521h-121v538zM120 204q25 0 44.5 -10t33 -25.5t20.5 -34t7 -35.5q0 -22 -8.5 -42t-23 -35t-34 -24t-40.5 -9q-27 0 -47 8.5t-33 23t-19.5 32.5t-6.5 37q0 20 7 40.5t20.5 37t33.5 26.5t46 10z" />
    <glyph glyph-name="l" unicode="l" horiz-adv-x="198" 
d="M181 841q-5 -139 -7.5 -282t-2.5 -304v-109.5v-68t0.5 -43t0.5 -34.5h-150q3 88 4 206t1 274v115.5t-0.5 86.5t-0.5 75.5v83.5h155z" />
    <glyph glyph-name="b" unicode="b" 
d="M23 841h142v-293q27 26 63.5 43.5t77.5 17.5q47 0 87.5 -24.5t70 -68t46.5 -102.5t17 -127q0 -65 -16 -120t-43.5 -94.5t-65.5 -61.5t-83 -22q-38 0 -78 15.5t-76 44.5v-49h-137zM165 361q0 -41 22.5 -66t57.5 -25q38 0 64.5 27t26.5 69q0 19 -6.5 36t-18.5 29.5
t-27.5 19.5t-33.5 7q-37 0 -61 -27t-24 -70z" />
    <glyph glyph-name="u" unicode="u" horiz-adv-x="459" 
d="M288 0v53q-24 -29 -58 -46.5t-69 -17.5q-22 0 -42.5 6.5t-37.5 17.5t-29.5 26.5t-18.5 33.5q-4 14 -6.5 40.5t-2.5 56.5v428h147v-300q0 -30 14 -47.5t38 -17.5q12 0 24.5 5t22 13t15.5 19t6 23v305h147q-1 -33 -2 -69.5l-2 -73t-1.5 -72.5t-0.5 -68v-57t0.5 -83t0.5 -92
v-83h-145z" />
    <glyph glyph-name="e" unicode="e" horiz-adv-x="522" 
d="M230 315q13 -43 43 -70t83 -27q16 0 34.5 2.5t36.5 7t34 10t28 10.5q2 -29 2.5 -61.5t0.5 -64.5q0 -53 -3 -95q-78 -38 -175 -38q-45 0 -91 10t-89 38q-38 25 -62.5 58.5t-38.5 69t-19 69.5t-5 61q0 40 9.5 83.5t29.5 83t51 72.5t73 52q51 23 108 23q60 0 108 -24t78 -66
q29 -40 36.5 -89t7.5 -115h-280zM287 501q-21 0 -40 -17.5t-25 -61.5h131q-4 40 -23.5 59.5t-42.5 19.5z" />
    <glyph glyph-name="g" unicode="g" horiz-adv-x="538" 
d="M372 70q-38 -30 -69.5 -43t-68.5 -13q-50 0 -91 20.5t-70.5 57t-46 87.5t-16.5 112q0 66 18.5 123.5t51 101t75.5 68.5t92 25q73 0 125 -61v50h142v-322q0 -89 -2.5 -151t-7.5 -98q-15 -106 -80.5 -162.5t-172.5 -56.5q-45 0 -85.5 10t-74.5 29v123q73 -37 146 -37
q66 0 100.5 28t34.5 80v29zM201 361q0 -41 22 -66t58 -25q19 0 35.5 7.5t29 20.5t19.5 30.5t7 37.5q0 19 -6.5 36t-18.5 29.5t-28 19.5t-34 7q-36 0 -60 -27t-24 -70z" />
    <glyph glyph-name="L" unicode="L" horiz-adv-x="366" 
d="M200 818q-3 -137 -4.5 -226t-2.5 -149.5t-1 -101.5v-83l157 6q2 -33 3 -65t1 -64q0 -33 -1 -66.5t-3 -68.5h-323q3 140 4.5 287t1.5 287v126t-1 118h169z" />
    <glyph glyph-name="q" unicode="q" horiz-adv-x="538" 
d="M509 -181h-137v230q-36 -29 -76 -44.5t-78 -15.5q-45 0 -83 22t-65.5 61.5t-43.5 94.5t-16 120q0 68 17 127t46.5 102.5t70 68t87.5 24.5q41 0 78 -17.5t63 -43.5v50h142zM201 361q0 -41 22.5 -66t57.5 -25q38 0 64.5 27t26.5 69q0 19 -6.5 36t-18.5 29.5t-28 19.5t-34 7
q-36 0 -60 -27t-24 -70z" />
    <glyph glyph-name="m" unicode="m" horiz-adv-x="698" 
d="M170 598v-53q20 32 53.5 48t71.5 16q36 0 66 -15.5t46 -49.5q18 32 54.5 48.5t79.5 16.5q65 0 99.5 -41.5t34.5 -139.5v-428h-147v307q0 37 -15.5 53.5t-35.5 16.5t-37 -16.5t-17 -45.5v-315h-147v295q0 39 -17.5 57t-37.5 18t-35.5 -17.5t-15.5 -46.5v-306h-145v67
t0.5 75t0.5 72.5v60.5v64.5t-0.5 84.5t-0.5 90.5v83.5h145z" />
    <glyph glyph-name="f" unicode="f" horiz-adv-x="291" 
d="M60 320h-46v210h45v72q0 66 6 105t20 65q19 33 54 51t82 18q15 0 34.5 -1.5t28.5 -4.5q3 -15 4.5 -41t1.5 -68q0 -84 -7 -111q-5 2 -19.5 3t-27.5 1t-21.5 -2.5t-13 -10t-6 -21t-1.5 -34.5v-21h81v-210h-79v-320h-136v320z" />
    <glyph glyph-name="j" unicode="j" horiz-adv-x="188" 
d="M162 -3q0 -38 -2 -68.5t-11 -54.5q-25 -66 -114 -66q-8 0 -20 0.5t-24.5 1.5t-24 2.5t-18.5 3.5q-4 14 -5 29t-1 27q0 21 2 42t6 37q6 -2 17.5 -3t18.5 -1q25 0 32.5 13.5t7.5 54.5v567h136v-585zM97 830q24 0 43.5 -9.5t32.5 -24.5t20 -33.5t7 -35.5q0 -23 -8.5 -42.5
t-23 -34t-33 -23t-39.5 -8.5q-26 0 -46 8.5t-33.5 22t-20 31.5t-6.5 37t7.5 39t21 36.5t33.5 26.5t45 10z" />
    <glyph glyph-name="o" unicode="o" horiz-adv-x="479" 
d="M240 609q122 0 174.5 -80t52.5 -230q0 -151 -52.5 -230.5t-174.5 -79.5q-123 0 -175.5 79.5t-52.5 230.5q0 150 52.5 230t175.5 80zM240 224q20 0 35.5 8t25.5 21t15 29.5t5 34.5t-5 35t-15 30t-25.5 21t-35.5 8q-41 0 -61.5 -29t-20.5 -65q0 -18 5 -34.5t15.5 -29.5
t25.5 -21t36 -8z" />
    <glyph glyph-name="k" unicode="k" horiz-adv-x="482" 
d="M488 598l-160 -283l171 -315h-171l-139 250h-7v-57.5t0.5 -58.5t1.5 -63t2 -71h-165q5 123 6 275.5t1 334.5v99v62t-0.5 39t-1.5 31h170q-3 -92 -5 -165.5t-3.5 -133t-2.5 -107t-2 -87.5h7l138 250h160z" />
    <glyph glyph-name="w" unicode="w" horiz-adv-x="697" 
d="M698 598l-114 -598h-185l-50 302l-49 -302h-184l-116 598h150l41 -318q3 -21 7.5 -31.5t14.5 -10.5q8 0 12 10t7 32l49 318h136l52 -318q3 -21 7.5 -31.5t13.5 -10.5q15 0 19 42l39 318h150z" />
    <glyph glyph-name="z" unicode="z" horiz-adv-x="440" 
d="M17 0q-5 20 -6.5 44t-1.5 49q0 31 2.5 58t7.5 54l211 192h-193q-3 20 -5 45.5t-2 54.5q0 28 2 54t5 47h378q2 -18 3.5 -37t1.5 -42q0 -16 -1 -38t-4 -56l-240 -212h243q3 -23 5 -50.5t2 -56.5q0 -30 -2 -57.5t-5 -48.5h-401z" />
    <glyph glyph-name="v" unicode="v" horiz-adv-x="456" 
d="M458 598l-135 -598h-189l-137 598h149l58 -318q3 -18 9.5 -30t16.5 -12q17 0 25 42l54 318h149z" />
    <glyph glyph-name="y" unicode="y" horiz-adv-x="452" 
d="M458 598l-206 -779h-151l47 198l-154 581h158l55 -291q5 -23 8.5 -35t11.5 -12q13 0 22 47l57 291h152z" />
    <glyph glyph-name="x" unicode="x" horiz-adv-x="448" 
d="M224 195q-3 0 -7.5 -7.5t-10 -20t-11.5 -28.5l-12 -32l-40 -107h-153l131 300l-129 298h151l38 -105q6 -17 12 -33.5t11.5 -29.5t10.5 -20.5t9 -7.5t9 7.5t10.5 20.5t11.5 29.5t12 33.5l37 105h152l-129 -298l131 -300h-153l-40 107l-12 32t-11.5 28.5t-10 20t-7.5 7.5z
" />
    <glyph glyph-name="B" unicode="B" horiz-adv-x="584" 
d="M185 553q14 -2 23 -2h19q54 0 86 20t32 53q0 30 -27.5 46t-80.5 16q-17 0 -30.5 -1.5t-21.5 -4.5v-127zM28 0q1 46 1.5 89.5t1 86t0.5 85.5v89q0 131 -1.5 251t-5.5 214q56 8 115 11.5t106 3.5q278 0 278 -161q0 -63 -36.5 -107.5t-96.5 -54.5q97 -18 142 -74.5
t45 -159.5q0 -145 -90 -214.5t-280 -69.5q-37 0 -82.5 2.5t-96.5 8.5zM185 269q10 -3 30 -5t39 -2q63 0 95.5 20t32.5 57q0 38 -34.5 58t-95.5 20q-13 0 -28.5 -1t-38.5 -3v-144z" />
    <glyph glyph-name="C" unicode="C" horiz-adv-x="516" 
d="M387 830q36 0 62.5 -4.5t49.5 -12.5q0 -17 0.5 -36t0.5 -41t-0.5 -46.5t-0.5 -45.5q-38 24 -91 24q-50 0 -83.5 -18.5t-54 -47.5t-29 -63.5t-8.5 -65.5q0 -42 13 -79t36.5 -64.5t55 -43.5t68.5 -16q17 0 43.5 5t49.5 19q0 -35 0.5 -73t0.5 -74q0 -38 -0.5 -74t-0.5 -72
q-56 -12 -114 -12q-88 0 -157.5 29t-118 83.5t-74 132t-25.5 173.5q0 92 24 169.5t71.5 134t118 88t163.5 31.5z" />
    <glyph glyph-name="D" unicode="D" horiz-adv-x="625" 
d="M24 815q57 8 109 11.5t89 3.5q88 0 162 -24t130 -86q51 -58 76 -140.5t25 -177.5q0 -93 -24 -169t-73.5 -130t-124.5 -84t-177 -30q-23 0 -74.5 2t-113.5 9q1 46 1.5 89.5t1 86t0.5 85.5v89q0 131 -1.5 251t-5.5 214zM218 664q-10 0 -18.5 -1t-16.5 -2q-1 -47 -1 -93.5
v-93.5q0 -23 0.5 -49t1 -53.5t1.5 -55t1 -51.5q9 -2 18 -2.5t16 -0.5q37 0 68.5 16t55 43.5t36.5 64.5t13 79q0 31 -8.5 66.5t-29 64.5t-54 48.5t-83.5 19.5z" />
    <glyph glyph-name="E" unicode="E" horiz-adv-x="415" 
d="M398 -3q-28 1 -74 1.5t-98.5 1t-105 0.5h-92.5q1 21 1.5 56t0.5 80v97.5v108.5q0 76 -0.5 152t-0.5 141.5t-0.5 113.5t-0.5 68h86t96 0.5t96 1.5t88 2q0 -13 0.5 -22.5t0.5 -26.5q0 -12 -0.5 -28.5t-1 -34l-1 -35t-1.5 -32.5h-201v-116h175v-149h-175v-112h204
q1 -23 2 -47t1.5 -54t0.5 -70.5v-96.5z" />
    <glyph glyph-name="F" unicode="F" horiz-adv-x="404" 
d="M28 0q1 16 1.5 54.5t0.5 91v115.5v129v131.5v122.5t-0.5 102t-1.5 71q39 0 86 0.5t96 1t96 1.5t88 2q1 -15 1 -29v-28q0 -29 -1 -60t-3 -62h-201v-150h167v-170h-167q0 -50 0.5 -99t1 -92t1.5 -77.5t2 -54.5h-167z" />
    <glyph glyph-name="G" unicode="G" horiz-adv-x="584" 
d="M565 455v-454q-54 -7 -95.5 -9.5t-68.5 -2.5q-92 0 -165 29t-123 83.5t-76.5 132t-26.5 173.5q0 92 25 169.5t74.5 134t124 88t172.5 31.5q42 0 72.5 -5.5t59.5 -14.5q0 -16 0.5 -35t0.5 -41t-0.5 -47t-0.5 -45q-49 26 -112 26q-55 0 -92 -18.5t-59.5 -47.5t-32 -64.5
t-9.5 -68.5q0 -38 11.5 -74t34.5 -64t57.5 -45t81.5 -17h9.5t9.5 1v185h128z" />
    <glyph glyph-name="H" unicode="H" horiz-adv-x="529" 
d="M506 818q-3 -63 -4.5 -119t-2.5 -110.5t-1.5 -110t-0.5 -118.5q0 -74 0.5 -161t1.5 -199h-166q2 60 3 125.5t2 149.5h-148q0 -59 0.5 -126.5t1.5 -148.5h-166q1 44 2 90t2 99t1 116v140v117.5t-0.5 90.5t-0.5 79.5v85.5h169q-4 -83 -6 -153.5t-3 -142.5h148v83.5t-0.5 72
t-0.5 68v72.5h169z" />
    <glyph glyph-name="I" unicode="I" horiz-adv-x="355" 
d="M99 283v162q0 64 -0.5 109t-0.5 83h-74q-1 23 -2 45t-1 45t1 46t2 45h308q1 -23 1 -45.5v-45.5v-45t-1 -45h-73q-2 -67 -2.5 -132t-0.5 -145v-77h76q1 -36 1 -71v-71v-70.5t-1 -70.5h-308q-1 35 -2 70.5t-1 70.5q0 36 1 71t2 71h75z" />
    <glyph glyph-name="J" unicode="J" horiz-adv-x="378" 
d="M352 428q0 -71 -0.5 -118t-1.5 -77t-3 -47t-4 -30q-13 -75 -64.5 -121t-145.5 -46q-24 0 -58.5 3.5t-67.5 12.5q-2 34 -3 69.5t-1 70.5q0 36 1 72t3 72q25 -11 45 -16t42 -5q31 0 50.5 10.5t31 32.5t15.5 57t4 83v196h-139v171h296v-390z" />
    <glyph glyph-name="A" unicode="A" horiz-adv-x="534" 
d="M-4 0l148 818h247l147 -818h-169l-25 164h-154l-24 -164h-170zM217 343h100l-50 330z" />
    <glyph glyph-name="T" unicode="T" horiz-adv-x="419" 
d="M408 633h-115q-2 -89 -3 -180.5t-1 -197.5v-109.5v-68t0.5 -43t0.5 -34.5h-168q1 44 2 91.5t1.5 103t1 120t0.5 142.5v99t-1 77h-115v185h397v-185z" />
    <glyph glyph-name="P" unicode="P" horiz-adv-x="558" 
d="M198 460q18 -5 34.5 -6.5t28.5 -1.5q19 0 36.5 4.5t30.5 15.5t21 29.5t8 47.5q0 30 -8.5 49.5t-22.5 30.5t-32.5 15t-38.5 4q-29 0 -57 -6v-182zM27 0q3 95 4 189.5t1 179.5q0 121 -1.5 230t-3.5 219q49 5 98.5 8.5t97.5 3.5q69 0 129 -11t104.5 -40.5t70.5 -82
t26 -134.5q0 -76 -22 -129.5t-61.5 -87t-94.5 -48.5t-122 -15q-17 0 -29.5 1t-27.5 3q0 -72 1 -143t6 -143h-176z" />
    <glyph glyph-name="Z" unicode="Z" horiz-adv-x="506" 
d="M12 0q-8 43 -8 93q0 31 3 58t8 54l279 434h-260q-3 17 -4.5 37t-1.5 41q0 27 2 53.5t6 47.5h446q2 -18 3.5 -37t1.5 -41q0 -17 -1 -38.5t-4 -56.5l-279 -432h285q4 -23 5.5 -50.5t1.5 -56.5q0 -30 -1.5 -57.5t-5.5 -48.5h-476z" />
    <glyph glyph-name="Q" unicode="Q" horiz-adv-x="608" 
d="M304 830q149 0 220 -106t71 -308q0 -174 -41.5 -264t-119.5 -109q30 -11 63.5 -17t79.5 -6l-57 -180q-38 1 -70.5 13.5t-58.5 33t-46.5 47t-35.5 55.5h-5q-75 0 -130 28.5t-91 83t-53 134t-17 181.5q0 205 71 309.5t220 104.5zM304 247q32 0 56.5 14.5t40.5 40t24 61
t8 78.5t-8 79.5t-24 63.5t-40.5 42t-56.5 15t-55.5 -15.5t-40 -42.5t-24.5 -63.5t-8 -78.5q0 -43 8 -78.5t24.5 -61t40 -40t55.5 -14.5z" />
    <glyph glyph-name="U" unicode="U" horiz-adv-x="597" 
d="M566 819q2 -146 6 -252.5t4 -181.5q0 -49 -3 -97.5t-13 -92.5t-28.5 -81.5t-49 -65.5t-75.5 -43.5t-107 -15.5q-64 0 -109.5 16.5t-76.5 44.5t-49.5 66.5t-28.5 82.5t-13 91t-3 94q0 37 1 79t3 94t4.5 116t5.5 145h176q-3 -90 -5 -152.5t-3.5 -104.5t-2 -66.5t-1 -37.5
t-0.5 -18.5v-8.5q0 -97 22 -146t79 -49q58 0 78.5 53t20.5 161v11.5t-0.5 20.5t-1 37.5t-2 63t-3.5 97t-5 139.5z" />
    <glyph glyph-name="Y" unicode="Y" 
d="M382 818h165l-195 -518v-45v-109.5v-68t0.5 -43t0.5 -34.5h-173q2 65 3 136t2 164l-194 518h166l112 -341z" />
    <glyph glyph-name="V" unicode="V" horiz-adv-x="562" 
d="M397 818h170l-162 -818h-248l-162 818h171l115 -622z" />
    <glyph glyph-name="W" unicode="W" horiz-adv-x="812" 
d="M644 818h166l-122 -818h-197l-87 438l-87 -438h-192l-126 818h166l63 -559l114 552l128 6l113 -558z" />
    <glyph glyph-name="M" unicode="M" horiz-adv-x="696" 
d="M518 501l-129 -466h-93l-121 453q1 -122 4.5 -246t5.5 -242h-158q2 103 3 204.5t1 204.5t-1 204.5t-3 204.5h214l106 -469l119 469h202q-3 -204 -3 -409t3 -409h-160z" />
    <glyph glyph-name="O" unicode="O" horiz-adv-x="608" 
d="M304 830q149 0 220 -106t71 -308q0 -205 -69.5 -316t-221.5 -111q-75 0 -130 28.5t-91 83t-53 134t-17 181.5q0 205 71 309.5t220 104.5zM304 247q32 0 56.5 14.5t40.5 40t24 61t8 78.5t-8 79.5t-24 63.5t-40.5 42t-56.5 15t-55.5 -15.5t-40 -42.5t-24.5 -63.5t-8 -78.5
q0 -43 8 -78.5t24.5 -61t40 -40t55.5 -14.5z" />
    <glyph glyph-name="S" unicode="S" horiz-adv-x="460" 
d="M17 615q0 64 24.5 105.5t62 66t83 34t87.5 9.5q12 0 30.5 -1t39 -3t42 -5.5t40.5 -9.5q2 -26 3 -48.5t1 -51.5t-1 -55.5t-3 -50.5q-8 1 -20.5 3t-26 3l-27 2t-25.5 1q-48 0 -70 -15t-22 -41q0 -15 7 -28.5t18.5 -25.5t26 -23t29.5 -21q24 -17 48.5 -37.5t44.5 -49t33 -66
t13 -86.5q0 -64 -22 -108t-56.5 -71.5t-77 -40t-84.5 -12.5q-19 0 -46.5 2.5t-55.5 7t-53 11t-40 15.5q-4 18 -6.5 37t-2.5 42q0 16 1.5 39t3.5 47t4.5 46t4.5 37q11 -6 32 -13.5t45.5 -14.5t49.5 -12t44 -5q32 0 48 13.5t16 36.5q0 25 -18 44.5t-45 38.5t-58.5 40.5
t-58.5 50.5t-45 68.5t-18 94.5z" />
    <glyph glyph-name="N" unicode="N" horiz-adv-x="597" 
d="M426 818h143q-3 -204 -3 -409t3 -409h-193l-212 489v-489h-137q2 103 3 204.5t1 204.5t-1 204.5t-3 204.5h202l197 -488v488z" />
    <glyph glyph-name="X" unicode="X" horiz-adv-x="530" 
d="M366 818h177l-160 -386l162 -431h-175l-105 325l-104 -325h-176l162 431l-160 386h177l101 -287z" />
    <glyph glyph-name="zero" unicode="0" horiz-adv-x="579" 
d="M294 830q66 0 115.5 -28t82.5 -81.5t49.5 -131t16.5 -176.5q0 -205 -68.5 -314.5t-202.5 -109.5q-67 0 -117 28t-83 81.5t-49.5 130t-16.5 174.5q0 210 71 318.5t202 108.5zM290 247q26 0 45.5 15.5t33 43t20 64t6.5 78.5q0 41 -6.5 76t-19.5 61t-32.5 41t-44.5 15
q-26 0 -46 -15t-34 -41t-21 -62t-7 -78q0 -41 7 -77t20.5 -63t33 -42.5t45.5 -15.5z" />
    <glyph glyph-name="one" unicode="1" horiz-adv-x="390" 
d="M297 828q-3 -64 -4.5 -125t-2.5 -129t-1.5 -147.5t-0.5 -179.5h84q3 -62 3 -124t-3 -123h-324q-2 31 -3 61.5t-1 61.5q0 32 1 62.5t3 61.5h83v88t-0.5 92t-0.5 90v82l-106 -13q-3 43 -3 87v27t0.5 33.5t1 33.5t1.5 27z" />
    <glyph glyph-name="two" unicode="2" horiz-adv-x="485" 
d="M467 615q0 -55 -19.5 -94.5t-49.5 -70t-65 -55t-65 -47.5t-51.5 -48.5t-23.5 -57.5l261 10q2 -31 4.5 -63.5t2.5 -64.5q0 -63 -3 -124h-440v188q0 55 17 95t43 69.5t55.5 52t55.5 44t43 44.5t17 54q0 20 -8 34.5t-20.5 23.5t-27.5 13.5t-28 4.5q-35 0 -67 -20t-51 -50
q-2 24 -3 54t-1 59t1 51.5t3 48.5q14 20 36.5 32.5t47 19.5t48 9.5t40.5 2.5q37 0 80.5 -9.5t80.5 -34t62 -66t25 -105.5z" />
    <glyph glyph-name="three" unicode="3" horiz-adv-x="493" 
d="M110 368q-3 31 -3 64q0 28 3 58q12 -2 23 -3t20 -1q57 0 83 25t26 57q0 16 -6 31t-18 27t-29.5 19.5t-39.5 7.5q-18 0 -36 -5t-35 -14t-31.5 -21t-23.5 -26q-2 24 -3 48t-1 54q0 14 0.5 23t1 16.5t1 16t1.5 21.5q13 19 35 31.5t47 20t49.5 10t44.5 2.5q45 0 87.5 -12
t75.5 -36.5t53 -61t20 -85.5q0 -38 -12 -72t-31.5 -61t-43 -46.5t-47.5 -28.5q25 -3 52.5 -15t50 -34.5t37 -57.5t14.5 -84q0 -66 -24 -113t-62.5 -77t-86.5 -43.5t-95 -13.5q-24 0 -50 3.5t-51 11t-47.5 19t-38.5 26.5q-2 26 -2.5 51.5t-0.5 54.5t0.5 58.5t2.5 53.5
q19 -30 58 -48.5t79 -18.5t69.5 22t29.5 71q0 14 -4 27.5t-16 24.5t-34 17.5t-59 6.5h-16.5t-16.5 -1z" />
    <glyph glyph-name="four" unicode="4" horiz-adv-x="517" 
d="M442 818q-3 -60 -4.5 -114.5t-2.5 -107t-1.5 -104.5t-0.5 -106h58q2 -23 3 -47t1 -49q0 -32 -1 -63.5t-3 -61.5h-58v-165h-162q2 39 2.5 80t1.5 85h-262q-1 32 -1.5 63t-0.5 64v48t2 46q11 25 29 62.5t39.5 79.5t43.5 86.5t41.5 84t34 71t20.5 48.5h221zM131 386h145v14
v98.5t-0.5 69t-0.5 53.5v52z" />
    <glyph glyph-name="five" unicode="5" horiz-adv-x="506" 
d="M171 627q-2 -15 -2.5 -36t-0.5 -35q0 -31 3 -59q22 5 43.5 8t42.5 3q52 0 96 -19t76 -52t49.5 -77.5t17.5 -94.5q0 -52 -19.5 -101.5t-56.5 -88.5t-90.5 -62.5t-121.5 -23.5q-18 0 -42.5 2t-49.5 9t-47.5 19.5t-36.5 32.5q-2 27 -2.5 49t-0.5 51q0 30 0.5 50t2.5 43
q23 -24 58 -38t75 -14q56 0 89 25.5t33 67.5t-33.5 65t-92.5 23q-40 0 -73 -10.5t-54 -30.5q3 121 3 242q0 59 -0.5 122t-2.5 121h431q2 -25 3 -49t1 -49q0 -26 -1 -51t-3 -51z" />
    <glyph glyph-name="six" unicode="6" horiz-adv-x="580" 
d="M455 818q-75 -78 -127.5 -149.5t-84.5 -146.5q21 8 50 11.5t49 3.5q48 0 87 -16.5t64 -37.5q46 -39 64 -91t18 -102q0 -74 -25.5 -130t-67 -94t-93.5 -57.5t-105 -19.5q-50 0 -98 17.5t-85.5 53.5t-60 91.5t-22.5 131.5q0 61 15.5 132.5t44.5 143t70.5 139t93.5 120.5
h213zM297 390q-40 0 -63 -26.5t-23 -70.5q0 -38 20 -66.5t64 -28.5q23 0 39 8.5t26.5 22.5t15.5 31.5t5 34.5q0 18 -5 35t-15.5 30.5t-26 21.5t-37.5 8z" />
    <glyph glyph-name="nine" unicode="9" horiz-adv-x="579" 
d="M123 0q76 78 129 150t84 147q-21 -9 -50 -12.5t-49 -3.5q-66 0 -110.5 24.5t-71.5 61.5t-39 80t-12 81q0 74 25.5 130.5t67 94.5t93.5 57.5t105 19.5q50 0 98 -17.5t85.5 -54t60 -92t22.5 -131.5q0 -61 -15.5 -132.5t-44.5 -143t-70.5 -139t-93.5 -120.5h-214zM284 460
q40 0 63 26.5t23 70.5q0 38 -20 66.5t-64 28.5q-23 0 -39 -8.5t-26.5 -22.5t-15.5 -31.5t-5 -34.5q0 -18 5 -35t15.5 -30.5t26 -21.5t37.5 -8z" />
    <glyph glyph-name="seven" unicode="7" horiz-adv-x="487" 
d="M35 0l270 617l-288 -10q-3 20 -5 45.5t-2 54.5q0 28 2 57.5t5 53.5h458q3 -18 4.5 -41t1.5 -45q0 -17 -1 -43.5t-5 -61.5q-17 -36 -37 -84.5t-41.5 -104t-42.5 -114.5t-39.5 -117t-33.5 -111t-24 -96h-222z" />
    <glyph glyph-name="eight" unicode="8" horiz-adv-x="574" 
d="M289 -11q-134 0 -202.5 65.5t-68.5 185.5q0 55 14 93.5t34.5 64t45 39.5t45.5 19q-21 6 -40.5 19.5t-34.5 34.5t-24 50t-9 67q0 50 19.5 88t52 63.5t75.5 38.5t91 13q47 0 90 -13t76 -38.5t53 -63.5t20 -89q0 -35 -8.5 -64t-23.5 -51t-35 -36t-42 -19q25 -10 49.5 -26.5
t44.5 -42.5t32.5 -63t12.5 -88q0 -120 -68 -183.5t-199 -63.5zM287 381q-43 0 -66 -25.5t-23 -62.5q0 -38 23 -64.5t64 -26.5q23 0 40 8.5t28.5 21.5t17.5 29.5t6 31.5t-5 30.5t-16 28t-28 21t-41 8.5zM285 664q-35 0 -55.5 -24t-20.5 -55q0 -32 20.5 -53.5t54.5 -21.5
q38 0 59 24t21 51q0 12 -5 26t-14.5 26t-24.5 19.5t-35 7.5z" />
    <glyph glyph-name="period" unicode="." horiz-adv-x="233" 
d="M118 204q25 0 44.5 -10t33 -25.5t20.5 -34t7 -35.5q0 -22 -8.5 -42t-23 -35t-34 -24t-40.5 -9q-27 0 -47 8.5t-33 23t-19.5 32.5t-6.5 37q0 20 7 40.5t20.5 37t33.5 26.5t46 10z" />
    <glyph glyph-name="comma" unicode="," horiz-adv-x="229" 
d="M4 112q11 42 41 66.5t70 24.5q46 0 73.5 -29.5t27.5 -77.5q0 -32 -13.5 -67.5t-37 -71.5t-55.5 -70t-70 -62l-57 56q39 35 58.5 70t19.5 67q0 51 -57 94z" />
    <glyph glyph-name="hyphen" unicode="-" horiz-adv-x="351" 
d="M323 422q0 -21 0.5 -41t0.5 -40t-0.5 -39.5t-0.5 -39.5h-296q-2 20 -2 40v40v40t2 40h296z" />
    <glyph glyph-name="plus" unicode="+" horiz-adv-x="487" 
d="M183 284h-166v120h166v186h120v-186h167v-120h-167v-187h-120v187z" />
    <glyph glyph-name="bar" unicode="|" horiz-adv-x="181" 
d="M144 841v-1033h-107v1033h107z" />
    <glyph glyph-name="minus" unicode="&#x2212;" horiz-adv-x="495" 
d="M464 403v-119h-433v119h433z" />
    <glyph glyph-name="equal" unicode="=" horiz-adv-x="506" 
d="M471 294q1 -19 2 -37t1 -36q0 -19 -1 -36.5t-2 -36.5h-435q-2 19 -3 36.5t-1 36.5q0 18 1 36t3 37h435zM471 542q1 -19 2 -37t1 -36q0 -19 -1 -36.5t-2 -36.5h-435q-2 19 -3 36.5t-1 36.5q0 18 1 36t3 37h435z" />
    <glyph glyph-name="endash" unicode="&#x2013;" horiz-adv-x="464" 
d="M436 422q0 -21 1 -41t1 -40t-1 -39.5t-1 -39.5h-409q-2 20 -2 40v40v40t2 40h409z" />
    <glyph glyph-name="emdash" unicode="&#x2014;" horiz-adv-x="646" 
d="M618 422q0 -21 0.5 -41t0.5 -40t-0.5 -39.5t-0.5 -39.5h-591q-2 20 -2 40v40v40t2 40h591z" />
    <glyph glyph-name="underscore" unicode="_" horiz-adv-x="700" 
d="M668 -56q2 -17 3 -34t1 -35q0 -16 -1 -32.5t-3 -34.5h-637q-2 16 -2.5 33.5t-0.5 34.5t0.5 34t2.5 34h637z" />
    <glyph glyph-name="parenleft" unicode="(" horiz-adv-x="242" 
d="M244 861q-56 -103 -83.5 -222t-27.5 -240t28 -245.5t83 -233.5l-112 -34q-56 109 -86.5 238t-30.5 261t30.5 263.5t86.5 246.5z" />
    <glyph glyph-name="quoteleft" unicode="&#x2018;" horiz-adv-x="214" 
d="M204 626q1 -8 1 -13.5v-13.5q0 -42 -25 -68t-68 -26q-49 0 -76 34t-27 88q0 33 10 65t28.5 60.5t45.5 51t60 37.5l42 -38q-28 -20 -43.5 -46t-15.5 -52q0 -28 17.5 -49.5t50.5 -29.5z" />
    <glyph glyph-name="asterisk" unicode="*" horiz-adv-x="450" 
d="M181 702l-13 139h111l-13 -142l126 66l42 -105l-137 -41l103 -110l-88 -69l-87 133l-84 -133l-90 69l104 109l-139 42l43 105z" />
    <glyph glyph-name="dollar" unicode="$" horiz-adv-x="371" 
d="M86 654q18 14 42 25l-18 139h141l-16 -121q23 -1 45.5 -5t43.5 -11q1 -29 1.5 -58.5t0.5 -58.5v-42.5t-2 -43.5q-5 1 -26.5 5.5t-43.5 4.5q-16 0 -27 -4t-11 -16q0 -14 10 -24.5t25.5 -20t33 -20.5t33 -26.5t25.5 -37t10 -52.5q0 -30 -10 -53t-26.5 -40.5t-39 -29
t-46.5 -17.5l20 -147h-141l18 140q-23 2 -46.5 7t-42.5 14q-8 32 -8 67q0 9 0.5 20.5t1.5 23.5t2.5 23.5t3.5 19.5q20 -8 50.5 -18.5t55.5 -10.5q37 0 37 27q0 18 -12 29t-30 20.5t-38.5 20t-38.5 27t-30 40.5t-12 62t15 75.5t50 66.5z" />
    <glyph glyph-name="quotesinglbase" unicode="&#x201a;" horiz-adv-x="228" 
d="M3 113q11 42 41 66.5t70 24.5q46 0 73.5 -29.5t27.5 -77.5q0 -32 -13.5 -67.5t-37 -71.5t-55.5 -70t-70 -62l-57 56q39 35 58.5 70t19.5 67q0 51 -57 94z" />
    <glyph glyph-name="dagger" unicode="&#x2020;" horiz-adv-x="460" 
d="M292 818l-17 -236l169 16v-132l-168 15l16 -182l-20 -380h-84l-20 380l15 182l-167 -15v132l168 -16l-16 236h124z" />
    <glyph glyph-name="quoteright" unicode="&#x2019;" horiz-adv-x="215" 
d="M12 719q-1 8 -1 14v14q0 41 25 67.5t68 26.5q49 0 76 -34t27 -89q0 -33 -10 -65t-28.5 -60t-45.5 -51t-60 -37l-42 37q28 20 43.5 46.5t15.5 52.5q0 27 -17.5 48.5t-50.5 29.5z" />
    <glyph glyph-name="yen" unicode="&#xa5;" horiz-adv-x="587" 
d="M538 450v-108h-489v108h104l-138 368h166l112 -356l113 356h165l-139 -368h106zM538 270v-109h-162v-97.5t1 -63.5h-173q2 38 2.5 77t1.5 84h-159v109h489z" />
    <glyph glyph-name="bullet" unicode="&#x2022;" horiz-adv-x="389" 
d="M37 400q0 40 14.5 71t37.5 52t52 32t58 11q34 0 62 -14.5t48.5 -37.5t31.5 -53.5t11 -61.5q0 -33 -12 -61t-33 -48t-48.5 -31t-58.5 -11q-25 0 -53.5 7.5t-53 25.5t-40.5 47t-16 72z" />
    <glyph glyph-name="question" unicode="?" horiz-adv-x="462" 
d="M113 299q0 37 10 63.5t24.5 47.5t31 38t31 34t24 37t9.5 47q0 28 -10 44.5t-25 25.5t-31 11.5t-28 2.5q-45 0 -75.5 -22.5t-49.5 -51.5q-2 22 -2.5 48.5t-0.5 55.5q0 27 0.5 49t2.5 48q28 30 77.5 47t110.5 17q35 0 76 -7.5t76 -30t58.5 -63t23.5 -106.5q0 -49 -13 -83
t-32.5 -59.5t-42.5 -45.5t-43 -41t-33.5 -46t-14.5 -60h-154zM197 204q25 0 44.5 -10t33 -25.5t20.5 -34t7 -35.5q0 -22 -8.5 -42t-23 -35t-34 -24t-40.5 -9q-27 0 -47 8.5t-33 23t-19.5 32.5t-6.5 37q0 20 7 40.5t20.5 37t33.5 26.5t46 10z" />
    <glyph glyph-name="quotesingle" unicode="'" horiz-adv-x="166" 
d="M14 841h138l-22 -300h-94z" />
    <glyph glyph-name="quotedbl" unicode="&#x22;" horiz-adv-x="348" 
d="M14 841h138l-22 -300h-94zM196 841h138l-22 -300h-94z" />
    <glyph glyph-name="acute" unicode="&#xb4;" horiz-adv-x="267" 
d="M93 841h146l-128 -191h-91z" />
    <glyph glyph-name="backslash" unicode="\" horiz-adv-x="448" 
d="M127 818l308 -862h-116l-308 862h116z" />
    <glyph glyph-name="brokenbar" unicode="&#xa6;" horiz-adv-x="185" 
d="M146 256v-374h-107v374h107zM146 760v-374h-107v374h107z" />
    <glyph glyph-name="florin" unicode="&#x192;" horiz-adv-x="315" 
d="M205 28q0 -105 -34.5 -162.5t-119.5 -57.5q-12 0 -31 1.5t-41 3.5q-4 21 -6 37t-2 32q0 17 2 34.5t7 43.5q3 -1 9.5 -2t14 -1.5t14.5 -1t11 -0.5q16 0 28 7t12 32v326h-46v210h46v72q0 61 4 99.5t20 67.5q17 30 49 51t77 21q12 0 31.5 -1.5t41.5 -4.5q4 -15 5.5 -42
t1.5 -59t-1.5 -63.5t-6.5 -55.5q-3 1 -10 2t-14.5 1.5t-14.5 0.5h-10q-22 0 -29.5 -13.5t-7.5 -54.5v-21h78v-210h-78v-292z" />
    <glyph glyph-name="periodcentered" unicode="&#xb7;" horiz-adv-x="235" 
d="M119 454q25 0 44.5 -10t33 -25.5t20.5 -34t7 -35.5q0 -22 -8.5 -42t-23 -35t-34 -24t-40.5 -9q-27 0 -47 8.5t-33 23t-19.5 32.5t-6.5 37q0 20 7 40.5t20.5 37t33.5 26.5t46 10z" />
    <glyph glyph-name="circumflex" unicode="&#x2c6;" horiz-adv-x="382" 
d="M191 846l171 -113l-30 -68l-141 68l-141 -68l-30 68z" />
    <glyph glyph-name="bracketleft" unicode="[" horiz-adv-x="281" 
d="M273 28v-100h-237q1 63 1.5 119t1 111.5t0.5 112v119.5v121t-0.5 115.5t-1 115.5t-1.5 121h237v-100h-116q0 -43 -0.5 -90.5t-1 -96t-0.5 -96v-90.5q0 -86 0.5 -182.5t1.5 -179.5h116z" />
    <glyph glyph-name="bracketright" unicode="]" horiz-adv-x="281" 
d="M124 28q1 83 1.5 179.5t0.5 182.5v90.5t-0.5 96t-1 96t-0.5 90.5h-116v100h237q-1 -63 -1.5 -121t-1 -115.5t-0.5 -115.5v-121v-119.5t0.5 -112t1 -111.5t1.5 -119h-237v100h116z" />
    <glyph glyph-name="asciicircum" unicode="^" horiz-adv-x="518" 
d="M290 506l214 -380h-103l-142 264l-142 -264h-103l214 380h62z" />
    <glyph glyph-name="guilsinglleft" unicode="&#x2039;" horiz-adv-x="453" 
d="M199 299l236 -242l-119 -70l-306 312l306 311l119 -69z" />
    <glyph glyph-name="colon" unicode=":" horiz-adv-x="262" 
d="M132 204q25 0 44.5 -10t33 -25.5t20.5 -34t7 -35.5q0 -22 -8.5 -42t-23 -35t-34 -24t-40.5 -9q-27 0 -47 8.5t-33 23t-19.5 32.5t-6.5 37q0 20 7 40.5t20.5 37t33.5 26.5t46 10zM132 609q25 0 44.5 -10t33 -25.5t20.5 -34t7 -35.5q0 -22 -8.5 -42t-23 -35t-34 -24
t-40.5 -9q-27 0 -47 8.5t-33 23t-19.5 32.5t-6.5 37q0 20 7 40.5t20.5 37t33.5 26.5t46 10z" />
    <glyph glyph-name="guilsinglright" unicode="&#x203a;" horiz-adv-x="453" 
d="M18 541l120 69l305 -311l-305 -312l-120 70l237 242z" />
    <glyph glyph-name="guillemotleft" unicode="&#xab;" horiz-adv-x="760" 
d="M199 299l236 -242l-119 -70l-306 312l306 311l119 -69zM506 299l236 -242l-119 -70l-306 312l306 311l119 -69z" />
    <glyph glyph-name="guillemotright" unicode="&#xbb;" horiz-adv-x="760" 
d="M18 541l120 69l305 -311l-305 -312l-120 70l237 242zM325 541l120 69l305 -311l-305 -312l-120 70l237 242z" />
    <glyph glyph-name="quotedblleft" unicode="&#x201c;" horiz-adv-x="456" 
d="M204 625q1 -8 1 -13.5v-13.5q0 -42 -25 -68t-68 -26q-49 0 -76 34t-27 88q0 33 10 65t28.5 60.5t45.5 51t60 37.5l42 -38q-28 -20 -43.5 -46t-15.5 -52q0 -28 17.5 -49.5t50.5 -29.5zM446 625q1 -8 1 -13.5v-13.5q0 -42 -25 -68t-68 -26q-49 0 -76 34t-27 88q0 33 10 65
t28.5 60.5t45.5 51t60 37.5l42 -38q-28 -20 -43.5 -46t-15.5 -52q0 -28 17.5 -49.5t50.5 -29.5z" />
    <glyph glyph-name="quotedblright" unicode="&#x201d;" horiz-adv-x="457" 
d="M12 718q-1 8 -1 14v14q0 41 25 67.5t68 26.5q49 0 76 -34t27 -89q0 -33 -10 -65t-28.5 -60t-45.5 -51t-60 -37l-42 37q28 20 43.5 46.5t15.5 52.5q0 27 -17.5 48.5t-50.5 29.5zM254 718q-1 8 -1 14v14q0 41 25 67.5t68 26.5q49 0 76 -34t27 -89q0 -33 -10 -65t-28.5 -60
t-45.5 -51t-60 -37l-42 37q28 20 43.5 46.5t15.5 52.5q0 27 -17.5 48.5t-50.5 29.5z" />
    <glyph glyph-name="quotedblbase" unicode="&#x201e;" horiz-adv-x="463" 
d="M12 58q-1 8 -1 14v14q0 41 25 67.5t68 26.5q49 0 76 -34t27 -89q0 -33 -10 -65t-28.5 -60t-45.5 -51t-60 -37l-42 37q28 20 43.5 46.5t15.5 52.5q0 27 -17.5 48.5t-50.5 29.5zM254 58q-1 8 -1 14v14q0 41 25 67.5t68 26.5q49 0 76 -34t27 -89q0 -33 -10 -65t-28.5 -60
t-45.5 -51t-60 -37l-42 37q28 20 43.5 46.5t15.5 52.5q0 27 -17.5 48.5t-50.5 29.5z" />
    <glyph glyph-name="braceleft" unicode="{" horiz-adv-x="284" 
d="M274 768h-23q-31 0 -44.5 -18t-13.5 -54v-187q0 -46 -21.5 -75t-52.5 -31v-4q31 -4 52.5 -30t21.5 -86v-187q0 -36 13.5 -54t44.5 -18h23v-106h-49q-27 0 -52 9.5t-43.5 28t-30 47t-11.5 66.5v180q0 51 -26 79t-66 28v90q40 0 66 26t26 71v180q0 38 11.5 66.5t30 47
t43.5 28t52 9.5h49v-106z" />
    <glyph glyph-name="braceright" unicode="}" horiz-adv-x="284" 
d="M10 874h49q27 0 52 -9.5t43.5 -28t30 -47t11.5 -66.5v-180q0 -45 26 -71t66 -26v-90q-40 0 -66 -28t-26 -79v-180q0 -38 -11.5 -66.5t-30 -47t-43.5 -28t-52 -9.5h-49v106h23q31 0 44.5 18t13.5 54v187q0 60 21.5 86t52.5 30v4q-31 2 -52.5 31t-21.5 75v187
q0 36 -13.5 54t-44.5 18h-23v106z" />
    <glyph glyph-name="logicalnot" unicode="&#xac;" horiz-adv-x="633" 
d="M600 474v-290h-122v169h-458v121h580z" />
    <glyph glyph-name="Euro" unicode="&#x20ac;" horiz-adv-x="577" 
d="M250 443q-1 -9 -1 -18v-18v-18t1 -18h257v-109h-237q18 -48 55 -80t104 -32q46 0 106 17l24 -151q-86 -27 -159 -27q-113 0 -188 66.5t-101 206.5h-93v109h81q-1 9 -1 18v18v18t1 18h-81v108h90q24 143 100 211t192 68q73 0 159 -27l-24 -151q-29 9 -56 13t-50 4
q-35 0 -62 -9t-46.5 -24.5t-32.5 -37.5t-21 -47h240v-108h-257z" />
    <glyph glyph-name="cent" unicode="&#xa2;" horiz-adv-x="405" 
d="M16 304q0 99 42.5 170t128.5 97l-18 142h141l-17 -129q23 -1 43 -5t38 -10q0 -15 0.5 -32.5t0.5 -36.5t-0.5 -37.5t-0.5 -35.5q-29 26 -73 26q-27 0 -45 -9t-29 -22.5t-15.5 -29t-4.5 -29.5q0 -20 7.5 -37.5t20 -31t29 -21.5t35.5 -8q17 0 37.5 7t37.5 20q0 -29 0.5 -61
t0.5 -65q0 -32 -0.5 -64.5t-0.5 -64.5q-43 -10 -81 -11l17 -131h-141l18 142q-82 24 -126.5 93.5t-44.5 173.5z" />
    <glyph glyph-name="ogonek" unicode="&#x2db;" horiz-adv-x="292" 
d="M242 -183q-63 -22 -106 -22q-40 0 -63 19t-23 51q0 29 19.5 64.5t54.5 70.5h85q-30 -28 -49.5 -59.5t-19.5 -51.5q0 -21 22 -21q14 0 34 4t39 12z" />
    <glyph glyph-name="dotaccent" unicode="&#x2d9;" horiz-adv-x="212" 
d="M20 740q0 44 27.5 65.5t60.5 21.5q37 0 60.5 -23.5t23.5 -60.5q0 -41 -26.5 -64.5t-61.5 -23.5q-16 0 -31 5.5t-27 16t-19 26.5t-7 37z" />
    <glyph glyph-name="dieresis" unicode="&#xa8;" horiz-adv-x="372" 
d="M20 740q0 39 23.5 56t50.5 17q32 0 50.5 -21t18.5 -52q0 -32 -19.5 -52.5t-48.5 -20.5q-12 0 -25 4t-24.5 12.5t-18.5 22.5t-7 34zM209 741q0 19 6.5 32.5t17 22.5t23.5 13t26 4q32 0 51 -21t19 -52q0 -32 -19.5 -52.5t-48.5 -20.5q-12 0 -25 4t-24.5 12.5t-18.5 22.5
t-7 35z" />
    <glyph glyph-name="fraction" unicode="&#x2044;" horiz-adv-x="385" 
d="M392 817q-35 -98 -75 -208.5t-80 -223t-79 -222t-73 -205.5l-93 38q20 54 45 123.5t52.5 146.5t56 158t55 158.5t50 147.5t41.5 125z" />
    <glyph glyph-name="sterling" unicode="&#xa3;" horiz-adv-x="435" 
d="M73 466v124q0 60 4.5 99t21.5 68q24 40 64.5 56.5t94.5 16.5q13 0 30 -1t34.5 -4.5t35 -9.5t31.5 -15q3 -15 4.5 -42t1.5 -59t-1.5 -64t-6.5 -55q-15 9 -41.5 16t-53.5 7q-16 0 -31 -3.5t-27 -11t-19 -19.5t-7 -30v-73h111v-108h-111v-108q25 -12 49 -23t52 -11
q21 0 45.5 10.5t53.5 36.5q4 -23 6 -56.5t2 -68.5q0 -32 -1.5 -61t-4.5 -50q-29 -21 -54.5 -29.5t-47.5 -8.5q-27 0 -50 9t-45.5 20t-44.5 20t-46 9q-21 0 -43 -9t-48 -30q-2 20 -3.5 48t-1.5 59q0 36 1.5 70.5t3.5 59.5q11 6 21.5 11t20.5 8v94h-45v108h45z" />
    <glyph glyph-name="thorn" unicode="&#xfe;" horiz-adv-x="538" 
d="M29 841h137v-293q36 28 75.5 44.5t78.5 16.5q45 0 83 -22.5t65.5 -62.5t43.5 -95t16 -121q0 -68 -17 -126.5t-47 -101.5t-70.5 -67t-87.5 -24q-40 0 -76.5 17t-63.5 43v-230h-142zM166 361q0 -41 22.5 -66t57.5 -25q38 0 64.5 27t26.5 69q0 19 -6.5 36t-18.5 29.5
t-27.5 19.5t-33.5 7q-37 0 -61 -27t-24 -70z" />
    <glyph glyph-name="Thorn" unicode="&#xde;" horiz-adv-x="562" 
d="M186 307q18 -5 35 -6.5t29 -1.5q19 0 36.5 4.5t30.5 15.5t20.5 30t7.5 48q0 30 -8.5 49t-22.5 30t-32.5 15t-38.5 4q-14 0 -28 -1.5t-29 -3.5v-183zM197 818q-2 -17 -3.5 -37.5t-2 -40t-1 -35.5t-0.5 -24q69 0 134.5 -8t116.5 -37t82 -84.5t31 -151.5q0 -83 -30 -135
t-80.5 -81t-116.5 -39t-137 -10v-35t0.5 -19.5t1 -12t1 -12t1.5 -20.5t3 -36h-169q0 109 0.5 177.5t1.5 112.5t1.5 73t0.5 60v60.5t-0.5 74t-1.5 105.5t-2 155h169z" />
    <glyph glyph-name="zerosuperior" unicode="&#x2070;" horiz-adv-x="372" 
d="M188 901q86 0 128.5 -66.5t42.5 -187.5q0 -124 -44 -190.5t-130 -66.5q-87 0 -129.5 66.5t-42.5 185.5q0 127 46 193t129 66zM186 568q32 0 47.5 29t15.5 71t-15.5 68.5t-46.5 26.5q-30 0 -46.5 -27t-16.5 -69q0 -41 16 -70t46 -29z" />
    <glyph glyph-name="onesuperior" unicode="&#xb9;" horiz-adv-x="252" 
d="M187 895q-2 -39 -2.5 -75.5t-1.5 -77.5t-1 -89v-109h54q2 -18 3 -36.5t1 -37.5q0 -17 -1 -35.5t-3 -38.5h-212q-1 17 -1.5 33t-0.5 33v40.5t2 41.5h50q0 52 -0.5 109t-0.5 105l-50 -8q-2 13 -2.5 26t-0.5 26q0 14 0.5 37t2.5 36z" />
    <glyph glyph-name="twosuperior" unicode="&#xb2;" horiz-adv-x="308" 
d="M288 772q0 -34 -11 -59t-28 -44t-37 -34.5t-37.5 -30.5t-30 -30.5t-13.5 -35.5l149 6q2 -18 3 -37.5t1 -38.5v-36.5t-2 -35.5h-264v109q0 35 10.5 59.5t25.5 43.5t33.5 33.5t33.5 28t25.5 28t10.5 33.5q0 25 -17.5 35.5t-33.5 10.5q-20 0 -40 -12t-31 -30q-1 14 -1.5 32
t-0.5 36q0 17 0.5 30.5t1.5 29.5q9 12 22.5 19.5t28.5 11.5t29 5.5t24 1.5q22 0 48 -5.5t48.5 -20t37.5 -39.5t15 -64z" />
    <glyph glyph-name="threesuperior" unicode="&#xb3;" horiz-adv-x="301" 
d="M69 618q-1 11 -1 20.5v20.5q0 9 0.5 18.5t1.5 18.5q7 -1 13.5 -1.5t12.5 -0.5q35 0 50 15.5t15 34.5t-15 35t-41 16q-21 0 -42.5 -11t-33.5 -29q-1 15 -1 29v32v14v9.5t0.5 9.5t0.5 13q9 12 22 19.5t28 12t29.5 6t26.5 1.5q27 0 53 -7.5t45.5 -22t31.5 -36.5t12 -51
q0 -23 -7.5 -43.5t-19 -37t-26 -28t-28.5 -16.5q15 -2 31.5 -10t30 -22.5t22 -37t8.5 -54.5q0 -40 -14.5 -67.5t-37.5 -45t-51.5 -25.5t-56.5 -8q-29 0 -60.5 8t-51.5 26q-2 16 -2 31v32v36t2 32q11 -17 34.5 -28.5t46.5 -11.5q25 0 43 13t18 42q0 9 -2.5 18t-10 16
t-21 11.5t-35.5 4.5h-9.5t-10.5 -1z" />
    <glyph glyph-name="foursuperior" unicode="&#x2074;" horiz-adv-x="327" 
d="M278 887v-259h36v-133h-36v-99h-111v99h-157v133l124 259h144zM91 628h76v168z" />
    <glyph glyph-name="trademark" unicode="&#x2122;" horiz-adv-x="725" 
d="M603 686l-77 -258h-59l-73 251v-275h-86q1 52 1.5 102t0.5 100q0 60 -0.5 118t-1.5 117h121l69 -255l80 255h112q-1 -48 -1 -94.5v-92.5v-125t1 -125h-96zM287 742h-79v-338h-94v338h-77v99h250v-99z" />
    <glyph glyph-name="ordfeminine" unicode="&#xaa;" horiz-adv-x="370" 
d="M343 495h-105v30q-46 -37 -93 -37q-28 0 -52.5 14t-43 38.5t-29 57t-10.5 70.5q0 39 11.5 74.5t31 61.5t46 41.5t55.5 15.5q23 0 45 -10t39 -27v30h108zM115 701q0 -30 15.5 -47t44.5 -17t46.5 18.5t17.5 50.5q0 30 -15.5 47.5t-43.5 17.5q-29 0 -47 -19t-18 -51z" />
    <glyph glyph-name="eng" unicode="&#x14b;" horiz-adv-x="458" 
d="M170 598v-54q24 30 58.5 47.5t69.5 17.5q22 0 42.5 -6.5t37.5 -17.5t29 -26.5t18 -33.5q5 -14 7 -40.5t2 -57.5v-444q0 -36 -5.5 -68t-20.5 -56t-41 -38t-67 -14q-13 0 -37 1.5t-47 6.5q-7 25 -7 59q0 35 8 69q6 -2 17.5 -3t18.5 -1q23 0 28.5 12.5t5.5 48.5v306
q0 26 -14.5 42.5t-38.5 16.5q-23 0 -43.5 -15.5t-20.5 -39.5v-310h-145q0 33 0.5 69.5t0.5 73v72.5v68v57t-0.5 83t-0.5 92v83h145z" />
    <glyph glyph-name="Eng" unicode="&#x14a;" horiz-adv-x="596" 
d="M566 247q0 -72 -1 -120t-2 -79t-2.5 -47.5t-2.5 -26.5q-11 -83 -59.5 -125t-129.5 -42q-23 0 -53.5 3.5t-77.5 12.5q-3 20 -4 31.5t-1 26.5q0 14 1 29.5t4 37.5q21 -8 52.5 -12.5t55.5 -4.5q35 0 54 16t19 54l-255 488v-489h-137q2 103 3 204.5t1 204.5t-1 204.5
t-3 204.5h169l230 -478v478h143z" />
    <glyph glyph-name="at" unicode="@" horiz-adv-x="928" 
d="M539 126q-44 -84 -133 -84q-78 0 -122 58.5t-44 162.5q0 56 13 101.5t37 78t57.5 50.5t74.5 18q31 0 59 -10t48 -27v40h123v-311q0 -51 33 -51q19 0 37.5 15t32.5 42t23 63.5t9 79.5q0 67 -22 120.5t-63 91.5t-98.5 58.5t-127.5 20.5q-75 0 -137 -24t-106 -70t-68 -113.5
t-24 -155.5q0 -161 80.5 -246t229.5 -85q20 0 43 1.5t47 5.5l20 -117q-45 -12 -106 -12q-99 0 -179.5 32t-137.5 91t-88 142.5t-31 185.5q0 107 33.5 195t94.5 150.5t147 97t190 34.5q96 0 174.5 -28.5t135 -81t87.5 -125.5t31 -161q0 -70 -19 -131t-52.5 -106t-79 -71
t-97.5 -26q-53 0 -84 26.5t-36 74.5h-5zM393 324q0 -32 17.5 -52.5t45.5 -20.5q31 0 52 22.5t21 54.5q0 31 -20 52t-49 21t-48 -21.5t-19 -55.5z" />
    <glyph glyph-name="copyright" unicode="&#xa9;" horiz-adv-x="751" 
d="M218 417q0 43 12 79t35 62t56.5 40.5t77.5 14.5q21 0 41.5 -3t41.5 -11l-4 -100q-16 6 -31.5 8t-31.5 2q-20 0 -37 -3.5t-30.5 -13t-21 -25.5t-7.5 -41q0 -47 27 -67.5t63 -20.5q33 0 72 14v-123q-20 -4 -38.5 -6t-36.5 -2q-88 0 -138 52.5t-50 143.5zM386 132
q68 0 116.5 23t79.5 62t45.5 90.5t14.5 108.5q0 58 -15 108t-47 87t-81 58.5t-116 21.5q-65 0 -116 -20t-86 -55.5t-53 -85.5t-18 -110q0 -59 17 -111t51.5 -91.5t86.5 -62.5t121 -23zM378 47q-87 0 -153.5 29.5t-112 80t-69 118t-23.5 143.5q0 78 24.5 143t71 111.5
t113.5 72.5t153 26q85 0 150 -26t109.5 -72.5t67 -111t22.5 -140.5q0 -78 -23 -146t-67.5 -118.5t-110.5 -80t-152 -29.5z" />
    <glyph glyph-name="registered" unicode="&#xae;" horiz-adv-x="651" 
d="M328 225q-74 0 -131 25t-96 67.5t-59 100t-20 122.5q0 67 21 122t60.5 95t97 62t129.5 22q73 0 129 -22.5t93.5 -62t57 -94.5t19.5 -120q0 -66 -19.5 -123.5t-57.5 -100.5t-94.5 -68t-129.5 -25zM334 301q57 0 97.5 19.5t66.5 52t38 75.5t12 90q0 48 -12.5 90t-39 73
t-67.5 49t-98 18q-54 0 -96.5 -16.5t-71 -46.5t-43.5 -71.5t-15 -91.5q0 -49 14.5 -92.5t43 -76.5t71.5 -52.5t100 -19.5zM229 382q1 37 1 74.5v70.5v90.5t-1 86.5q20 2 38.5 3t39.5 1q28 0 53.5 -4t44.5 -15t30 -31t11 -52q0 -38 -13 -59t-38 -32l56 -133h-74l-48 120h-24
q0 -62 3 -120h-79zM303 556h10q9 0 18 1.5t16.5 6t12 12t4.5 20.5q0 20 -12.5 27t-29.5 7h-19v-74z" />
    <glyph glyph-name="ring" unicode="&#x2da;" horiz-adv-x="240" 
d="M121 698q23 0 36.5 14t13.5 37t-13.5 36.5t-36.5 13.5t-37.5 -13.5t-14.5 -36.5t14.5 -37t37.5 -14zM121 650q-51 0 -77 29.5t-26 69.5t26 68t77 28t76 -28t25 -68t-25 -69.5t-76 -29.5z" />
    <glyph glyph-name="breve" unicode="&#x2d8;" horiz-adv-x="332" 
d="M312 817q0 -35 -12.5 -62t-32.5 -45t-46.5 -27.5t-54.5 -9.5q-29 0 -55 9.5t-46 27.5t-32.5 45t-12.5 62h69q2 -38 23.5 -61t53.5 -23t53.5 23t23.5 61h69z" />
    <glyph glyph-name="currency" unicode="&#xa4;" horiz-adv-x="589" 
d="M300 66q-60 0 -107 25l-83 -83l-93 92l86 86q-22 50 -22 107q0 56 21 101l-86 85l93 93l84 -86q47 22 105 22q56 0 99 -20l84 84l92 -93l-84 -84q21 -45 21 -103q0 -61 -22 -109l85 -84l-92 -92l-82 81q-44 -22 -99 -22zM298 165q28 0 49.5 10t36.5 27t22.5 39.5
t7.5 48.5q0 52 -29.5 88t-86.5 36t-89 -35.5t-32 -88.5q0 -26 8 -48.5t24 -39.5t38 -27t51 -10z" />
    <glyph glyph-name="ordmasculine" unicode="&#xba;" horiz-adv-x="320" 
d="M160 861q71 0 109.5 -47.5t38.5 -138.5q0 -85 -37 -135.5t-111 -50.5q-72 0 -110 50t-38 136q0 91 38 138.5t110 47.5zM160 608q15 0 26.5 7.5t19 19t11 26t3.5 29.5q0 14 -3.5 28.5t-11 26t-19 19t-26.5 7.5t-26.5 -7.5t-19 -19t-11 -26t-3.5 -28.5q0 -15 3.5 -29.5
t11 -26t19 -19t26.5 -7.5z" />
    <glyph glyph-name="degree" unicode="&#xb0;" horiz-adv-x="340" 
d="M170 591q43 0 66 25.5t23 65.5q0 36 -23 63t-66 27q-42 0 -66 -27t-24 -64q0 -39 24 -64.5t66 -25.5zM170 516q-36 0 -66 13.5t-51.5 36t-33 52.5t-11.5 64t11 63.5t32 50.5t51 33t67 12q40 0 70 -12t50.5 -33t31 -50t10.5 -63t-10 -64.5t-30.5 -53t-50.5 -36t-70 -13.5z
" />
    <glyph glyph-name="germandbls" unicode="&#xdf;" horiz-adv-x="563" 
d="M480 660q0 -43 -12 -68.5t-26.5 -44.5t-26.5 -36.5t-12 -43.5q0 -25 12 -41.5t30 -30t38.5 -28t38.5 -36t30 -52t12 -77.5t-13 -86t-36.5 -67.5t-57 -44t-74.5 -15.5q-15 0 -32.5 2t-34.5 5t-33 7.5t-27 9.5q-14 53 -14 132q0 40 3.5 78.5t9.5 69.5q24 -15 47.5 -23.5
t42.5 -8.5q20 0 31 10t11 26q0 21 -17 34.5t-37 28.5t-37 35t-17 54q0 28 12 51.5t26.5 45t26.5 43.5t12 48q0 32 -19.5 49.5t-54.5 17.5q-47 0 -66.5 -38t-19.5 -128v-618h-136v400h-46v210h45v56q0 123 57.5 189t165.5 66q94 0 146 -48.5t52 -132.5z" />
    <glyph glyph-name="kgreenlandic" unicode="&#x138;" horiz-adv-x="481" 
d="M487 598l-160 -283l171 -315h-171l-139 250h-7v-57.5t0.5 -58.5t1.5 -63t2 -71h-165q5 68 6 164.5t1 202.5v99v62t-0.5 39t-1.5 31h157v-250h7l138 250h160z" />
    <glyph glyph-name="paragraph" unicode="&#xb6;" horiz-adv-x="527" 
d="M265 -73v419q-68 0 -115.5 21t-77.5 55.5t-43.5 79t-13.5 90.5q0 42 13.5 83t43.5 72.5t77.5 51t115.5 19.5h220v-891h-80v820h-60v-820h-80z" />
    <glyph glyph-name="mu" unicode="&#xb5;" horiz-adv-x="468" 
d="M32 598h147v-306q0 -27 16 -43.5t42 -16.5t42 16t17 42l10 308h140q-1 -33 -2 -69.5l-2 -73t-1.5 -72.5t-0.5 -68v-57t0.5 -83t0.5 -92v-83h-140v65q-12 -30 -40 -53t-64 -23q-16 0 -33 6t-33 18l48 -179v-27h-147v791z" />
    <glyph glyph-name="Eth" unicode="&#xd0;" horiz-adv-x="652" 
d="M51 815q57 8 109 11.5t89 3.5q88 0 162 -24t130 -86q51 -58 76 -140.5t25 -177.5q0 -93 -24 -169t-73.5 -130t-124.5 -84t-177 -30q-23 0 -74.5 2t-113.5 9q1 46 1.5 90t1 88.5t0.5 91.5v101h-51q-1 23 -2 45.5t-1 45.5t1 46t2 45h50q-1 73 -2.5 139t-3.5 123zM245 664
q-10 0 -19 -1t-17 -2v-108h70q1 -23 1 -45.5v-45.5v-45.5t-1 -45.5h-70v-106q9 -2 20 -2.5t18 -0.5q37 0 68.5 16t55 43.5t36.5 64.5t13 79q0 31 -8.5 66.5t-29 64.5t-54 48.5t-83.5 19.5z" />
    <glyph glyph-name="eth" unicode="&#xf0;" horiz-adv-x="532" 
d="M187 703q-38 42 -77 73t-71 42h214q41 -25 83 -70l154 46v-70l-107 -32q30 -42 55.5 -91t44 -100t28.5 -103t10 -100q0 -66 -19 -121t-53.5 -94t-82 -61t-105.5 -22q-56 0 -102 20t-79 55t-51 84t-18 107q0 55 16 102t45.5 81.5t70 53.5t88.5 19q37 0 79 -12
q-11 32 -31 67t-46 70l-142 -42v70zM270 369q-39 0 -62 -26t-23 -68q0 -44 24 -71t63 -27q38 0 61 26t23 71q0 44 -23.5 69.5t-62.5 25.5z" />
    <glyph glyph-name="schwa" unicode="&#x259;" horiz-adv-x="522" 
d="M56 79q-29 40 -36.5 89t-7.5 115h280q-13 42 -43 69.5t-83 27.5q-16 0 -34.5 -2.5t-36.5 -7t-34 -10t-28 -10.5q-2 29 -2.5 61.5t-0.5 62.5q0 58 3 99q78 38 175 38q45 0 91 -10t89 -38q38 -26 62.5 -59.5t38.5 -69t19 -70t5 -61.5q0 -40 -9.5 -83.5t-29.5 -83t-51 -72.5
t-73 -52q-51 -23 -108 -23q-60 0 -108 24t-78 66zM235 97q21 0 40 17t25 62h-131q4 -40 23.5 -59.5t42.5 -19.5z" />
    <glyph glyph-name="R" unicode="R" horiz-adv-x="589" 
d="M27 0q3 95 4 189.5t1 179.5q0 121 -1.5 230t-3.5 219q49 5 98.5 8.5t100.5 3.5q73 0 137 -10.5t111 -39t74.5 -78.5t27.5 -129q0 -98 -40.5 -154t-109.5 -84l163 -335h-178l-133 305q-41 -3 -85 -3q0 -77 1 -151t6 -151h-173zM193 454q31 -3 57 -3q68 0 96.5 25.5
t28.5 76.5q0 31 -8.5 50t-23 30t-34 15t-41.5 4q-16 0 -35.5 -1.5t-39.5 -4.5v-192z" />
    <glyph glyph-name="K" unicode="K" horiz-adv-x="557" 
d="M209 818q-3 -60 -4.5 -106t-2.5 -88t-1.5 -86.5t-0.5 -101.5h4l178 383h186l-196 -399l208 -420h-187l-189 396h-4v-84t0.5 -98.5t1 -106t0.5 -107.5h-176q1 44 2 91.5t2 103t1 120v142.5v115.5t-0.5 86.5t-0.5 75.5v83.5h179z" />
    <glyph glyph-name="uni00AD" unicode="&#xad;" horiz-adv-x="464" 
d="M436 422q0 -21 1 -41t1 -40t-1 -39.5t-1 -39.5h-409q-2 20 -2 40v40v40t2 40h409z" />
    <glyph glyph-name="uni03BC" unicode="&#x3bc;" horiz-adv-x="461" 
d="M26 598h147v-306q0 -27 16 -43.5t42 -16.5t42 16t17 42l10 308h140q-1 -33 -2 -69.5l-2 -73t-1.5 -72.5t-0.5 -68v-57t0.5 -83t0.5 -92v-83h-140v65q-12 -30 -40 -53t-64 -23q-16 0 -33 6t-33 18l48 -179v-27h-147v791z" />
    <glyph glyph-name="i" unicode="i" horiz-adv-x="199" 
d="M26 582h147v-582h-147v582zM103 830q24 0 43.5 -9.5t32.5 -24.5t20 -33.5t7 -35.5q0 -23 -8.5 -42.5t-23 -34t-33 -23t-39.5 -8.5q-26 0 -46 8.5t-33.5 22t-20 31.5t-6.5 37t7.5 39t21 36.5t33.5 26.5t45 10z" />
    <glyph glyph-name="semicolon" unicode=";" horiz-adv-x="261" 
d="M23 112q11 42 41 66.5t70 24.5q46 0 73.5 -29.5t27.5 -77.5q0 -32 -13.5 -67.5t-37 -71.5t-55.5 -70t-70 -62l-57 56q39 35 58.5 70t19.5 67q0 51 -57 94zM130 609q25 0 44.5 -10t33 -25.5t20.5 -34t7 -35.5q0 -22 -8.5 -42t-23 -35t-34 -24t-40.5 -9q-27 0 -47 8.5
t-33 23t-19.5 32.5t-6.5 37q0 20 7 40.5t20.5 37t33.5 26.5t46 10z" />
    <glyph glyph-name="exclamdown" unicode="&#xa1;" horiz-adv-x="247" 
d="M12 -175l49 521h121v-538zM131 445q-25 0 -44.5 10t-33 25.5t-20.5 34t-7 35.5q0 22 8.5 42t23 35t34 24t40.5 9q27 0 47 -9t33 -23t19.5 -32t6.5 -37q0 -20 -7 -40.5t-20.5 -37t-33.5 -26.5t-46 -10z" />
    <glyph glyph-name="questiondown" unicode="&#xbf;" horiz-adv-x="459" 
d="M348 350q0 -37 -10 -63.5t-24.5 -47.5t-31 -38t-31 -34t-24 -37t-9.5 -47q0 -28 10 -44.5t25 -25.5t31 -11.5t28 -2.5q45 0 75.5 22.5t49.5 51.5q2 -22 2.5 -48.5t0.5 -55.5q0 -27 -0.5 -49t-2.5 -48q-28 -30 -77.5 -47t-110.5 -17q-35 0 -76 7.5t-76 30t-58.5 63
t-23.5 106.5q0 49 13 83t32.5 59.5t42.5 45.5t43 41t33.5 46t14.5 60h154zM264 445q-25 0 -44.5 10t-33 25.5t-20.5 34t-7 35.5q0 22 8.5 42t23 35t34 24t40.5 9q27 0 47 -9t33 -23t19.5 -32t6.5 -37q0 -20 -7 -40.5t-20.5 -37t-33.5 -26.5t-46 -10z" />
    <glyph glyph-name="parenright" unicode=")" horiz-adv-x="242" 
d="M110 895q56 -115 86.5 -246.5t30.5 -263.5t-30.5 -261t-86.5 -238l-112 34q55 109 83 233.5t28 245.5t-27.5 240t-83.5 222z" />
    <glyph glyph-name="macron" unicode="&#xaf;" horiz-adv-x="370" 
d="M350 796v-94h-330v94h330z" />
    <glyph glyph-name="caron.alt" horiz-adv-x="173" 
d="M45 841h104l-43 -201h-79z" />
    <glyph glyph-name="commaaccent" unicode="&#xf6c3;" horiz-adv-x="256" 
d="M206 -55l-60 -150h-96l24 150h132z" />
    <glyph glyph-name="cedilla" unicode="&#xb8;" horiz-adv-x="256" 
d="M206 -54l-60 -151h-96l24 150z" />
    <glyph glyph-name="dotlessi" unicode="&#x131;" horiz-adv-x="199" 
d="M26 582h147v-582h-147v582z" />
    <glyph glyph-name="dotlessj" unicode="&#x237;" horiz-adv-x="188" 
d="M162 -3q0 -38 -2 -68.5t-11 -54.5q-25 -66 -114 -66q-8 0 -20 0.5t-24.5 1.5t-24 2.5t-18.5 3.5q-4 14 -5 29t-1 27q0 21 2 42t6 37q6 -2 17.5 -3t18.5 -1q25 0 32.5 13.5t7.5 54.5v567h136v-585z" />
    <glyph glyph-name="dotbelow" horiz-adv-x="227" 
d="M117 -52q36 0 55.5 -24t19.5 -53t-19.5 -52.5t-55.5 -23.5t-55.5 23.5t-19.5 52.5t19.5 53t55.5 24z" />
    <glyph glyph-name="uni00A0" unicode="&#xa0;" horiz-adv-x="124" 
 />
    <glyph glyph-name="h" unicode="h" horiz-adv-x="459" 
d="M181 841q-3 -56 -5 -97.5t-3 -76t-1.5 -64t-0.5 -59.5q24 30 58 47.5t69 17.5q22 0 42.5 -6.5t37.5 -17.5t29.5 -26.5t18.5 -33.5q4 -14 6.5 -40.5t2.5 -57.5v-427h-147v300q0 30 -14.5 47.5t-38.5 17.5q-25 0 -44.5 -16t-19.5 -39v-310h-147q2 133 2 284.5v325.5v90.5
v61.5t-0.5 43t-0.5 36h156z" />
    <glyph glyph-name="n" unicode="n" horiz-adv-x="457" 
d="M170 598v-54q24 30 58.5 47.5t70.5 17.5q44 0 78 -24t45 -57q5 -15 8.5 -41.5t3.5 -59.5v-427h-147v290q0 45 -16.5 60.5t-38.5 15.5q-29 0 -45.5 -18.5t-16.5 -47.5v-300h-145q0 33 0.5 69.5t0.5 73v72.5v68v57t-0.5 83t-0.5 92v83h145z" />
    <glyph glyph-name="numbersign" unicode="#" horiz-adv-x="671" 
d="M205 586l46 232h106l-48 -232h115l46 232h107l-48 -232h125v-106h-147l-26 -128h143v-106h-165l-51 -246h-99l48 246h-118l-51 -246h-98l48 246h-121v106h142l25 128h-137v106h158zM261 352h117l25 128h-116z" />
    <glyph glyph-name="daggerdbl" unicode="&#x2021;" horiz-adv-x="466" 
d="M185 481l-166 -15v132l168 -16l-16 236h124l-17 -236l169 16v-132l-167 15l15 -142l-15 -144l167 16v-132l-169 16l17 -236h-124l16 236l-168 -16v132l166 -16l-14 144z" />
    <glyph glyph-name="section" unicode="&#xa7;" horiz-adv-x="427" 
d="M407 369q0 -61 -30.5 -109.5t-84.5 -72.5q56 -34 80 -69t24 -80q0 -36 -15 -65t-42.5 -50t-65.5 -32.5t-83 -11.5q-37 0 -75.5 6.5t-61.5 17.5q-12 37 -12 90q0 22 1.5 46t4.5 36q33 -15 65.5 -24t53.5 -9q40 0 40 32q0 19 -14 31t-34.5 22.5t-45 22.5t-45 31t-34.5 47.5
t-14 72.5q0 61 31 109t85 70q-58 35 -81 69t-23 78q0 37 15 67t42 51t65 32.5t84 11.5q36 0 74 -6.5t63 -17.5q12 -38 12 -90q0 -22 -2 -46t-4 -36q-35 15 -66.5 24t-52.5 9q-40 0 -40 -32q0 -19 14 -31.5t34.5 -23t44.5 -22.5t44.5 -30.5t34.5 -46.5t14 -71zM210 253
q29 0 47.5 21t18.5 53q0 33 -18 54t-47 21t-47.5 -21t-18.5 -54t18 -53.5t47 -20.5z" />
    <glyph glyph-name="oe" unicode="&#x153;" horiz-adv-x="799" 
d="M240 609q57 0 97 -17t68 -51q32 32 70.5 50t81.5 18q60 0 108 -24t78 -66q29 -40 36.5 -89t7.5 -115h-280q13 -43 43 -70t83 -27q16 0 34.5 2.5t36.5 7t34 10t28 10.5q2 -29 2.5 -61.5t0.5 -62.5q0 -59 -3 -99q-78 -38 -175 -38q-49 0 -96 17t-87 55q-55 -70 -168 -70
q-123 0 -175.5 79.5t-52.5 230.5q0 150 52.5 230t175.5 80zM240 224q20 0 35.5 8t25.5 21t15 29.5t5 34.5t-5 35t-15 30t-25.5 21t-35.5 8q-41 0 -61.5 -29t-20.5 -65q0 -18 5 -34.5t15.5 -29.5t25.5 -21t36 -8zM564 501q-21 0 -40 -17.5t-25 -61.5h131q-4 40 -23.5 59.5
t-42.5 19.5z" />
    <glyph glyph-name="Schwa" unicode="&#x18f;" horiz-adv-x="616" 
d="M13 295q0 33 4 69t12 74h365q-6 93 -49 132.5t-137 39.5q-79 0 -156 -23q-8 30 -12 65.5t-4 75.5q0 17 1 33.5t3 31.5q22 8 49.5 15t57 12t59 8t53.5 3q79 0 143 -30.5t109.5 -85.5t70 -132t24.5 -170q0 -92 -24 -170t-67.5 -134.5t-104 -88t-133.5 -31.5
q-60 0 -108.5 21.5t-83 61.5t-53.5 96.5t-19 126.5zM283 202q90 0 107 129h-195q0 -129 88 -129z" />
    <glyph glyph-name="ellipsis" unicode="&#x2026;" horiz-adv-x="817" 
d="M118 204q25 0 44.5 -10t33 -25.5t20.5 -34t7 -35.5q0 -22 -8.5 -42t-23 -35t-34 -24t-40.5 -9q-27 0 -47 8.5t-33 23t-19.5 32.5t-6.5 37q0 20 7 40.5t20.5 37t33.5 26.5t46 10zM410 204q25 0 44.5 -10t33 -25.5t20.5 -34t7 -35.5q0 -22 -8.5 -42t-23 -35t-34 -24
t-40.5 -9q-27 0 -47 8.5t-33 23t-19.5 32.5t-6.5 37q0 20 7 40.5t20.5 37t33.5 26.5t46 10zM702 204q25 0 44.5 -10t33 -25.5t20.5 -34t7 -35.5q0 -22 -8.5 -42t-23 -35t-34 -24t-40.5 -9q-27 0 -47 8.5t-33 23t-19.5 32.5t-6.5 37q0 20 7 40.5t20.5 37t33.5 26.5t46 10z
" />
    <glyph glyph-name="ampersand" unicode="&#x26;" horiz-adv-x="749" 
d="M500 661q0 -62 -36.5 -113t-113.5 -100q22 -20 48 -44t58 -50q45 57 96 140q22 -12 50.5 -32.5t56 -43t51.5 -45.5t36 -39q-22 -30 -50 -64t-57 -66q26 -21 53.5 -43t57.5 -45l-121 -148l-123 113q-66 -48 -131 -70t-137 -22q-54 0 -97 15.5t-73 44.5t-46.5 70.5
t-16.5 93.5q0 36 7.5 66.5t24 59t44 55.5t67.5 56q-39 53 -54.5 92t-15.5 75q0 44 18 82.5t49.5 67.5t74.5 46t93 17q40 0 74 -12t59 -34.5t39.5 -53.5t14.5 -69zM226 628q0 -21 10.5 -44.5t36.5 -55.5q47 28 66.5 54.5t19.5 58.5q0 29 -17 44.5t-46 15.5q-31 0 -50.5 -20.5
t-19.5 -52.5zM254 207q40 0 87 32q-36 35 -66.5 66t-55.5 59q-42 -41 -42 -81q0 -34 21.5 -55t55.5 -21z" />
    <glyph glyph-name="AE" unicode="&#xc6;" horiz-adv-x="713" 
d="M697 -3q-28 1 -72 1.5t-94 1t-101 1t-91 0.5q1 23 1.5 66t0.5 97h-147l-37 -164h-170l214 818h491v-159h-191v-126h163v-149h-163v-119h192q1 -23 2 -47t1.5 -54t0.5 -70.5v-96.5zM234 343h107q0 85 -0.5 169t-0.5 153h-32z" />
    <glyph glyph-name="OE" unicode="&#x152;" horiz-adv-x="810" 
d="M794 -3q-28 1 -72.5 1.5t-95 1t-101.5 1t-91 0.5q0 10 0.5 24t0.5 31q-27 -33 -61.5 -50t-79.5 -17q-73 0 -126 28.5t-87.5 83t-51 134t-16.5 181.5q0 205 69 309.5t212 104.5q43 0 77 -13.5t63 -39.5v40q39 0 84.5 0.5t92.5 1t92.5 1.5t86.5 2q0 -13 0.5 -22.5
t0.5 -26.5q0 -25 -1 -55t-3 -59h-191v-126h165v-149h-165v-119h194q1 -23 2 -47t1.5 -54t0.5 -70.5v-96.5zM304 247q32 0 56.5 14.5t40.5 40t24 61t8 78.5t-8 79.5t-24 63.5t-40.5 42t-56.5 15t-55.5 -15.5t-40 -42.5t-24.5 -63.5t-8 -78.5q0 -43 8 -78.5t24.5 -61t40 -40
t55.5 -14.5z" />
    <glyph glyph-name="ae" unicode="&#xe6;" horiz-adv-x="776" 
d="M363 68q-30 -36 -79.5 -57.5t-105.5 -21.5q-83 0 -128.5 48.5t-45.5 138.5q0 47 14 81t46 57.5t83.5 38t125.5 22.5q0 42 -21.5 59t-53.5 17q-30 0 -66 -11t-70 -27l-43 149q18 10 41 19t49 15t52.5 9.5t51.5 3.5q64 0 104 -22.5t62 -61.5h4q17 37 61 60.5t104 23.5
q51 0 91 -18.5t68 -52t43 -82t15 -108.5v-19t-1 -14h-280q13 -47 45 -72t79 -25q28 0 66 8.5t69 21.5q2 -24 2.5 -55t0.5 -63q0 -61 -3 -103q-78 -38 -169 -38q-66 0 -119 20.5t-88 58.5h-4zM541 501q-26 0 -43 -21t-22 -58h131q-4 35 -22 57t-44 22zM273 289
q-48 0 -76.5 -17.5t-28.5 -49.5q0 -23 13.5 -37.5t33.5 -14.5q15 0 34 8.5t33 22.5z" />
    <glyph glyph-name="notequal" unicode="&#x2260;" horiz-adv-x="491" 
d="M268 542l55 154h98l-56 -154h98q1 -19 2 -37t1 -36q0 -19 -1 -36.5t-2 -36.5h-152l-37 -102h189q1 -19 2 -37t1 -36q0 -19 -1 -36.5t-2 -36.5h-243l-60 -165h-92l59 165h-99q-2 19 -3 36.5t-1 36.5q0 18 1 36t3 37h151l36 102h-187q-2 19 -3 36.5t-1 36.5q0 18 1 36t3 37
h240z" />
    <glyph glyph-name="plusminus" unicode="&#xb1;" horiz-adv-x="467" 
d="M173 383h-146v120h146v126h120v-126h147v-120h-147v-127h-120v127zM440 193v-120h-413v120h413z" />
    <glyph glyph-name="multiply" unicode="&#xd7;" horiz-adv-x="468" 
d="M233 258l-131 -131l-85 85l131 131l-131 132l85 85l131 -132l133 133l85 -85l-133 -133l133 -132l-85 -85z" />
    <glyph glyph-name="divide" unicode="&#xf7;" horiz-adv-x="487" 
d="M244 630q20 0 35.5 -8t26.5 -20t16.5 -27t5.5 -29q0 -18 -7 -34t-18.5 -28t-27 -19t-32.5 -7q-44 0 -64.5 25.5t-20.5 55.5q0 16 5.5 32.5t16.5 29.5t27 21t37 8zM244 228q20 0 35.5 -8t26.5 -20t16.5 -27t5.5 -29q0 -18 -7 -34t-18.5 -28t-27 -19t-32.5 -7
q-44 0 -64.5 25.5t-20.5 55.5q0 16 5.5 32.5t16.5 29.5t27 21t37 8zM470 393v-99h-453v99h453z" />
    <glyph glyph-name="less" unicode="&#x3c;" horiz-adv-x="425" 
d="M16 394l380 219v-128l-264 -142l264 -142v-128l-380 219v102z" />
    <glyph glyph-name="greater" unicode="&#x3e;" horiz-adv-x="425" 
d="M409 292l-380 -219v128l264 142l-264 142v128l380 -219v-102z" />
    <glyph glyph-name="asciitilde" unicode="~" horiz-adv-x="496" 
d="M28 397q30 17 60 23t60 6q25 0 50 -6t50 -13.5t50 -13.5t50 -6q30 0 60 6t60 23v-126q-30 -17 -60 -23t-60 -6q-25 0 -50 6t-50 13.5t-50 13.5t-50 6q-30 0 -60 -6t-60 -23v126z" />
    <glyph glyph-name="approxequal" unicode="&#x2248;" horiz-adv-x="504" 
d="M32 515q30 17 60 23t60 6q25 0 50 -6t50 -13.5t50 -13.5t50 -6q30 0 60 6t60 23v-126q-30 -17 -60 -23t-60 -6q-25 0 -50 6t-50 13.5t-50 13.5t-50 6q-30 0 -60 -6t-60 -23v126zM32 279q30 17 60 23t60 6q25 0 50 -6t50 -13.5t50 -13.5t50 -6q30 0 60 6t60 23v-126
q-30 -17 -60 -23t-60 -6q-25 0 -50 6t-50 13.5t-50 13.5t-50 6q-30 0 -60 -6t-60 -23v126z" />
    <glyph glyph-name="tilde" unicode="&#x2dc;" horiz-adv-x="419" 
d="M20 790q26 15 48.5 21.5t43.5 6.5q28 0 51.5 -9t45.5 -19.5t43.5 -19.5t45.5 -9q21 0 46.5 10.5t54.5 36.5v-108q-29 -22 -54.5 -30.5t-47.5 -8.5q-27 0 -50 9t-45.5 20t-44.5 20t-46 9q-21 0 -43 -8.5t-48 -30.5v110z" />
    <glyph glyph-name="zeroinferior" unicode="&#x2080;" horiz-adv-x="382" 
d="M193 507q86 0 128.5 -66.5t42.5 -187.5q0 -124 -44 -190.5t-130 -66.5q-87 0 -129.5 66.5t-42.5 185.5q0 127 46 193t129 66zM191 174q32 0 47.5 29t15.5 71t-15.5 68.5t-46.5 26.5q-30 0 -46.5 -27t-16.5 -69q0 -41 16 -70t46 -29z" />
    <glyph glyph-name="oneinferior" unicode="&#x2081;" horiz-adv-x="262" 
d="M191 499q-2 -39 -2.5 -75.5t-1.5 -77.5t-1 -89v-109h54q2 -18 3 -36.5t1 -37.5q0 -17 -1 -35.5t-3 -38.5h-212q-1 17 -1.5 33t-0.5 33v40.5t2 41.5h50q0 52 -0.5 109t-0.5 105l-50 -8q-2 13 -2.5 26t-0.5 26q0 14 0.5 37t2.5 36z" />
    <glyph glyph-name="twoinferior" unicode="&#x2082;" horiz-adv-x="312" 
d="M291 376q0 -34 -11 -59t-28 -44t-37 -34.5t-37.5 -30.5t-30 -30.5t-13.5 -35.5l149 6q2 -18 3 -37.5t1 -38.5v-36.5t-2 -35.5h-264v109q0 34 10.5 59t25.5 44t33.5 33.5t33.5 28t25.5 28t10.5 33.5q0 25 -17.5 35.5t-33.5 10.5q-20 0 -40 -12t-31 -30q-1 14 -1.5 32
t-0.5 36q0 17 0.5 30.5t1.5 29.5q9 12 22.5 19.5t28.5 11.5t29 5.5t24 1.5q22 0 48 -5.5t48.5 -20t37.5 -39.5t15 -64z" />
    <glyph glyph-name="threeinferior" unicode="&#x2083;" horiz-adv-x="308" 
d="M71 222q-1 11 -1 20.5v20.5q0 9 0.5 18.5t1.5 18.5q7 -1 13.5 -1.5t12.5 -0.5q35 0 50 15.5t15 34.5t-15 35t-41 16q-21 0 -42.5 -11t-33.5 -29q-1 15 -1 29v32v14v9.5t0.5 9.5t0.5 13q9 12 22 19.5t28 12t29.5 6t26.5 1.5q27 0 53 -7.5t45.5 -22t31.5 -36.5t12 -51
q0 -23 -7.5 -43.5t-19 -37t-26 -28t-28.5 -16.5q15 -2 31.5 -10t30 -22.5t22 -37t8.5 -54.5q0 -40 -14.5 -67.5t-37.5 -45t-51.5 -25.5t-56.5 -8q-29 0 -60.5 8t-51.5 26q-2 16 -2 31v32v36t2 32q11 -17 34.5 -28.5t46.5 -11.5q25 0 43 13t18 42q0 9 -2.5 18t-10 16
t-21 11.5t-35.5 4.5h-9.5t-10.5 -1z" />
    <glyph glyph-name="fourinferior" unicode="&#x2084;" horiz-adv-x="335" 
d="M279 491v-259h36v-133h-36v-99h-111v99h-157v133l124 259h144zM92 232h76v168z" />
    <glyph glyph-name="lessequal" unicode="&#x2264;" horiz-adv-x="463" 
d="M26 464l400 219v-118l-307 -158h307v-96h-400v153zM426 219v-96h-400v96h400z" />
    <glyph glyph-name="greaterequal" unicode="&#x2265;" horiz-adv-x="463" 
d="M437 219v-96h-400v96h400zM437 311h-400v96h307l-307 158v118l400 -219v-153z" />
    <glyph glyph-name="f.calt" horiz-adv-x="291" 
d="M60 320h-46v210h45v72q0 66 6 105t20 65q17 33 47.5 51t68.5 18q28 0 39 -1.5t21 -4.5q6 -33 6 -109q0 -84 -7 -111q-12 4 -24 4q-25 0 -33.5 -19t-8.5 -49v-21h81v-210h-79v-320h-136v320z" />
    <glyph glyph-name="IJ" unicode="&#x132;" horiz-adv-x="744" 
d="M99 283v162q0 64 -0.5 109t-0.5 83h-74q-1 23 -2 45t-1 45t1 46t2 45h308q1 -23 1 -45.5v-45.5v-45t-1 -45h-73q-2 -67 -2.5 -132t-0.5 -145v-77h76q1 -36 1 -71v-71v-70.5t-1 -70.5h-308q-1 35 -2 70.5t-1 70.5q0 36 1 71t2 71h75zM718 428q0 -71 -0.5 -118t-1.5 -77
t-3 -47t-4 -30q-13 -75 -64.5 -121t-145.5 -46q-24 0 -58.5 3.5t-67.5 12.5q-2 34 -3 69.5t-1 70.5q0 36 1 72t3 72q25 -11 45 -16t42 -5q31 0 50.5 10.5t31 32.5t15.5 57t4 83v196h-139v171h296v-390z" />
    <glyph glyph-name="ij" unicode="&#x133;" horiz-adv-x="421" 
d="M26 582h147v-582h-147v582zM103 830q24 0 43.5 -9.5t32.5 -24.5t20 -33.5t7 -35.5q0 -23 -8.5 -42.5t-23 -34t-33 -23t-39.5 -8.5q-26 0 -46 8.5t-33.5 22t-20 31.5t-6.5 37t7.5 39t21 36.5t33.5 26.5t45 10zM395 -3q0 -38 -2 -68.5t-11 -54.5q-25 -66 -114 -66
q-8 0 -20 0.5t-24.5 1.5t-24 2.5t-18.5 3.5q-4 14 -5 29t-1 27q0 21 2 42t6 37q6 -2 17.5 -3t18.5 -1q25 0 32.5 13.5t7.5 54.5v567h136v-585zM330 830q24 0 43.5 -9.5t32.5 -24.5t20 -33.5t7 -35.5q0 -23 -8.5 -42.5t-23 -34t-33 -23t-39.5 -8.5q-26 0 -46 8.5t-33.5 22
t-20 31.5t-6.5 37t7.5 39t21 36.5t33.5 26.5t45 10z" />
    <glyph glyph-name="uni01F1" unicode="&#x1f1;" horiz-adv-x="1152" 
d="M24 815q57 8 109 11.5t89 3.5q88 0 162 -24t130 -86q51 -58 76 -140.5t25 -177.5q0 -93 -24 -169t-73.5 -130t-124.5 -84t-177 -30q-23 0 -74.5 2t-113.5 9q1 46 1.5 89.5t1 86t0.5 85.5v89q0 131 -1.5 251t-5.5 214zM218 664q-10 0 -18.5 -1t-16.5 -2q-1 -47 -1 -93.5
v-93.5q0 -23 0.5 -49t1 -53.5t1.5 -55t1 -51.5q9 -2 18 -2.5t16 -0.5q37 0 68.5 16t55 43.5t36.5 64.5t13 79q0 31 -8.5 66.5t-29 64.5t-54 48.5t-83.5 19.5zM659 0q-8 43 -8 93q0 31 3 58t8 54l279 434h-260q-3 17 -4.5 37t-1.5 41q0 27 2 53.5t6 47.5h446q2 -18 3.5 -37
t1.5 -41q0 -17 -1 -38.5t-4 -56.5l-279 -432h285q4 -23 5.5 -50.5t1.5 -56.5q0 -30 -1.5 -57.5t-5.5 -48.5h-476z" />
    <glyph glyph-name="uni01F2" unicode="&#x1f2;" horiz-adv-x="1086" 
d="M24 815q57 8 109 11.5t89 3.5q88 0 162 -24t130 -86q51 -58 76 -140.5t25 -177.5q0 -93 -24 -169t-73.5 -130t-124.5 -84t-177 -30q-23 0 -74.5 2t-113.5 9q1 46 1.5 89.5t1 86t0.5 85.5v89q0 131 -1.5 251t-5.5 214zM218 664q-10 0 -18.5 -1t-16.5 -2q-1 -47 -1 -93.5
v-93.5q0 -23 0.5 -49t1 -53.5t1.5 -55t1 -51.5q9 -2 18 -2.5t16 -0.5q37 0 68.5 16t55 43.5t36.5 64.5t13 79q0 31 -8.5 66.5t-29 64.5t-54 48.5t-83.5 19.5zM663 0q-5 20 -6.5 44t-1.5 49q0 31 2.5 58t7.5 54l211 192h-193q-3 20 -5 45.5t-2 54.5q0 28 2 54t5 47h378
q2 -18 3.5 -37t1.5 -42q0 -16 -1 -38t-4 -56l-240 -212h243q3 -23 5 -50.5t2 -56.5q0 -30 -2 -57.5t-5 -48.5h-401z" />
    <glyph glyph-name="uni01F3" unicode="&#x1f3;" horiz-adv-x="989" 
d="M509 0h-137v49q-36 -29 -76 -44.5t-78 -15.5q-45 0 -83 22t-65.5 61.5t-43.5 94.5t-16 120q0 68 17 127t46.5 102.5t70 68t87.5 24.5q41 0 78 -17.5t63 -43.5v293h142zM201 361q0 -41 22.5 -66t57.5 -25q38 0 64.5 27t26.5 69q0 19 -6.5 36t-18.5 29.5t-28 19.5t-34 7
q-36 0 -60 -27t-24 -70zM566 0q-5 20 -6.5 44t-1.5 49q0 31 2.5 58t7.5 54l211 192h-193q-3 20 -5 45.5t-2 54.5q0 28 2 54t5 47h378q2 -18 3.5 -37t1.5 -42q0 -16 -1 -38t-4 -56l-240 -212h243q3 -23 5 -50.5t2 -56.5q0 -30 -2 -57.5t-5 -48.5h-401z" />
    <glyph glyph-name="uni01CA" unicode="&#x1ca;" horiz-adv-x="983" 
d="M426 818h143q-3 -204 -3 -409t3 -409h-193l-212 489v-489h-137q2 103 3 204.5t1 204.5t-1 204.5t-3 204.5h202l197 -488v488zM957 428q0 -71 -0.5 -118t-1.5 -77t-3 -47t-4 -30q-13 -75 -64.5 -121t-145.5 -46q-24 0 -58.5 3.5t-67.5 12.5q-2 34 -3 69.5t-1 70.5
q0 36 1 72t3 72q25 -11 45 -16t42 -5q31 0 50.5 10.5t31 32.5t15.5 57t4 83v196h-139v171h296v-390z" />
    <glyph glyph-name="uni01CB" unicode="&#x1cb;" horiz-adv-x="801" 
d="M426 818h143q-3 -204 -3 -409t3 -409h-193l-212 489v-489h-137q2 103 3 204.5t1 204.5t-1 204.5t-3 204.5h202l197 -488v488zM775 -3q0 -38 -2 -68.5t-11 -54.5q-25 -66 -114 -66q-8 0 -20 0.5t-24.5 1.5t-24 2.5t-18.5 3.5q-4 14 -5 29t-1 27q0 21 2 42t6 37
q6 -2 17.5 -3t18.5 -1q25 0 32.5 13.5t7.5 54.5v567h136v-585zM710 830q24 0 43.5 -9.5t32.5 -24.5t20 -33.5t7 -35.5q0 -23 -8.5 -42.5t-23 -34t-33 -23t-39.5 -8.5q-26 0 -46 8.5t-33.5 22t-20 31.5t-6.5 37t7.5 39t21 36.5t33.5 26.5t45 10z" />
    <glyph glyph-name="uni01CC" unicode="&#x1cc;" horiz-adv-x="666" 
d="M170 598v-54q24 30 58.5 47.5t70.5 17.5q44 0 78 -24t45 -57q5 -15 8.5 -41.5t3.5 -59.5v-427h-147v290q0 45 -16.5 60.5t-38.5 15.5q-29 0 -45.5 -18.5t-16.5 -47.5v-300h-145q0 33 0.5 69.5t0.5 73v72.5v68v57t-0.5 83t-0.5 92v83h145zM640 -3q0 -38 -2 -68.5
t-11 -54.5q-25 -66 -114 -66q-8 0 -20 0.5t-24.5 1.5t-24 2.5t-18.5 3.5q-4 14 -5 29t-1 27q0 21 2 42t6 37q6 -2 17.5 -3t18.5 -1q25 0 32.5 13.5t7.5 54.5v567h136v-585zM575 830q24 0 43.5 -9.5t32.5 -24.5t20 -33.5t7 -35.5q0 -23 -8.5 -42.5t-23 -34t-33 -23
t-39.5 -8.5q-26 0 -46 8.5t-33.5 22t-20 31.5t-6.5 37t7.5 39t21 36.5t33.5 26.5t45 10z" />
    <glyph glyph-name="uni01C7" unicode="&#x1c7;" horiz-adv-x="752" 
d="M199 818q-3 -137 -4.5 -226t-2.5 -149.5t-1 -101.5v-83l137 6q2 -33 3 -65t1 -64q0 -33 -1 -66t-3 -68h-303q3 140 4.5 286.5t1.5 286.5v126t-1 118h169zM726 428q0 -71 -0.5 -118t-1.5 -77t-3 -47t-4 -30q-13 -75 -64.5 -121t-145.5 -46q-24 0 -58.5 3.5t-67.5 12.5
q-2 34 -3 69.5t-1 70.5q0 36 1 72t3 72q25 -11 45 -16t42 -5q31 0 50.5 10.5t31 32.5t15.5 57t4 83v196h-139v171h296v-390z" />
    <glyph glyph-name="uni01C8" unicode="&#x1c8;" horiz-adv-x="571" 
d="M200 818q-3 -137 -4.5 -226t-2.5 -149.5t-1 -101.5v-83l157 6q2 -33 3 -65t1 -64q0 -33 -1 -66.5t-3 -68.5h-323q3 140 4.5 287t1.5 287v126t-1 118h169zM545 -3q0 -38 -2 -68.5t-11 -54.5q-25 -66 -114 -66q-8 0 -20 0.5t-24.5 1.5t-24 2.5t-18.5 3.5q-4 14 -5 29t-1 27
q0 21 2 42t6 37q6 -2 17.5 -3t18.5 -1q25 0 32.5 13.5t7.5 54.5v567h136v-585zM480 830q24 0 43.5 -9.5t32.5 -24.5t20 -33.5t7 -35.5q0 -23 -8.5 -42.5t-23 -34t-33 -23t-39.5 -8.5q-26 0 -46 8.5t-33.5 22t-20 31.5t-6.5 37t7.5 39t21 36.5t33.5 26.5t45 10z" />
    <glyph glyph-name="uni01C9" unicode="&#x1c9;" horiz-adv-x="413" 
d="M181 841q-5 -139 -7.5 -282t-2.5 -304v-109.5v-68t0.5 -43t0.5 -34.5h-150q3 88 4 206t1 274v115.5t-0.5 86.5t-0.5 75.5v83.5h155zM387 -3q0 -38 -2 -68.5t-11 -54.5q-25 -66 -114 -66q-8 0 -20 0.5t-24.5 1.5t-24 2.5t-18.5 3.5q-4 14 -5 29t-1 27q0 21 2 42t6 37
q6 -2 17.5 -3t18.5 -1q25 0 32.5 13.5t7.5 54.5v567h136v-585zM322 830q24 0 43.5 -9.5t32.5 -24.5t20 -33.5t7 -35.5q0 -23 -8.5 -42.5t-23 -34t-33 -23t-39.5 -8.5q-26 0 -46 8.5t-33.5 22t-20 31.5t-6.5 37t7.5 39t21 36.5t33.5 26.5t45 10z" />
    <glyph glyph-name="caron" unicode="&#x2c7;" horiz-adv-x="382" 
d="M20 778l30 68l141 -69l141 69l30 -68l-171 -114z" />
    <glyph glyph-name="grave" unicode="`" horiz-adv-x="267" 
d="M247 650h-91l-128 191h146z" />
    <glyph glyph-name="hungarumlaut" unicode="&#x2dd;" horiz-adv-x="389" 
d="M87 841h110l-94 -191h-81zM257 841h110l-94 -191h-81z" />
    <glyph glyph-name="apostrophe" unicode="&#x2bc;" horiz-adv-x="288" 
d="M108 841h104l-43 -201h-79z" />
    <glyph glyph-name="aacute" unicode="&#xe1;" 
d="M509 0h-137v49q-36 -29 -76 -44.5t-78 -15.5q-45 0 -83 22t-65.5 61.5t-43.5 94.5t-16 120q0 68 17 127t46.5 102.5t70 68t87.5 24.5q41 0 78 -17.5t63 -43.5v50h142zM201 361q0 -41 22.5 -66t57.5 -25q38 0 64.5 27t26.5 69q0 19 -6.5 36t-18.5 29.5t-28 19.5t-34 7
q-36 0 -60 -27t-24 -70zM306 841h146l-128 -191h-91z" />
    <glyph glyph-name="acircumflex" unicode="&#xe2;" 
d="M509 0h-137v49q-36 -29 -76 -44.5t-78 -15.5q-45 0 -83 22t-65.5 61.5t-43.5 94.5t-16 120q0 68 17 127t46.5 102.5t70 68t87.5 24.5q41 0 78 -17.5t63 -43.5v50h142zM201 361q0 -41 22.5 -66t57.5 -25q38 0 64.5 27t26.5 69q0 19 -6.5 36t-18.5 29.5t-28 19.5t-34 7
q-36 0 -60 -27t-24 -70zM296 846l171 -113l-30 -68l-141 68l-141 -68l-30 68z" />
    <glyph glyph-name="adieresis" unicode="&#xe4;" 
d="M509 0h-137v49q-36 -29 -76 -44.5t-78 -15.5q-45 0 -83 22t-65.5 61.5t-43.5 94.5t-16 120q0 68 17 127t46.5 102.5t70 68t87.5 24.5q41 0 78 -17.5t63 -43.5v50h142zM201 361q0 -41 22.5 -66t57.5 -25q38 0 64.5 27t26.5 69q0 19 -6.5 36t-18.5 29.5t-28 19.5t-34 7
q-36 0 -60 -27t-24 -70zM130 740q0 39 23.5 56t50.5 17q32 0 50.5 -21t18.5 -52q0 -32 -19.5 -52.5t-48.5 -20.5q-12 0 -25 4t-24.5 12.5t-18.5 22.5t-7 34zM319 741q0 19 6.5 32.5t17 22.5t23.5 13t26 4q32 0 51 -21t19 -52q0 -32 -19.5 -52.5t-48.5 -20.5q-12 0 -25 4
t-24.5 12.5t-18.5 22.5t-7 35z" />
    <glyph glyph-name="aring" unicode="&#xe5;" 
d="M509 0h-137v49q-36 -29 -76 -44.5t-78 -15.5q-45 0 -83 22t-65.5 61.5t-43.5 94.5t-16 120q0 68 17 127t46.5 102.5t70 68t87.5 24.5q41 0 78 -17.5t63 -43.5v50h142zM201 361q0 -41 22.5 -66t57.5 -25q38 0 64.5 27t26.5 69q0 19 -6.5 36t-18.5 29.5t-28 19.5t-34 7
q-36 0 -60 -27t-24 -70zM296 698q23 0 36.5 14t13.5 37t-13.5 36.5t-36.5 13.5t-37.5 -13.5t-14.5 -36.5t14.5 -37t37.5 -14zM296 650q-51 0 -77 29.5t-26 69.5t26 68t77 28t76 -28t25 -68t-25 -69.5t-76 -29.5z" />
    <glyph glyph-name="abreve" unicode="&#x103;" 
d="M509 0h-137v49q-36 -29 -76 -44.5t-78 -15.5q-45 0 -83 22t-65.5 61.5t-43.5 94.5t-16 120q0 68 17 127t46.5 102.5t70 68t87.5 24.5q41 0 78 -17.5t63 -43.5v50h142zM201 361q0 -41 22.5 -66t57.5 -25q38 0 64.5 27t26.5 69q0 19 -6.5 36t-18.5 29.5t-28 19.5t-34 7
q-36 0 -60 -27t-24 -70zM442 817q0 -35 -12.5 -62t-32.5 -45t-46.5 -27.5t-54.5 -9.5q-29 0 -55 9.5t-46 27.5t-32.5 45t-12.5 62h69q2 -38 23.5 -61t53.5 -23t53.5 23t23.5 61h69z" />
    <glyph glyph-name="amacron" unicode="&#x101;" 
d="M509 0h-137v49q-36 -29 -76 -44.5t-78 -15.5q-45 0 -83 22t-65.5 61.5t-43.5 94.5t-16 120q0 68 17 127t46.5 102.5t70 68t87.5 24.5q41 0 78 -17.5t63 -43.5v50h142zM201 361q0 -41 22.5 -66t57.5 -25q38 0 64.5 27t26.5 69q0 19 -6.5 36t-18.5 29.5t-28 19.5t-34 7
q-36 0 -60 -27t-24 -70zM469 796v-94h-330v94h330z" />
    <glyph glyph-name="atilde" unicode="&#xe3;" 
d="M509 0h-137v49q-36 -29 -76 -44.5t-78 -15.5q-45 0 -83 22t-65.5 61.5t-43.5 94.5t-16 120q0 68 17 127t46.5 102.5t70 68t87.5 24.5q41 0 78 -17.5t63 -43.5v50h142zM201 361q0 -41 22.5 -66t57.5 -25q38 0 64.5 27t26.5 69q0 19 -6.5 36t-18.5 29.5t-28 19.5t-34 7
q-36 0 -60 -27t-24 -70zM114 790q26 15 48.5 21.5t43.5 6.5q28 0 51.5 -9t45.5 -19.5t43.5 -19.5t45.5 -9q21 0 46.5 10.5t54.5 36.5v-108q-29 -22 -54.5 -30.5t-47.5 -8.5q-27 0 -50 9t-45.5 20t-44.5 20t-46 9q-21 0 -43 -8.5t-48 -30.5v110z" />
    <glyph glyph-name="agrave" unicode="&#xe0;" 
d="M509 0h-137v49q-36 -29 -76 -44.5t-78 -15.5q-45 0 -83 22t-65.5 61.5t-43.5 94.5t-16 120q0 68 17 127t46.5 102.5t70 68t87.5 24.5q41 0 78 -17.5t63 -43.5v50h142zM201 361q0 -41 22.5 -66t57.5 -25q38 0 64.5 27t26.5 69q0 19 -6.5 36t-18.5 29.5t-28 19.5t-34 7
q-36 0 -60 -27t-24 -70zM359 650h-91l-128 191h146z" />
    <glyph glyph-name="eacute" unicode="&#xe9;" horiz-adv-x="522" 
d="M230 315q13 -43 43 -70t83 -27q16 0 34.5 2.5t36.5 7t34 10t28 10.5q2 -29 2.5 -61.5t0.5 -64.5q0 -53 -3 -95q-78 -38 -175 -38q-45 0 -91 10t-89 38q-38 25 -62.5 58.5t-38.5 69t-19 69.5t-5 61q0 40 9.5 83.5t29.5 83t51 72.5t73 52q51 23 108 23q60 0 108 -24t78 -66
q29 -40 36.5 -89t7.5 -115h-280zM287 501q-21 0 -40 -17.5t-25 -61.5h131q-4 40 -23.5 59.5t-42.5 19.5zM290 841h146l-128 -191h-91z" />
    <glyph glyph-name="ecircumflex" unicode="&#xea;" horiz-adv-x="522" 
d="M230 315q13 -43 43 -70t83 -27q16 0 34.5 2.5t36.5 7t34 10t28 10.5q2 -29 2.5 -61.5t0.5 -64.5q0 -53 -3 -95q-78 -38 -175 -38q-45 0 -91 10t-89 38q-38 25 -62.5 58.5t-38.5 69t-19 69.5t-5 61q0 40 9.5 83.5t29.5 83t51 72.5t73 52q51 23 108 23q60 0 108 -24t78 -66
q29 -40 36.5 -89t7.5 -115h-280zM287 501q-21 0 -40 -17.5t-25 -61.5h131q-4 40 -23.5 59.5t-42.5 19.5zM280 846l171 -113l-30 -68l-141 68l-141 -68l-30 68z" />
    <glyph glyph-name="edotaccent" unicode="&#x117;" horiz-adv-x="522" 
d="M230 315q13 -43 43 -70t83 -27q16 0 34.5 2.5t36.5 7t34 10t28 10.5q2 -29 2.5 -61.5t0.5 -64.5q0 -53 -3 -95q-78 -38 -175 -38q-45 0 -91 10t-89 38q-38 25 -62.5 58.5t-38.5 69t-19 69.5t-5 61q0 40 9.5 83.5t29.5 83t51 72.5t73 52q51 23 108 23q60 0 108 -24t78 -66
q29 -40 36.5 -89t7.5 -115h-280zM287 501q-21 0 -40 -17.5t-25 -61.5h131q-4 40 -23.5 59.5t-42.5 19.5zM194 740q0 44 27.5 65.5t60.5 21.5q37 0 60.5 -23.5t23.5 -60.5q0 -41 -26.5 -64.5t-61.5 -23.5q-16 0 -31 5.5t-27 16t-19 26.5t-7 37z" />
    <glyph glyph-name="edieresis" unicode="&#xeb;" horiz-adv-x="522" 
d="M230 315q13 -43 43 -70t83 -27q16 0 34.5 2.5t36.5 7t34 10t28 10.5q2 -29 2.5 -61.5t0.5 -64.5q0 -53 -3 -95q-78 -38 -175 -38q-45 0 -91 10t-89 38q-38 25 -62.5 58.5t-38.5 69t-19 69.5t-5 61q0 40 9.5 83.5t29.5 83t51 72.5t73 52q51 23 108 23q60 0 108 -24t78 -66
q29 -40 36.5 -89t7.5 -115h-280zM287 501q-21 0 -40 -17.5t-25 -61.5h131q-4 40 -23.5 59.5t-42.5 19.5zM114 740q0 39 23.5 56t50.5 17q32 0 50.5 -21t18.5 -52q0 -32 -19.5 -52.5t-48.5 -20.5q-12 0 -25 4t-24.5 12.5t-18.5 22.5t-7 34zM303 741q0 19 6.5 32.5t17 22.5
t23.5 13t26 4q32 0 51 -21t19 -52q0 -32 -19.5 -52.5t-48.5 -20.5q-12 0 -25 4t-24.5 12.5t-18.5 22.5t-7 35z" />
    <glyph glyph-name="ebreve" unicode="&#x115;" horiz-adv-x="522" 
d="M230 315q13 -43 43 -70t83 -27q16 0 34.5 2.5t36.5 7t34 10t28 10.5q2 -29 2.5 -61.5t0.5 -64.5q0 -53 -3 -95q-78 -38 -175 -38q-45 0 -91 10t-89 38q-38 25 -62.5 58.5t-38.5 69t-19 69.5t-5 61q0 40 9.5 83.5t29.5 83t51 72.5t73 52q51 23 108 23q60 0 108 -24t78 -66
q29 -40 36.5 -89t7.5 -115h-280zM287 501q-21 0 -40 -17.5t-25 -61.5h131q-4 40 -23.5 59.5t-42.5 19.5zM426 817q0 -35 -12.5 -62t-32.5 -45t-46.5 -27.5t-54.5 -9.5q-29 0 -55 9.5t-46 27.5t-32.5 45t-12.5 62h69q2 -38 23.5 -61t53.5 -23t53.5 23t23.5 61h69z" />
    <glyph glyph-name="emacron" unicode="&#x113;" horiz-adv-x="522" 
d="M230 315q13 -43 43 -70t83 -27q16 0 34.5 2.5t36.5 7t34 10t28 10.5q2 -29 2.5 -61.5t0.5 -64.5q0 -53 -3 -95q-78 -38 -175 -38q-45 0 -91 10t-89 38q-38 25 -62.5 58.5t-38.5 69t-19 69.5t-5 61q0 40 9.5 83.5t29.5 83t51 72.5t73 52q51 23 108 23q60 0 108 -24t78 -66
q29 -40 36.5 -89t7.5 -115h-280zM287 501q-21 0 -40 -17.5t-25 -61.5h131q-4 40 -23.5 59.5t-42.5 19.5zM453 796v-94h-330v94h330z" />
    <glyph glyph-name="etilde" unicode="&#x1ebd;" horiz-adv-x="522" 
d="M230 315q13 -43 43 -70t83 -27q16 0 34.5 2.5t36.5 7t34 10t28 10.5q2 -29 2.5 -61.5t0.5 -64.5q0 -53 -3 -95q-78 -38 -175 -38q-45 0 -91 10t-89 38q-38 25 -62.5 58.5t-38.5 69t-19 69.5t-5 61q0 40 9.5 83.5t29.5 83t51 72.5t73 52q51 23 108 23q60 0 108 -24t78 -66
q29 -40 36.5 -89t7.5 -115h-280zM287 501q-21 0 -40 -17.5t-25 -61.5h131q-4 40 -23.5 59.5t-42.5 19.5zM98 790q26 15 48.5 21.5t43.5 6.5q28 0 51.5 -9t45.5 -19.5t43.5 -19.5t45.5 -9q21 0 46.5 10.5t54.5 36.5v-108q-29 -22 -54.5 -30.5t-47.5 -8.5q-27 0 -50 9
t-45.5 20t-44.5 20t-46 9q-21 0 -43 -8.5t-48 -30.5v110z" />
    <glyph glyph-name="ecaron" unicode="&#x11b;" horiz-adv-x="522" 
d="M230 315q13 -43 43 -70t83 -27q16 0 34.5 2.5t36.5 7t34 10t28 10.5q2 -29 2.5 -61.5t0.5 -64.5q0 -53 -3 -95q-78 -38 -175 -38q-45 0 -91 10t-89 38q-38 25 -62.5 58.5t-38.5 69t-19 69.5t-5 61q0 40 9.5 83.5t29.5 83t51 72.5t73 52q51 23 108 23q60 0 108 -24t78 -66
q29 -40 36.5 -89t7.5 -115h-280zM287 501q-21 0 -40 -17.5t-25 -61.5h131q-4 40 -23.5 59.5t-42.5 19.5zM109 778l30 68l141 -69l141 69l30 -68l-171 -114z" />
    <glyph glyph-name="egrave" unicode="&#xe8;" horiz-adv-x="522" 
d="M230 315q13 -43 43 -70t83 -27q16 0 34.5 2.5t36.5 7t34 10t28 10.5q2 -29 2.5 -61.5t0.5 -64.5q0 -53 -3 -95q-78 -38 -175 -38q-45 0 -91 10t-89 38q-38 25 -62.5 58.5t-38.5 69t-19 69.5t-5 61q0 40 9.5 83.5t29.5 83t51 72.5t73 52q51 23 108 23q60 0 108 -24t78 -66
q29 -40 36.5 -89t7.5 -115h-280zM287 501q-21 0 -40 -17.5t-25 -61.5h131q-4 40 -23.5 59.5t-42.5 19.5zM343 650h-91l-128 191h146z" />
    <glyph glyph-name="gcircumflex" unicode="&#x11d;" horiz-adv-x="538" 
d="M372 70q-38 -30 -69.5 -43t-68.5 -13q-50 0 -91 20.5t-70.5 57t-46 87.5t-16.5 112q0 66 18.5 123.5t51 101t75.5 68.5t92 25q73 0 125 -61v50h142v-322q0 -89 -2.5 -151t-7.5 -98q-15 -106 -80.5 -162.5t-172.5 -56.5q-45 0 -85.5 10t-74.5 29v123q73 -37 146 -37
q66 0 100.5 28t34.5 80v29zM201 361q0 -41 22 -66t58 -25q19 0 35.5 7.5t29 20.5t19.5 30.5t7 37.5q0 19 -6.5 36t-18.5 29.5t-28 19.5t-34 7q-36 0 -60 -27t-24 -70zM296 846l171 -113l-30 -68l-141 68l-141 -68l-30 68z" />
    <glyph glyph-name="gdotaccent" unicode="&#x121;" horiz-adv-x="538" 
d="M372 70q-38 -30 -69.5 -43t-68.5 -13q-50 0 -91 20.5t-70.5 57t-46 87.5t-16.5 112q0 66 18.5 123.5t51 101t75.5 68.5t92 25q73 0 125 -61v50h142v-322q0 -89 -2.5 -151t-7.5 -98q-15 -106 -80.5 -162.5t-172.5 -56.5q-45 0 -85.5 10t-74.5 29v123q73 -37 146 -37
q66 0 100.5 28t34.5 80v29zM201 361q0 -41 22 -66t58 -25q19 0 35.5 7.5t29 20.5t19.5 30.5t7 37.5q0 19 -6.5 36t-18.5 29.5t-28 19.5t-34 7q-36 0 -60 -27t-24 -70zM210 740q0 44 27.5 65.5t60.5 21.5q37 0 60.5 -23.5t23.5 -60.5q0 -41 -26.5 -64.5t-61.5 -23.5
q-16 0 -31 5.5t-27 16t-19 26.5t-7 37z" />
    <glyph glyph-name="gbreve" unicode="&#x11f;" horiz-adv-x="538" 
d="M372 70q-38 -30 -69.5 -43t-68.5 -13q-50 0 -91 20.5t-70.5 57t-46 87.5t-16.5 112q0 66 18.5 123.5t51 101t75.5 68.5t92 25q73 0 125 -61v50h142v-322q0 -89 -2.5 -151t-7.5 -98q-15 -106 -80.5 -162.5t-172.5 -56.5q-45 0 -85.5 10t-74.5 29v123q73 -37 146 -37
q66 0 100.5 28t34.5 80v29zM201 361q0 -41 22 -66t58 -25q19 0 35.5 7.5t29 20.5t19.5 30.5t7 37.5q0 19 -6.5 36t-18.5 29.5t-28 19.5t-34 7q-36 0 -60 -27t-24 -70zM442 817q0 -35 -12.5 -62t-32.5 -45t-46.5 -27.5t-54.5 -9.5q-29 0 -55 9.5t-46 27.5t-32.5 45t-12.5 62
h69q2 -38 23.5 -61t53.5 -23t53.5 23t23.5 61h69z" />
    <glyph glyph-name="nacute" unicode="&#x144;" horiz-adv-x="457" 
d="M170 598v-54q24 30 58.5 47.5t70.5 17.5q44 0 78 -24t45 -57q5 -15 8.5 -41.5t3.5 -59.5v-427h-147v290q0 45 -16.5 60.5t-38.5 15.5q-29 0 -45.5 -18.5t-16.5 -47.5v-300h-145q0 33 0.5 69.5t0.5 73v72.5v68v57t-0.5 83t-0.5 92v83h145zM238 841h146l-128 -191h-91z" />
    <glyph glyph-name="ndotaccent" unicode="&#x1e45;" horiz-adv-x="457" 
d="M170 598v-54q24 30 58.5 47.5t70.5 17.5q44 0 78 -24t45 -57q5 -15 8.5 -41.5t3.5 -59.5v-427h-147v290q0 45 -16.5 60.5t-38.5 15.5q-29 0 -45.5 -18.5t-16.5 -47.5v-300h-145q0 33 0.5 69.5t0.5 73v72.5v68v57t-0.5 83t-0.5 92v83h145zM142 740q0 44 27.5 65.5
t60.5 21.5q37 0 60.5 -23.5t23.5 -60.5q0 -41 -26.5 -64.5t-61.5 -23.5q-16 0 -31 5.5t-27 16t-19 26.5t-7 37z" />
    <glyph glyph-name="ntilde" unicode="&#xf1;" horiz-adv-x="457" 
d="M170 598v-54q24 30 58.5 47.5t70.5 17.5q44 0 78 -24t45 -57q5 -15 8.5 -41.5t3.5 -59.5v-427h-147v290q0 45 -16.5 60.5t-38.5 15.5q-29 0 -45.5 -18.5t-16.5 -47.5v-300h-145q0 33 0.5 69.5t0.5 73v72.5v68v57t-0.5 83t-0.5 92v83h145zM46 790q26 15 48.5 21.5
t43.5 6.5q28 0 51.5 -9t45.5 -19.5t43.5 -19.5t45.5 -9q21 0 46.5 10.5t54.5 36.5v-108q-29 -22 -54.5 -30.5t-47.5 -8.5q-27 0 -50 9t-45.5 20t-44.5 20t-46 9q-21 0 -43 -8.5t-48 -30.5v110z" />
    <glyph glyph-name="ncaron" unicode="&#x148;" horiz-adv-x="457" 
d="M170 598v-54q24 30 58.5 47.5t70.5 17.5q44 0 78 -24t45 -57q5 -15 8.5 -41.5t3.5 -59.5v-427h-147v290q0 45 -16.5 60.5t-38.5 15.5q-29 0 -45.5 -18.5t-16.5 -47.5v-300h-145q0 33 0.5 69.5t0.5 73v72.5v68v57t-0.5 83t-0.5 92v83h145zM57 778l30 68l141 -69l141 69
l30 -68l-171 -114z" />
    <glyph glyph-name="oacute" unicode="&#xf3;" horiz-adv-x="479" 
d="M240 609q122 0 174.5 -80t52.5 -230q0 -151 -52.5 -230.5t-174.5 -79.5q-123 0 -175.5 79.5t-52.5 230.5q0 150 52.5 230t175.5 80zM240 224q20 0 35.5 8t25.5 21t15 29.5t5 34.5t-5 35t-15 30t-25.5 21t-35.5 8q-41 0 -61.5 -29t-20.5 -65q0 -18 5 -34.5t15.5 -29.5
t25.5 -21t36 -8zM250 841h146l-128 -191h-91z" />
    <glyph glyph-name="ocircumflex" unicode="&#xf4;" horiz-adv-x="479" 
d="M240 609q122 0 174.5 -80t52.5 -230q0 -151 -52.5 -230.5t-174.5 -79.5q-123 0 -175.5 79.5t-52.5 230.5q0 150 52.5 230t175.5 80zM240 224q20 0 35.5 8t25.5 21t15 29.5t5 34.5t-5 35t-15 30t-25.5 21t-35.5 8q-41 0 -61.5 -29t-20.5 -65q0 -18 5 -34.5t15.5 -29.5
t25.5 -21t36 -8zM240 846l171 -113l-30 -68l-141 68l-141 -68l-30 68z" />
    <glyph glyph-name="odieresis" unicode="&#xf6;" horiz-adv-x="479" 
d="M240 609q122 0 174.5 -80t52.5 -230q0 -151 -52.5 -230.5t-174.5 -79.5q-123 0 -175.5 79.5t-52.5 230.5q0 150 52.5 230t175.5 80zM240 224q20 0 35.5 8t25.5 21t15 29.5t5 34.5t-5 35t-15 30t-25.5 21t-35.5 8q-41 0 -61.5 -29t-20.5 -65q0 -18 5 -34.5t15.5 -29.5
t25.5 -21t36 -8zM74 740q0 39 23.5 56t50.5 17q32 0 50.5 -21t18.5 -52q0 -32 -19.5 -52.5t-48.5 -20.5q-12 0 -25 4t-24.5 12.5t-18.5 22.5t-7 34zM263 741q0 19 6.5 32.5t17 22.5t23.5 13t26 4q32 0 51 -21t19 -52q0 -32 -19.5 -52.5t-48.5 -20.5q-12 0 -25 4t-24.5 12.5
t-18.5 22.5t-7 35z" />
    <glyph glyph-name="obreve" unicode="&#x14f;" horiz-adv-x="479" 
d="M240 609q122 0 174.5 -80t52.5 -230q0 -151 -52.5 -230.5t-174.5 -79.5q-123 0 -175.5 79.5t-52.5 230.5q0 150 52.5 230t175.5 80zM240 224q20 0 35.5 8t25.5 21t15 29.5t5 34.5t-5 35t-15 30t-25.5 21t-35.5 8q-41 0 -61.5 -29t-20.5 -65q0 -18 5 -34.5t15.5 -29.5
t25.5 -21t36 -8zM386 817q0 -35 -12.5 -62t-32.5 -45t-46.5 -27.5t-54.5 -9.5q-29 0 -55 9.5t-46 27.5t-32.5 45t-12.5 62h69q2 -38 23.5 -61t53.5 -23t53.5 23t23.5 61h69z" />
    <glyph glyph-name="omacron" unicode="&#x14d;" horiz-adv-x="479" 
d="M240 609q122 0 174.5 -80t52.5 -230q0 -151 -52.5 -230.5t-174.5 -79.5q-123 0 -175.5 79.5t-52.5 230.5q0 150 52.5 230t175.5 80zM240 224q20 0 35.5 8t25.5 21t15 29.5t5 34.5t-5 35t-15 30t-25.5 21t-35.5 8q-41 0 -61.5 -29t-20.5 -65q0 -18 5 -34.5t15.5 -29.5
t25.5 -21t36 -8zM413 796v-94h-330v94h330z" />
    <glyph glyph-name="otilde" unicode="&#xf5;" horiz-adv-x="479" 
d="M240 609q122 0 174.5 -80t52.5 -230q0 -151 -52.5 -230.5t-174.5 -79.5q-123 0 -175.5 79.5t-52.5 230.5q0 150 52.5 230t175.5 80zM240 224q20 0 35.5 8t25.5 21t15 29.5t5 34.5t-5 35t-15 30t-25.5 21t-35.5 8q-41 0 -61.5 -29t-20.5 -65q0 -18 5 -34.5t15.5 -29.5
t25.5 -21t36 -8zM58 790q26 15 48.5 21.5t43.5 6.5q28 0 51.5 -9t45.5 -19.5t43.5 -19.5t45.5 -9q21 0 46.5 10.5t54.5 36.5v-108q-29 -22 -54.5 -30.5t-47.5 -8.5q-27 0 -50 9t-45.5 20t-44.5 20t-46 9q-21 0 -43 -8.5t-48 -30.5v110z" />
    <glyph glyph-name="ograve" unicode="&#xf2;" horiz-adv-x="479" 
d="M240 609q122 0 174.5 -80t52.5 -230q0 -151 -52.5 -230.5t-174.5 -79.5q-123 0 -175.5 79.5t-52.5 230.5q0 150 52.5 230t175.5 80zM240 224q20 0 35.5 8t25.5 21t15 29.5t5 34.5t-5 35t-15 30t-25.5 21t-35.5 8q-41 0 -61.5 -29t-20.5 -65q0 -18 5 -34.5t15.5 -29.5
t25.5 -21t36 -8zM303 650h-91l-128 191h146z" />
    <glyph glyph-name="ohungarumlaut" unicode="&#x151;" horiz-adv-x="479" 
d="M240 609q122 0 174.5 -80t52.5 -230q0 -151 -52.5 -230.5t-174.5 -79.5q-123 0 -175.5 79.5t-52.5 230.5q0 150 52.5 230t175.5 80zM240 224q20 0 35.5 8t25.5 21t15 29.5t5 34.5t-5 35t-15 30t-25.5 21t-35.5 8q-41 0 -61.5 -29t-20.5 -65q0 -18 5 -34.5t15.5 -29.5
t25.5 -21t36 -8zM180 841h110l-94 -191h-81zM350 841h110l-94 -191h-81z" />
    <glyph glyph-name="racute" unicode="&#x155;" horiz-adv-x="314" 
d="M152 598l7 -76q12 19 29 35t35.5 27.5t37 18t34.5 6.5q2 -26 3.5 -59.5t1.5 -68.5q0 -40 -1.5 -79t-3.5 -72q-9 4 -25 6t-27 2q-37 0 -54.5 -17.5t-17.5 -43.5v-277h-147q1 162 1.5 307.5t0.5 290.5h126zM181 841h146l-128 -191h-91z" />
    <glyph glyph-name="rcaron" unicode="&#x159;" horiz-adv-x="314" 
d="M152 598l7 -76q12 19 29 35t35.5 27.5t37 18t34.5 6.5q2 -26 3.5 -59.5t1.5 -68.5q0 -40 -1.5 -79t-3.5 -72q-9 4 -25 6t-27 2q-37 0 -54.5 -17.5t-17.5 -43.5v-277h-147q1 162 1.5 307.5t0.5 290.5h126zM0 778l30 68l141 -69l141 69l30 -68l-171 -114z" />
    <glyph glyph-name="sacute" unicode="&#x15b;" horiz-adv-x="383" 
d="M82 561q34 27 73 37.5t79 10.5q29 0 57.5 -5t54.5 -13q2 -61 2.5 -99.5t0.5 -59.5q0 -30 -1 -42.5t-2 -23.5q-2 0 -10 2t-19 4t-23.5 3.5t-24.5 1.5q-18 0 -30.5 -4.5t-12.5 -17.5q0 -11 8 -20.5t19.5 -19t25 -18t25.5 -15.5q27 -18 50.5 -48.5t23.5 -80.5
q0 -44 -19.5 -75t-49.5 -51t-67.5 -29t-73.5 -9q-14 0 -32 1t-36.5 4t-36.5 7.5t-33 11.5q-5 17 -7 36.5t-2 38.5q0 9 0.5 22t1.5 26.5t3 26.5t4 22q11 -5 25.5 -10.5t30.5 -10.5t31.5 -8.5t29.5 -3.5q20 0 31 8t11 22q0 12 -7 21.5t-17 18t-22 15t-22 11.5q-19 10 -39 22
t-36 29.5t-26 42.5t-10 61q0 42 16.5 84t55.5 74zM217 841h146l-128 -191h-91z" />
    <glyph glyph-name="scircumflex" unicode="&#x15d;" horiz-adv-x="383" 
d="M82 561q34 27 73 37.5t79 10.5q29 0 57.5 -5t54.5 -13q2 -61 2.5 -99.5t0.5 -59.5q0 -30 -1 -42.5t-2 -23.5q-2 0 -10 2t-19 4t-23.5 3.5t-24.5 1.5q-18 0 -30.5 -4.5t-12.5 -17.5q0 -11 8 -20.5t19.5 -19t25 -18t25.5 -15.5q27 -18 50.5 -48.5t23.5 -80.5
q0 -44 -19.5 -75t-49.5 -51t-67.5 -29t-73.5 -9q-14 0 -32 1t-36.5 4t-36.5 7.5t-33 11.5q-5 17 -7 36.5t-2 38.5q0 9 0.5 22t1.5 26.5t3 26.5t4 22q11 -5 25.5 -10.5t30.5 -10.5t31.5 -8.5t29.5 -3.5q20 0 31 8t11 22q0 12 -7 21.5t-17 18t-22 15t-22 11.5q-19 10 -39 22
t-36 29.5t-26 42.5t-10 61q0 42 16.5 84t55.5 74zM207 846l171 -113l-30 -68l-141 68l-141 -68l-30 68z" />
    <glyph glyph-name="scaron" unicode="&#x161;" horiz-adv-x="383" 
d="M82 561q34 27 73 37.5t79 10.5q29 0 57.5 -5t54.5 -13q2 -61 2.5 -99.5t0.5 -59.5q0 -30 -1 -42.5t-2 -23.5q-2 0 -10 2t-19 4t-23.5 3.5t-24.5 1.5q-18 0 -30.5 -4.5t-12.5 -17.5q0 -11 8 -20.5t19.5 -19t25 -18t25.5 -15.5q27 -18 50.5 -48.5t23.5 -80.5
q0 -44 -19.5 -75t-49.5 -51t-67.5 -29t-73.5 -9q-14 0 -32 1t-36.5 4t-36.5 7.5t-33 11.5q-5 17 -7 36.5t-2 38.5q0 9 0.5 22t1.5 26.5t3 26.5t4 22q11 -5 25.5 -10.5t30.5 -10.5t31.5 -8.5t29.5 -3.5q20 0 31 8t11 22q0 12 -7 21.5t-17 18t-22 15t-22 11.5q-19 10 -39 22
t-36 29.5t-26 42.5t-10 61q0 42 16.5 84t55.5 74zM36 778l30 68l141 -69l141 69l30 -68l-171 -114z" />
    <glyph glyph-name="uacute" unicode="&#xfa;" horiz-adv-x="459" 
d="M288 0v53q-24 -29 -58 -46.5t-69 -17.5q-22 0 -42.5 6.5t-37.5 17.5t-29.5 26.5t-18.5 33.5q-4 14 -6.5 40.5t-2.5 56.5v428h147v-300q0 -30 14 -47.5t38 -17.5q12 0 24.5 5t22 13t15.5 19t6 23v305h147q-1 -33 -2 -69.5l-2 -73t-1.5 -72.5t-0.5 -68v-57t0.5 -83t0.5 -92
v-83h-145zM241 841h146l-128 -191h-91z" />
    <glyph glyph-name="ucircumflex" unicode="&#xfb;" horiz-adv-x="459" 
d="M288 0v53q-24 -29 -58 -46.5t-69 -17.5q-22 0 -42.5 6.5t-37.5 17.5t-29.5 26.5t-18.5 33.5q-4 14 -6.5 40.5t-2.5 56.5v428h147v-300q0 -30 14 -47.5t38 -17.5q12 0 24.5 5t22 13t15.5 19t6 23v305h147q-1 -33 -2 -69.5l-2 -73t-1.5 -72.5t-0.5 -68v-57t0.5 -83t0.5 -92
v-83h-145zM231 846l171 -113l-30 -68l-141 68l-141 -68l-30 68z" />
    <glyph glyph-name="udieresis" unicode="&#xfc;" horiz-adv-x="459" 
d="M288 0v53q-24 -29 -58 -46.5t-69 -17.5q-22 0 -42.5 6.5t-37.5 17.5t-29.5 26.5t-18.5 33.5q-4 14 -6.5 40.5t-2.5 56.5v428h147v-300q0 -30 14 -47.5t38 -17.5q12 0 24.5 5t22 13t15.5 19t6 23v305h147q-1 -33 -2 -69.5l-2 -73t-1.5 -72.5t-0.5 -68v-57t0.5 -83t0.5 -92
v-83h-145zM65 740q0 39 23.5 56t50.5 17q32 0 50.5 -21t18.5 -52q0 -32 -19.5 -52.5t-48.5 -20.5q-12 0 -25 4t-24.5 12.5t-18.5 22.5t-7 34zM254 741q0 19 6.5 32.5t17 22.5t23.5 13t26 4q32 0 51 -21t19 -52q0 -32 -19.5 -52.5t-48.5 -20.5q-12 0 -25 4t-24.5 12.5
t-18.5 22.5t-7 35z" />
    <glyph glyph-name="uring" unicode="&#x16f;" horiz-adv-x="459" 
d="M288 0v53q-24 -29 -58 -46.5t-69 -17.5q-22 0 -42.5 6.5t-37.5 17.5t-29.5 26.5t-18.5 33.5q-4 14 -6.5 40.5t-2.5 56.5v428h147v-300q0 -30 14 -47.5t38 -17.5q12 0 24.5 5t22 13t15.5 19t6 23v305h147q-1 -33 -2 -69.5l-2 -73t-1.5 -72.5t-0.5 -68v-57t0.5 -83t0.5 -92
v-83h-145zM231 698q23 0 36.5 14t13.5 37t-13.5 36.5t-36.5 13.5t-37.5 -13.5t-14.5 -36.5t14.5 -37t37.5 -14zM231 650q-51 0 -77 29.5t-26 69.5t26 68t77 28t76 -28t25 -68t-25 -69.5t-76 -29.5z" />
    <glyph glyph-name="ubreve" unicode="&#x16d;" horiz-adv-x="459" 
d="M288 0v53q-24 -29 -58 -46.5t-69 -17.5q-22 0 -42.5 6.5t-37.5 17.5t-29.5 26.5t-18.5 33.5q-4 14 -6.5 40.5t-2.5 56.5v428h147v-300q0 -30 14 -47.5t38 -17.5q12 0 24.5 5t22 13t15.5 19t6 23v305h147q-1 -33 -2 -69.5l-2 -73t-1.5 -72.5t-0.5 -68v-57t0.5 -83t0.5 -92
v-83h-145zM377 817q0 -35 -12.5 -62t-32.5 -45t-46.5 -27.5t-54.5 -9.5q-29 0 -55 9.5t-46 27.5t-32.5 45t-12.5 62h69q2 -38 23.5 -61t53.5 -23t53.5 23t23.5 61h69z" />
    <glyph glyph-name="umacron" unicode="&#x16b;" horiz-adv-x="459" 
d="M288 0v53q-24 -29 -58 -46.5t-69 -17.5q-22 0 -42.5 6.5t-37.5 17.5t-29.5 26.5t-18.5 33.5q-4 14 -6.5 40.5t-2.5 56.5v428h147v-300q0 -30 14 -47.5t38 -17.5q12 0 24.5 5t22 13t15.5 19t6 23v305h147q-1 -33 -2 -69.5l-2 -73t-1.5 -72.5t-0.5 -68v-57t0.5 -83t0.5 -92
v-83h-145zM404 796v-94h-330v94h330z" />
    <glyph glyph-name="utilde" unicode="&#x169;" horiz-adv-x="459" 
d="M288 0v53q-24 -29 -58 -46.5t-69 -17.5q-22 0 -42.5 6.5t-37.5 17.5t-29.5 26.5t-18.5 33.5q-4 14 -6.5 40.5t-2.5 56.5v428h147v-300q0 -30 14 -47.5t38 -17.5q12 0 24.5 5t22 13t15.5 19t6 23v305h147q-1 -33 -2 -69.5l-2 -73t-1.5 -72.5t-0.5 -68v-57t0.5 -83t0.5 -92
v-83h-145zM49 790q26 15 48.5 21.5t43.5 6.5q28 0 51.5 -9t45.5 -19.5t43.5 -19.5t45.5 -9q21 0 46.5 10.5t54.5 36.5v-108q-29 -22 -54.5 -30.5t-47.5 -8.5q-27 0 -50 9t-45.5 20t-44.5 20t-46 9q-21 0 -43 -8.5t-48 -30.5v110z" />
    <glyph glyph-name="ugrave" unicode="&#xf9;" horiz-adv-x="459" 
d="M288 0v53q-24 -29 -58 -46.5t-69 -17.5q-22 0 -42.5 6.5t-37.5 17.5t-29.5 26.5t-18.5 33.5q-4 14 -6.5 40.5t-2.5 56.5v428h147v-300q0 -30 14 -47.5t38 -17.5q12 0 24.5 5t22 13t15.5 19t6 23v305h147q-1 -33 -2 -69.5l-2 -73t-1.5 -72.5t-0.5 -68v-57t0.5 -83t0.5 -92
v-83h-145zM294 650h-91l-128 191h146z" />
    <glyph glyph-name="uhungarumlaut" unicode="&#x171;" horiz-adv-x="459" 
d="M288 0v53q-24 -29 -58 -46.5t-69 -17.5q-22 0 -42.5 6.5t-37.5 17.5t-29.5 26.5t-18.5 33.5q-4 14 -6.5 40.5t-2.5 56.5v428h147v-300q0 -30 14 -47.5t38 -17.5q12 0 24.5 5t22 13t15.5 19t6 23v305h147q-1 -33 -2 -69.5l-2 -73t-1.5 -72.5t-0.5 -68v-57t0.5 -83t0.5 -92
v-83h-145zM171 841h110l-94 -191h-81zM341 841h110l-94 -191h-81z" />
    <glyph glyph-name="wacute" unicode="&#x1e83;" horiz-adv-x="697" 
d="M698 598l-114 -598h-185l-50 302l-49 -302h-184l-116 598h150l41 -318q3 -21 7.5 -31.5t14.5 -10.5q8 0 12 10t7 32l49 318h136l52 -318q3 -21 7.5 -31.5t13.5 -10.5q15 0 19 42l39 318h150zM359 841h146l-128 -191h-91z" />
    <glyph glyph-name="wcircumflex" unicode="&#x175;" horiz-adv-x="697" 
d="M698 598l-114 -598h-185l-50 302l-49 -302h-184l-116 598h150l41 -318q3 -21 7.5 -31.5t14.5 -10.5q8 0 12 10t7 32l49 318h136l52 -318q3 -21 7.5 -31.5t13.5 -10.5q15 0 19 42l39 318h150zM349 846l171 -113l-30 -68l-141 68l-141 -68l-30 68z" />
    <glyph glyph-name="wdieresis" unicode="&#x1e85;" horiz-adv-x="697" 
d="M698 598l-114 -598h-185l-50 302l-49 -302h-184l-116 598h150l41 -318q3 -21 7.5 -31.5t14.5 -10.5q8 0 12 10t7 32l49 318h136l52 -318q3 -21 7.5 -31.5t13.5 -10.5q15 0 19 42l39 318h150zM183 740q0 39 23.5 56t50.5 17q32 0 50.5 -21t18.5 -52q0 -32 -19.5 -52.5
t-48.5 -20.5q-12 0 -25 4t-24.5 12.5t-18.5 22.5t-7 34zM372 741q0 19 6.5 32.5t17 22.5t23.5 13t26 4q32 0 51 -21t19 -52q0 -32 -19.5 -52.5t-48.5 -20.5q-12 0 -25 4t-24.5 12.5t-18.5 22.5t-7 35z" />
    <glyph glyph-name="wgrave" unicode="&#x1e81;" horiz-adv-x="697" 
d="M698 598l-114 -598h-185l-50 302l-49 -302h-184l-116 598h150l41 -318q3 -21 7.5 -31.5t14.5 -10.5q8 0 12 10t7 32l49 318h136l52 -318q3 -21 7.5 -31.5t13.5 -10.5q15 0 19 42l39 318h150zM412 650h-91l-128 191h146z" />
    <glyph glyph-name="yacute" unicode="&#xfd;" horiz-adv-x="452" 
d="M458 598l-206 -779h-151l47 198l-154 581h158l55 -291q5 -23 8.5 -35t11.5 -12q13 0 22 47l57 291h152zM237 841h146l-128 -191h-91z" />
    <glyph glyph-name="ycircumflex" unicode="&#x177;" horiz-adv-x="452" 
d="M458 598l-206 -779h-151l47 198l-154 581h158l55 -291q5 -23 8.5 -35t11.5 -12q13 0 22 47l57 291h152zM227 846l171 -113l-30 -68l-141 68l-141 -68l-30 68z" />
    <glyph glyph-name="ydieresis" unicode="&#xff;" horiz-adv-x="452" 
d="M458 598l-206 -779h-151l47 198l-154 581h158l55 -291q5 -23 8.5 -35t11.5 -12q13 0 22 47l57 291h152zM61 740q0 39 23.5 56t50.5 17q32 0 50.5 -21t18.5 -52q0 -32 -19.5 -52.5t-48.5 -20.5q-12 0 -25 4t-24.5 12.5t-18.5 22.5t-7 34zM250 741q0 19 6.5 32.5t17 22.5
t23.5 13t26 4q32 0 51 -21t19 -52q0 -32 -19.5 -52.5t-48.5 -20.5q-12 0 -25 4t-24.5 12.5t-18.5 22.5t-7 35z" />
    <glyph glyph-name="ytilde" unicode="&#x1ef9;" horiz-adv-x="452" 
d="M458 598l-206 -779h-151l47 198l-154 581h158l55 -291q5 -23 8.5 -35t11.5 -12q13 0 22 47l57 291h152zM45 790q26 15 48.5 21.5t43.5 6.5q28 0 51.5 -9t45.5 -19.5t43.5 -19.5t45.5 -9q21 0 46.5 10.5t54.5 36.5v-108q-29 -22 -54.5 -30.5t-47.5 -8.5q-27 0 -50 9
t-45.5 20t-44.5 20t-46 9q-21 0 -43 -8.5t-48 -30.5v110z" />
    <glyph glyph-name="ygrave" unicode="&#x1ef3;" horiz-adv-x="452" 
d="M458 598l-206 -779h-151l47 198l-154 581h158l55 -291q5 -23 8.5 -35t11.5 -12q13 0 22 47l57 291h152zM290 650h-91l-128 191h146z" />
    <glyph glyph-name="zacute" unicode="&#x17a;" horiz-adv-x="440" 
d="M17 0q-5 20 -6.5 44t-1.5 49q0 31 2.5 58t7.5 54l211 192h-193q-3 20 -5 45.5t-2 54.5q0 28 2 54t5 47h378q2 -18 3.5 -37t1.5 -42q0 -16 -1 -38t-4 -56l-240 -212h243q3 -23 5 -50.5t2 -56.5q0 -30 -2 -57.5t-5 -48.5h-401zM251 841h146l-128 -191h-91z" />
    <glyph glyph-name="zdotaccent" unicode="&#x17c;" horiz-adv-x="440" 
d="M17 0q-5 20 -6.5 44t-1.5 49q0 31 2.5 58t7.5 54l211 192h-193q-3 20 -5 45.5t-2 54.5q0 28 2 54t5 47h378q2 -18 3.5 -37t1.5 -42q0 -16 -1 -38t-4 -56l-240 -212h243q3 -23 5 -50.5t2 -56.5q0 -30 -2 -57.5t-5 -48.5h-401zM155 740q0 44 27.5 65.5t60.5 21.5
q37 0 60.5 -23.5t23.5 -60.5q0 -41 -26.5 -64.5t-61.5 -23.5q-16 0 -31 5.5t-27 16t-19 26.5t-7 37z" />
    <glyph glyph-name="zcaron" unicode="&#x17e;" horiz-adv-x="440" 
d="M17 0q-5 20 -6.5 44t-1.5 49q0 31 2.5 58t7.5 54l211 192h-193q-3 20 -5 45.5t-2 54.5q0 28 2 54t5 47h378q2 -18 3.5 -37t1.5 -42q0 -16 -1 -38t-4 -56l-240 -212h243q3 -23 5 -50.5t2 -56.5q0 -30 -2 -57.5t-5 -48.5h-401zM70 778l30 68l141 -69l141 69l30 -68
l-171 -114z" />
    <glyph glyph-name="cacute" unicode="&#x107;" horiz-adv-x="430" 
d="M301 609q59 0 107 -17q0 -17 0.5 -36.5t0.5 -39.5q0 -21 -0.5 -42t-0.5 -39q-33 28 -81 28q-30 0 -50 -9.5t-32.5 -24.5t-17.5 -32.5t-5 -33.5q0 -22 8 -41.5t22 -34.5t32.5 -23.5t39.5 -8.5q20 0 42 8t42 22q0 -33 0.5 -68.5t0.5 -71.5q0 -35 -0.5 -71.5t-0.5 -72.5
q-56 -12 -111 -12q-68 0 -121 21.5t-90 61.5t-56.5 97.5t-19.5 128.5q0 67 18 124.5t54.5 98.5t91 64.5t127.5 23.5zM262 841h146l-128 -191h-91z" />
    <glyph glyph-name="ccircumflex" unicode="&#x109;" horiz-adv-x="430" 
d="M301 609q59 0 107 -17q0 -17 0.5 -36.5t0.5 -39.5q0 -21 -0.5 -42t-0.5 -39q-33 28 -81 28q-30 0 -50 -9.5t-32.5 -24.5t-17.5 -32.5t-5 -33.5q0 -22 8 -41.5t22 -34.5t32.5 -23.5t39.5 -8.5q20 0 42 8t42 22q0 -33 0.5 -68.5t0.5 -71.5q0 -35 -0.5 -71.5t-0.5 -72.5
q-56 -12 -111 -12q-68 0 -121 21.5t-90 61.5t-56.5 97.5t-19.5 128.5q0 67 18 124.5t54.5 98.5t91 64.5t127.5 23.5zM252 846l171 -113l-30 -68l-141 68l-141 -68l-30 68z" />
    <glyph glyph-name="cdotaccent" unicode="&#x10b;" horiz-adv-x="430" 
d="M301 609q59 0 107 -17q0 -17 0.5 -36.5t0.5 -39.5q0 -21 -0.5 -42t-0.5 -39q-33 28 -81 28q-30 0 -50 -9.5t-32.5 -24.5t-17.5 -32.5t-5 -33.5q0 -22 8 -41.5t22 -34.5t32.5 -23.5t39.5 -8.5q20 0 42 8t42 22q0 -33 0.5 -68.5t0.5 -71.5q0 -35 -0.5 -71.5t-0.5 -72.5
q-56 -12 -111 -12q-68 0 -121 21.5t-90 61.5t-56.5 97.5t-19.5 128.5q0 67 18 124.5t54.5 98.5t91 64.5t127.5 23.5zM166 740q0 44 27.5 65.5t60.5 21.5q37 0 60.5 -23.5t23.5 -60.5q0 -41 -26.5 -64.5t-61.5 -23.5q-16 0 -31 5.5t-27 16t-19 26.5t-7 37z" />
    <glyph glyph-name="ccaron" unicode="&#x10d;" horiz-adv-x="430" 
d="M301 609q59 0 107 -17q0 -17 0.5 -36.5t0.5 -39.5q0 -21 -0.5 -42t-0.5 -39q-33 28 -81 28q-30 0 -50 -9.5t-32.5 -24.5t-17.5 -32.5t-5 -33.5q0 -22 8 -41.5t22 -34.5t32.5 -23.5t39.5 -8.5q20 0 42 8t42 22q0 -33 0.5 -68.5t0.5 -71.5q0 -35 -0.5 -71.5t-0.5 -72.5
q-56 -12 -111 -12q-68 0 -121 21.5t-90 61.5t-56.5 97.5t-19.5 128.5q0 67 18 124.5t54.5 98.5t91 64.5t127.5 23.5zM81 778l30 68l141 -69l141 69l30 -68l-171 -114z" />
    <glyph glyph-name="uni2215" unicode="&#x2215;" horiz-adv-x="371" 
d="M385 817q-35 -98 -75 -208.5t-80 -223t-79 -222t-73 -205.5l-93 38q20 54 45 123.5t52.5 146.5t56 158t55 158.5t50 147.5t41.5 125z" />
    <glyph glyph-name="slash" unicode="/" horiz-adv-x="448" 
d="M437 818l-308 -862h-116l308 862h116z" />
    <glyph glyph-name="napostrophe" unicode="&#x149;" horiz-adv-x="457" 
d="M170 598v-54q24 30 58.5 47.5t70.5 17.5q44 0 78 -24t45 -57q5 -15 8.5 -41.5t3.5 -59.5v-427h-147v290q0 45 -16.5 60.5t-38.5 15.5q-29 0 -45.5 -18.5t-16.5 -47.5v-300h-145q0 33 0.5 69.5t0.5 73v72.5v68v57t-0.5 83t-0.5 92v83h145zM2 841h104l-43 -201h-79z" />
    <glyph glyph-name="aeacute" unicode="&#x1fd;" horiz-adv-x="776" 
d="M363 68q-30 -36 -79.5 -57.5t-105.5 -21.5q-83 0 -128.5 48.5t-45.5 138.5q0 47 14 81t46 57.5t83.5 38t125.5 22.5q0 42 -21.5 59t-53.5 17q-30 0 -66 -11t-70 -27l-43 149q18 10 41 19t49 15t52.5 9.5t51.5 3.5q64 0 104 -22.5t62 -61.5h4q17 37 61 60.5t104 23.5
q51 0 91 -18.5t68 -52t43 -82t15 -108.5v-19t-1 -14h-280q13 -47 45 -72t79 -25q28 0 66 8.5t69 21.5q2 -24 2.5 -55t0.5 -63q0 -61 -3 -103q-78 -38 -169 -38q-66 0 -119 20.5t-88 58.5h-4zM541 501q-26 0 -43 -21t-22 -58h131q-4 35 -22 57t-44 22zM273 289
q-48 0 -76.5 -17.5t-28.5 -49.5q0 -23 13.5 -37.5t33.5 -14.5q15 0 34 8.5t33 22.5zM390 841h146l-128 -191h-91z" />
    <glyph glyph-name="dcaron" unicode="&#x10f;" 
d="M509 0h-137v49q-36 -29 -76 -44.5t-78 -15.5q-45 0 -83 22t-65.5 61.5t-43.5 94.5t-16 120q0 68 17 127t46.5 102.5t70 68t87.5 24.5q41 0 78 -17.5t63 -43.5v293h142zM201 361q0 -41 22.5 -66t57.5 -25q38 0 64.5 27t26.5 69q0 19 -6.5 36t-18.5 29.5t-28 19.5t-34 7
q-36 0 -60 -27t-24 -70zM567 841h104l-43 -201h-79z" />
    <glyph glyph-name="hcircumflex" unicode="&#x125;" horiz-adv-x="459" 
d="M181 841q-3 -56 -5 -97.5t-3 -76t-1.5 -64t-0.5 -59.5q24 30 58 47.5t69 17.5q22 0 42.5 -6.5t37.5 -17.5t29.5 -26.5t18.5 -33.5q4 -14 6.5 -40.5t2.5 -57.5v-427h-147v300q0 30 -14.5 47.5t-38.5 17.5q-25 0 -44.5 -16t-19.5 -39v-310h-147q2 133 2 284.5v325.5v90.5
v61.5t-0.5 43t-0.5 36h156zM229 1045l171 -113l-30 -68l-141 68l-141 -68l-30 68z" />
    <glyph glyph-name="dcroat" unicode="&#x111;" 
d="M513 782h62v-112h-62v-670h-141v49q-36 -29 -76 -44.5t-78 -15.5q-45 0 -83 22t-65.5 61.5t-43.5 94.5t-16 120q0 68 17 127t46.5 102.5t70 68t87.5 24.5q41 0 78 -17.5t63 -43.5v122h-133v112h133v59h142zM201 361q0 -41 22.5 -66t57.5 -25q38 0 64.5 27t26.5 69
q0 19 -6.5 36t-18.5 29.5t-28 19.5t-34 7q-36 0 -60 -27t-24 -70z" />
    <glyph glyph-name="gcommaaccent" unicode="&#x123;" horiz-adv-x="538" 
d="M371 747q0 -19 -3 -36.5t-11 -30.5t-23.5 -21t-39.5 -8q-40 0 -59.5 27t-19.5 70q0 23 8.5 48t24 48t36.5 42.5t46 32.5l33 -30q-22 -17 -34.5 -37.5t-12.5 -41.5q0 -23 15 -40.5t40 -22.5zM372 70q-38 -30 -69.5 -43t-68.5 -13q-50 0 -91 20.5t-70.5 57t-46 87.5
t-16.5 112q0 66 18.5 123.5t51 101t75.5 68.5t92 25q73 0 125 -61v50h142v-322q0 -89 -2.5 -151t-7.5 -98q-15 -106 -80.5 -162.5t-172.5 -56.5q-45 0 -85.5 10t-74.5 29v123q73 -37 146 -37q66 0 100.5 28t34.5 80v29zM201 361q0 -41 22 -66t58 -25q19 0 35.5 7.5t29 20.5
t19.5 30.5t7 37.5q0 19 -6.5 36t-18.5 29.5t-28 19.5t-34 7q-36 0 -60 -27t-24 -70z" />
    <glyph glyph-name="hbar" unicode="&#x127;" horiz-adv-x="459" 
d="M181 841l-3 -59h124v-112h-129q-2 -35 -2 -65v-61q24 30 58 47.5t69 17.5q22 0 42.5 -6.5t37.5 -17.5t29.5 -26.5t18.5 -33.5q4 -14 6.5 -40.5t2.5 -57.5v-427h-147v300q0 30 -14.5 47.5t-38.5 17.5q-25 0 -44.5 -16t-19.5 -39v-310h-147q1 66 1.5 138t0.5 154v175.5
v202.5h-60v112h60v59h155z" />
    <glyph glyph-name="lcaron" unicode="&#x13e;" horiz-adv-x="198" 
d="M181 841q-5 -139 -7.5 -282t-2.5 -304v-109.5v-68t0.5 -43t0.5 -34.5h-150q3 88 4 206t1 274v115.5t-0.5 86.5t-0.5 75.5v83.5h155zM229 841h104l-43 -201h-79z" />
    <glyph glyph-name="lslash" unicode="&#x142;" horiz-adv-x="290" 
d="M225 841q-4 -89 -6 -179t-3 -186l77 26v-112l-78 -27v-124v-88v-60v-40t0.5 -27.5t0.5 -23.5h-150q2 63 3 140.5t2 174.5l-74 -25v112l74 25v103v80.5t-0.5 64.5t-0.5 55.5v53v57.5h155z" />
    <glyph glyph-name="oslash" unicode="&#xf8;" horiz-adv-x="497" 
d="M251 609q104 0 160 -62l39 51h62l-72 -94q38 -75 38 -205q0 -151 -52.5 -230.5t-174.5 -79.5q-106 0 -161 61l-39 -50h-62l72 93q-38 75 -38 206q0 150 52.5 230t175.5 80zM169 317q0 -17 4.5 -32.5t13.5 -28.5l108 141q-19 14 -44 14q-41 0 -61.5 -29t-20.5 -65z
M251 224q20 0 35.5 8t25.5 21t15 29.5t5 34.5q0 21 -7 39l-99 -129q12 -3 25 -3z" />
    <glyph glyph-name="oslashacute" unicode="&#x1ff;" horiz-adv-x="497" 
d="M251 609q104 0 160 -62l39 51h62l-72 -94q38 -75 38 -205q0 -151 -52.5 -230.5t-174.5 -79.5q-106 0 -161 61l-39 -50h-62l72 93q-38 75 -38 206q0 150 52.5 230t175.5 80zM261 841h146l-128 -191h-91zM169 317q0 -17 4.5 -32.5t13.5 -28.5l108 141q-19 14 -44 14
q-41 0 -61.5 -29t-20.5 -65zM251 224q20 0 35.5 8t25.5 21t15 29.5t5 34.5q0 21 -7 39l-99 -129q12 -3 25 -3z" />
    <glyph glyph-name="aringacute" unicode="&#x1fb;" 
d="M509 0h-137v49q-36 -29 -76 -44.5t-78 -15.5q-45 0 -83 22t-65.5 61.5t-43.5 94.5t-16 120q0 68 17 127t46.5 102.5t70 68t87.5 24.5q41 0 78 -17.5t63 -43.5v50h142zM201 361q0 -41 22.5 -66t57.5 -25q38 0 64.5 27t26.5 69q0 19 -6.5 36t-18.5 29.5t-28 19.5t-34 7
q-36 0 -60 -27t-24 -70zM296 684q23 0 36.5 14t13.5 37t-13.5 36.5t-36.5 13.5t-37.5 -13.5t-14.5 -36.5t14.5 -37t37.5 -14zM296 636q-51 0 -77 29.5t-26 69.5t26 68t77 28t76 -28t25 -68t-25 -69.5t-76 -29.5zM325 1045h146l-128 -191h-91z" />
    <glyph glyph-name="tbar" unicode="&#x167;" horiz-adv-x="314" 
d="M86 714h137v-116h79v-146h-81v-83h89v-112h-89v-65q0 -41 7 -54.5t32 -13.5q7 0 19 1t18 3q2 -7 2 -28.5v-43.5v-34.5t-1 -21.5q-12 -2 -26.5 -3.5t-28 -2.5t-25 -1.5t-18.5 -0.5q-36 0 -59 14t-35.5 37.5t-17.5 53t-5 60.5v100h-87v112h90v83h-80v146h80v116z" />
    <glyph glyph-name="uni01C6" unicode="&#x1c6;" horiz-adv-x="989" 
d="M509 0h-137v49q-36 -29 -76 -44.5t-78 -15.5q-45 0 -83 22t-65.5 61.5t-43.5 94.5t-16 120q0 68 17 127t46.5 102.5t70 68t87.5 24.5q41 0 78 -17.5t63 -43.5v293h142zM201 361q0 -41 22.5 -66t57.5 -25q38 0 64.5 27t26.5 69q0 19 -6.5 36t-18.5 29.5t-28 19.5t-34 7
q-36 0 -60 -27t-24 -70zM566 0q-5 20 -6.5 44t-1.5 49q0 31 2.5 58t7.5 54l211 192h-193q-3 20 -5 45.5t-2 54.5q0 28 2 54t5 47h378q2 -18 3.5 -37t1.5 -42q0 -16 -1 -38t-4 -56l-240 -212h243q3 -23 5 -50.5t2 -56.5q0 -30 -2 -57.5t-5 -48.5h-401zM619 778l30 68l141 -69
l141 69l30 -68l-171 -114z" />
    <glyph glyph-name="tcaron" unicode="&#x165;" horiz-adv-x="303" 
d="M75 714h137v-116h77v-266h-79v-140q0 -41 7 -54.5t32 -13.5q7 0 19 1t18 3q2 -7 2 -28.5v-43.5v-34.5t-1 -21.5q-12 -2 -26.5 -3.5t-28 -2.5t-25 -1.5t-18.5 -0.5q-36 0 -59 14t-36 37.5t-18 53t-5 60.5q0 12 0.5 35.5t1 49.5t1.5 50.5t1 39.5h-60v266h60v116zM312 841
h104l-43 -201h-79z" />
    <glyph glyph-name="uni2219" unicode="&#x2219;" horiz-adv-x="235" 
d="M119 454q25 0 44.5 -10t33 -25.5t20.5 -34t7 -35.5q0 -22 -8.5 -42t-23 -35t-34 -24t-40.5 -9q-27 0 -47 8.5t-33 23t-19.5 32.5t-6.5 37q0 20 7 40.5t20.5 37t33.5 26.5t46 10z" />
    <glyph glyph-name="ldot" unicode="&#x140;" horiz-adv-x="436" 
d="M181 841q-5 -139 -7.5 -282t-2.5 -304v-109.5v-68t0.5 -43t0.5 -34.5h-150q3 88 4 206t1 274v115.5t-0.5 86.5t-0.5 75.5v83.5h155zM322 454q25 0 44.5 -10t33 -25.5t20.5 -34t7 -35.5q0 -22 -8.5 -42t-23 -35t-34 -24t-40.5 -9q-27 0 -47 8.5t-33 23t-19.5 32.5t-6.5 37
q0 20 7 40.5t20.5 37t33.5 26.5t46 10z" />
    <glyph glyph-name="lacute" unicode="&#x13a;" horiz-adv-x="198" 
d="M112 1045h146l-108 -171h-91zM181 841q-5 -139 -7.5 -282t-2.5 -304v-109.5v-68t0.5 -43t0.5 -34.5h-150q3 88 4 206t1 274v115.5t-0.5 86.5t-0.5 75.5v83.5h155z" />
    <glyph glyph-name="Aacute" unicode="&#xc1;" horiz-adv-x="534" 
d="M-4 0l148 818h247l147 -818h-169l-25 164h-154l-24 -164h-170zM217 343h100l-50 330zM277 1040h146l-128 -191h-91z" />
    <glyph glyph-name="Acircumflex" unicode="&#xc2;" horiz-adv-x="534" 
d="M-4 0l148 818h247l147 -818h-169l-25 164h-154l-24 -164h-170zM217 343h100l-50 330zM267 1045l171 -113l-30 -68l-141 68l-141 -68l-30 68z" />
    <glyph glyph-name="Adieresis" unicode="&#xc4;" horiz-adv-x="534" 
d="M-4 0l148 818h247l147 -818h-169l-25 164h-154l-24 -164h-170zM217 343h100l-50 330zM101 939q0 39 23.5 56t50.5 17q32 0 50.5 -21t18.5 -52q0 -32 -19.5 -52.5t-48.5 -20.5q-12 0 -25 4t-24.5 12.5t-18.5 22.5t-7 34zM290 940q0 19 6.5 32.5t17 22.5t23.5 13t26 4
q32 0 51 -21t19 -52q0 -32 -19.5 -52.5t-48.5 -20.5q-12 0 -25 4t-24.5 12.5t-18.5 22.5t-7 35z" />
    <glyph glyph-name="Aring" unicode="&#xc5;" horiz-adv-x="534" 
d="M-4 0l148 818h247l147 -818h-169l-25 164h-154l-24 -164h-170zM217 343h100l-50 330zM267 897q23 0 36.5 14t13.5 37t-13.5 36.5t-36.5 13.5t-37.5 -13.5t-14.5 -36.5t14.5 -37t37.5 -14zM267 849q-51 0 -77 29.5t-26 69.5t26 68t77 28t76 -28t25 -68t-25 -69.5
t-76 -29.5z" />
    <glyph glyph-name="Abreve" unicode="&#x102;" horiz-adv-x="534" 
d="M-4 0l148 818h247l147 -818h-169l-25 164h-154l-24 -164h-170zM217 343h100l-50 330zM413 1016q0 -35 -12.5 -62t-32.5 -45t-46.5 -27.5t-54.5 -9.5q-29 0 -55 9.5t-46 27.5t-32.5 45t-12.5 62h69q2 -38 23.5 -61t53.5 -23t53.5 23t23.5 61h69z" />
    <glyph glyph-name="Amacron" unicode="&#x100;" horiz-adv-x="534" 
d="M-4 0l148 818h247l147 -818h-169l-25 164h-154l-24 -164h-170zM217 343h100l-50 330zM440 995v-94h-330v94h330z" />
    <glyph glyph-name="Atilde" unicode="&#xc3;" horiz-adv-x="534" 
d="M-4 0l148 818h247l147 -818h-169l-25 164h-154l-24 -164h-170zM217 343h100l-50 330zM85 989q26 15 48.5 21.5t43.5 6.5q28 0 51.5 -9t45.5 -19.5t43.5 -19.5t45.5 -9q21 0 46.5 10.5t54.5 36.5v-108q-29 -22 -54.5 -30.5t-47.5 -8.5q-27 0 -50 9t-45.5 20t-44.5 20
t-46 9q-21 0 -43 -8.5t-48 -30.5v110z" />
    <glyph glyph-name="Agrave" unicode="&#xc0;" horiz-adv-x="534" 
d="M-4 0l148 818h247l147 -818h-169l-25 164h-154l-24 -164h-170zM217 343h100l-50 330zM330 849h-91l-128 191h146z" />
    <glyph glyph-name="AEacute" unicode="&#x1fc;" horiz-adv-x="713" 
d="M697 -3q-28 1 -72 1.5t-94 1t-101 1t-91 0.5q1 23 1.5 66t0.5 97h-147l-37 -164h-170l214 818h491v-159h-191v-126h163v-149h-163v-119h192q1 -23 2 -47t1.5 -54t0.5 -70.5v-96.5zM234 343h107q0 85 -0.5 169t-0.5 153h-32zM437 1040h146l-128 -191h-91z" />
    <glyph glyph-name="Cacute" unicode="&#x106;" horiz-adv-x="516" 
d="M387 830q36 0 62.5 -4.5t49.5 -12.5q0 -17 0.5 -36t0.5 -41t-0.5 -46.5t-0.5 -45.5q-38 24 -91 24q-50 0 -83.5 -18.5t-54 -47.5t-29 -63.5t-8.5 -65.5q0 -42 13 -79t36.5 -64.5t55 -43.5t68.5 -16q17 0 43.5 5t49.5 19q0 -35 0.5 -73t0.5 -74q0 -38 -0.5 -74t-0.5 -72
q-56 -12 -114 -12q-88 0 -157.5 29t-118 83.5t-74 132t-25.5 173.5q0 92 24 169.5t71.5 134t118 88t163.5 31.5zM373 1040h146l-128 -191h-91z" />
    <glyph glyph-name="Ccircumflex" unicode="&#x108;" horiz-adv-x="516" 
d="M387 830q36 0 62.5 -4.5t49.5 -12.5q0 -17 0.5 -36t0.5 -41t-0.5 -46.5t-0.5 -45.5q-38 24 -91 24q-50 0 -83.5 -18.5t-54 -47.5t-29 -63.5t-8.5 -65.5q0 -42 13 -79t36.5 -64.5t55 -43.5t68.5 -16q17 0 43.5 5t49.5 19q0 -35 0.5 -73t0.5 -74q0 -38 -0.5 -74t-0.5 -72
q-56 -12 -114 -12q-88 0 -157.5 29t-118 83.5t-74 132t-25.5 173.5q0 92 24 169.5t71.5 134t118 88t163.5 31.5zM363 1045l171 -113l-30 -68l-141 68l-141 -68l-30 68z" />
    <glyph glyph-name="Cdotaccent" unicode="&#x10a;" horiz-adv-x="516" 
d="M387 830q36 0 62.5 -4.5t49.5 -12.5q0 -17 0.5 -36t0.5 -41t-0.5 -46.5t-0.5 -45.5q-38 24 -91 24q-50 0 -83.5 -18.5t-54 -47.5t-29 -63.5t-8.5 -65.5q0 -42 13 -79t36.5 -64.5t55 -43.5t68.5 -16q17 0 43.5 5t49.5 19q0 -35 0.5 -73t0.5 -74q0 -38 -0.5 -74t-0.5 -72
q-56 -12 -114 -12q-88 0 -157.5 29t-118 83.5t-74 132t-25.5 173.5q0 92 24 169.5t71.5 134t118 88t163.5 31.5zM277 939q0 44 27.5 65.5t60.5 21.5q37 0 60.5 -23.5t23.5 -60.5q0 -41 -26.5 -64.5t-61.5 -23.5q-16 0 -31 5.5t-27 16t-19 26.5t-7 37z" />
    <glyph glyph-name="Ccaron" unicode="&#x10c;" horiz-adv-x="516" 
d="M387 830q36 0 62.5 -4.5t49.5 -12.5q0 -17 0.5 -36t0.5 -41t-0.5 -46.5t-0.5 -45.5q-38 24 -91 24q-50 0 -83.5 -18.5t-54 -47.5t-29 -63.5t-8.5 -65.5q0 -42 13 -79t36.5 -64.5t55 -43.5t68.5 -16q17 0 43.5 5t49.5 19q0 -35 0.5 -73t0.5 -74q0 -38 -0.5 -74t-0.5 -72
q-56 -12 -114 -12q-88 0 -157.5 29t-118 83.5t-74 132t-25.5 173.5q0 92 24 169.5t71.5 134t118 88t163.5 31.5zM192 977l30 68l141 -69l141 69l30 -68l-171 -114z" />
    <glyph glyph-name="Dcroat" unicode="&#x110;" horiz-adv-x="652" 
d="M51 815q57 8 109 11.5t89 3.5q88 0 162 -24t130 -86q51 -58 76 -140.5t25 -177.5q0 -93 -24 -169t-73.5 -130t-124.5 -84t-177 -30q-23 0 -74.5 2t-113.5 9q1 46 1.5 90t1 88.5t0.5 91.5v101h-51q-1 23 -2 45.5t-1 45.5t1 46t2 45h50q-1 73 -2.5 139t-3.5 123zM245 664
q-10 0 -19 -1t-17 -2v-108h70q1 -23 1 -45.5v-45.5v-45.5t-1 -45.5h-70v-106q9 -2 20 -2.5t18 -0.5q37 0 68.5 16t55 43.5t36.5 64.5t13 79q0 31 -8.5 66.5t-29 64.5t-54 48.5t-83.5 19.5z" />
    <glyph glyph-name="Dcaron" unicode="&#x10e;" horiz-adv-x="625" 
d="M24 815q57 8 109 11.5t89 3.5q88 0 162 -24t130 -86q51 -58 76 -140.5t25 -177.5q0 -93 -24 -169t-73.5 -130t-124.5 -84t-177 -30q-23 0 -74.5 2t-113.5 9q1 46 1.5 89.5t1 86t0.5 85.5v89q0 131 -1.5 251t-5.5 214zM218 664q-10 0 -18.5 -1t-16.5 -2q-1 -47 -1 -93.5
v-93.5q0 -23 0.5 -49t1 -53.5t1.5 -55t1 -51.5q9 -2 18 -2.5t16 -0.5q37 0 68.5 16t55 43.5t36.5 64.5t13 79q0 31 -8.5 66.5t-29 64.5t-54 48.5t-83.5 19.5zM88 977l30 68l141 -69l141 69l30 -68l-171 -114z" />
    <glyph glyph-name="Eacute" unicode="&#xc9;" horiz-adv-x="415" 
d="M398 -3q-28 1 -74 1.5t-98.5 1t-105 0.5h-92.5q1 21 1.5 56t0.5 80v97.5v108.5q0 76 -0.5 152t-0.5 141.5t-0.5 113.5t-0.5 68h86t96 0.5t96 1.5t88 2q0 -13 0.5 -22.5t0.5 -26.5q0 -12 -0.5 -28.5t-1 -34l-1 -35t-1.5 -32.5h-201v-116h175v-149h-175v-112h204
q1 -23 2 -47t1.5 -54t0.5 -70.5v-96.5zM234 1040h146l-128 -191h-91z" />
    <glyph glyph-name="Ecircumflex" unicode="&#xca;" horiz-adv-x="415" 
d="M398 -3q-28 1 -74 1.5t-98.5 1t-105 0.5h-92.5q1 21 1.5 56t0.5 80v97.5v108.5q0 76 -0.5 152t-0.5 141.5t-0.5 113.5t-0.5 68h86t96 0.5t96 1.5t88 2q0 -13 0.5 -22.5t0.5 -26.5q0 -12 -0.5 -28.5t-1 -34l-1 -35t-1.5 -32.5h-201v-116h175v-149h-175v-112h204
q1 -23 2 -47t1.5 -54t0.5 -70.5v-96.5zM224 1045l171 -113l-30 -68l-141 68l-141 -68l-30 68z" />
    <glyph glyph-name="Edotaccent" unicode="&#x116;" horiz-adv-x="415" 
d="M398 -3q-28 1 -74 1.5t-98.5 1t-105 0.5h-92.5q1 21 1.5 56t0.5 80v97.5v108.5q0 76 -0.5 152t-0.5 141.5t-0.5 113.5t-0.5 68h86t96 0.5t96 1.5t88 2q0 -13 0.5 -22.5t0.5 -26.5q0 -12 -0.5 -28.5t-1 -34l-1 -35t-1.5 -32.5h-201v-116h175v-149h-175v-112h204
q1 -23 2 -47t1.5 -54t0.5 -70.5v-96.5zM138 939q0 44 27.5 65.5t60.5 21.5q37 0 60.5 -23.5t23.5 -60.5q0 -41 -26.5 -64.5t-61.5 -23.5q-16 0 -31 5.5t-27 16t-19 26.5t-7 37z" />
    <glyph glyph-name="Edieresis" unicode="&#xcb;" horiz-adv-x="415" 
d="M398 -3q-28 1 -74 1.5t-98.5 1t-105 0.5h-92.5q1 21 1.5 56t0.5 80v97.5v108.5q0 76 -0.5 152t-0.5 141.5t-0.5 113.5t-0.5 68h86t96 0.5t96 1.5t88 2q0 -13 0.5 -22.5t0.5 -26.5q0 -12 -0.5 -28.5t-1 -34l-1 -35t-1.5 -32.5h-201v-116h175v-149h-175v-112h204
q1 -23 2 -47t1.5 -54t0.5 -70.5v-96.5zM58 939q0 39 23.5 56t50.5 17q32 0 50.5 -21t18.5 -52q0 -32 -19.5 -52.5t-48.5 -20.5q-12 0 -25 4t-24.5 12.5t-18.5 22.5t-7 34zM247 940q0 19 6.5 32.5t17 22.5t23.5 13t26 4q32 0 51 -21t19 -52q0 -32 -19.5 -52.5t-48.5 -20.5
q-12 0 -25 4t-24.5 12.5t-18.5 22.5t-7 35z" />
    <glyph glyph-name="Ebreve" unicode="&#x114;" horiz-adv-x="415" 
d="M398 -3q-28 1 -74 1.5t-98.5 1t-105 0.5h-92.5q1 21 1.5 56t0.5 80v97.5v108.5q0 76 -0.5 152t-0.5 141.5t-0.5 113.5t-0.5 68h86t96 0.5t96 1.5t88 2q0 -13 0.5 -22.5t0.5 -26.5q0 -12 -0.5 -28.5t-1 -34l-1 -35t-1.5 -32.5h-201v-116h175v-149h-175v-112h204
q1 -23 2 -47t1.5 -54t0.5 -70.5v-96.5zM370 1016q0 -35 -12.5 -62t-32.5 -45t-46.5 -27.5t-54.5 -9.5q-29 0 -55 9.5t-46 27.5t-32.5 45t-12.5 62h69q2 -38 23.5 -61t53.5 -23t53.5 23t23.5 61h69z" />
    <glyph glyph-name="Emacron" unicode="&#x112;" horiz-adv-x="415" 
d="M398 -3q-28 1 -74 1.5t-98.5 1t-105 0.5h-92.5q1 21 1.5 56t0.5 80v97.5v108.5q0 76 -0.5 152t-0.5 141.5t-0.5 113.5t-0.5 68h86t96 0.5t96 1.5t88 2q0 -13 0.5 -22.5t0.5 -26.5q0 -12 -0.5 -28.5t-1 -34l-1 -35t-1.5 -32.5h-201v-116h175v-149h-175v-112h204
q1 -23 2 -47t1.5 -54t0.5 -70.5v-96.5zM397 995v-94h-330v94h330z" />
    <glyph glyph-name="Etilde" unicode="&#x1ebc;" horiz-adv-x="415" 
d="M398 -3q-28 1 -74 1.5t-98.5 1t-105 0.5h-92.5q1 21 1.5 56t0.5 80v97.5v108.5q0 76 -0.5 152t-0.5 141.5t-0.5 113.5t-0.5 68h86t96 0.5t96 1.5t88 2q0 -13 0.5 -22.5t0.5 -26.5q0 -12 -0.5 -28.5t-1 -34l-1 -35t-1.5 -32.5h-201v-116h175v-149h-175v-112h204
q1 -23 2 -47t1.5 -54t0.5 -70.5v-96.5zM42 989q26 15 48.5 21.5t43.5 6.5q28 0 51.5 -9t45.5 -19.5t43.5 -19.5t45.5 -9q21 0 46.5 10.5t54.5 36.5v-108q-29 -22 -54.5 -30.5t-47.5 -8.5q-27 0 -50 9t-45.5 20t-44.5 20t-46 9q-21 0 -43 -8.5t-48 -30.5v110z" />
    <glyph glyph-name="Ecaron" unicode="&#x11a;" horiz-adv-x="415" 
d="M398 -3q-28 1 -74 1.5t-98.5 1t-105 0.5h-92.5q1 21 1.5 56t0.5 80v97.5v108.5q0 76 -0.5 152t-0.5 141.5t-0.5 113.5t-0.5 68h86t96 0.5t96 1.5t88 2q0 -13 0.5 -22.5t0.5 -26.5q0 -12 -0.5 -28.5t-1 -34l-1 -35t-1.5 -32.5h-201v-116h175v-149h-175v-112h204
q1 -23 2 -47t1.5 -54t0.5 -70.5v-96.5zM53 977l30 68l141 -69l141 69l30 -68l-171 -114z" />
    <glyph glyph-name="Egrave" unicode="&#xc8;" horiz-adv-x="415" 
d="M398 -3q-28 1 -74 1.5t-98.5 1t-105 0.5h-92.5q1 21 1.5 56t0.5 80v97.5v108.5q0 76 -0.5 152t-0.5 141.5t-0.5 113.5t-0.5 68h86t96 0.5t96 1.5t88 2q0 -13 0.5 -22.5t0.5 -26.5q0 -12 -0.5 -28.5t-1 -34l-1 -35t-1.5 -32.5h-201v-116h175v-149h-175v-112h204
q1 -23 2 -47t1.5 -54t0.5 -70.5v-96.5zM287 849h-91l-128 191h146z" />
    <glyph glyph-name="Gcircumflex" unicode="&#x11c;" horiz-adv-x="584" 
d="M565 455v-454q-54 -7 -95.5 -9.5t-68.5 -2.5q-92 0 -165 29t-123 83.5t-76.5 132t-26.5 173.5q0 92 25 169.5t74.5 134t124 88t172.5 31.5q42 0 72.5 -5.5t59.5 -14.5q0 -16 0.5 -35t0.5 -41t-0.5 -47t-0.5 -45q-49 26 -112 26q-55 0 -92 -18.5t-59.5 -47.5t-32 -64.5
t-9.5 -68.5q0 -38 11.5 -74t34.5 -64t57.5 -45t81.5 -17h9.5t9.5 1v185h128zM360 1045l171 -113l-30 -68l-141 68l-141 -68l-30 68z" />
    <glyph glyph-name="Gdotaccent" unicode="&#x120;" horiz-adv-x="584" 
d="M565 455v-454q-54 -7 -95.5 -9.5t-68.5 -2.5q-92 0 -165 29t-123 83.5t-76.5 132t-26.5 173.5q0 92 25 169.5t74.5 134t124 88t172.5 31.5q42 0 72.5 -5.5t59.5 -14.5q0 -16 0.5 -35t0.5 -41t-0.5 -47t-0.5 -45q-49 26 -112 26q-55 0 -92 -18.5t-59.5 -47.5t-32 -64.5
t-9.5 -68.5q0 -38 11.5 -74t34.5 -64t57.5 -45t81.5 -17h9.5t9.5 1v185h128zM274 939q0 44 27.5 65.5t60.5 21.5q37 0 60.5 -23.5t23.5 -60.5q0 -41 -26.5 -64.5t-61.5 -23.5q-16 0 -31 5.5t-27 16t-19 26.5t-7 37z" />
    <glyph glyph-name="Gbreve" unicode="&#x11e;" horiz-adv-x="584" 
d="M565 455v-454q-54 -7 -95.5 -9.5t-68.5 -2.5q-92 0 -165 29t-123 83.5t-76.5 132t-26.5 173.5q0 92 25 169.5t74.5 134t124 88t172.5 31.5q42 0 72.5 -5.5t59.5 -14.5q0 -16 0.5 -35t0.5 -41t-0.5 -47t-0.5 -45q-49 26 -112 26q-55 0 -92 -18.5t-59.5 -47.5t-32 -64.5
t-9.5 -68.5q0 -38 11.5 -74t34.5 -64t57.5 -45t81.5 -17h9.5t9.5 1v185h128zM506 1016q0 -35 -12.5 -62t-32.5 -45t-46.5 -27.5t-54.5 -9.5q-29 0 -55 9.5t-46 27.5t-32.5 45t-12.5 62h69q2 -38 23.5 -61t53.5 -23t53.5 23t23.5 61h69z" />
    <glyph glyph-name="Hcircumflex" unicode="&#x124;" horiz-adv-x="529" 
d="M506 818q-3 -63 -4.5 -119t-2.5 -110.5t-1.5 -110t-0.5 -118.5q0 -74 0.5 -161t1.5 -199h-166q2 60 3 125.5t2 149.5h-148q0 -59 0.5 -126.5t1.5 -148.5h-166q1 44 2 90t2 99t1 116v140v117.5t-0.5 90.5t-0.5 79.5v85.5h169q-4 -83 -6 -153.5t-3 -142.5h148v83.5t-0.5 72
t-0.5 68v72.5h169zM265 1045l171 -113l-30 -68l-141 68l-141 -68l-30 68z" />
    <glyph glyph-name="Iacute" unicode="&#xcd;" horiz-adv-x="355" 
d="M99 283v162q0 64 -0.5 109t-0.5 83h-74q-1 23 -2 45t-1 45t1 46t2 45h308q1 -23 1 -45.5v-45.5v-45t-1 -45h-73q-2 -67 -2.5 -132t-0.5 -145v-77h76q1 -36 1 -71v-71v-70.5t-1 -70.5h-308q-1 35 -2 70.5t-1 70.5q0 36 1 71t2 71h75zM189 1040h146l-128 -191h-91z" />
    <glyph glyph-name="Icircumflex" unicode="&#xce;" horiz-adv-x="355" 
d="M99 283v162q0 64 -0.5 109t-0.5 83h-74q-1 23 -2 45t-1 45t1 46t2 45h308q1 -23 1 -45.5v-45.5v-45t-1 -45h-73q-2 -67 -2.5 -132t-0.5 -145v-77h76q1 -36 1 -71v-71v-70.5t-1 -70.5h-308q-1 35 -2 70.5t-1 70.5q0 36 1 71t2 71h75zM179 1045l171 -113l-30 -68l-141 68
l-141 -68l-30 68z" />
    <glyph glyph-name="Idotaccent" unicode="&#x130;" horiz-adv-x="355" 
d="M99 283v162q0 64 -0.5 109t-0.5 83h-74q-1 23 -2 45t-1 45t1 46t2 45h308q1 -23 1 -45.5v-45.5v-45t-1 -45h-73q-2 -67 -2.5 -132t-0.5 -145v-77h76q1 -36 1 -71v-71v-70.5t-1 -70.5h-308q-1 35 -2 70.5t-1 70.5q0 36 1 71t2 71h75zM93 939q0 44 27.5 65.5t60.5 21.5
q37 0 60.5 -23.5t23.5 -60.5q0 -41 -26.5 -64.5t-61.5 -23.5q-16 0 -31 5.5t-27 16t-19 26.5t-7 37z" />
    <glyph glyph-name="Idieresis" unicode="&#xcf;" horiz-adv-x="355" 
d="M99 283v162q0 64 -0.5 109t-0.5 83h-74q-1 23 -2 45t-1 45t1 46t2 45h308q1 -23 1 -45.5v-45.5v-45t-1 -45h-73q-2 -67 -2.5 -132t-0.5 -145v-77h76q1 -36 1 -71v-71v-70.5t-1 -70.5h-308q-1 35 -2 70.5t-1 70.5q0 36 1 71t2 71h75zM13 939q0 39 23.5 56t50.5 17
q32 0 50.5 -21t18.5 -52q0 -32 -19.5 -52.5t-48.5 -20.5q-12 0 -25 4t-24.5 12.5t-18.5 22.5t-7 34zM202 940q0 19 6.5 32.5t17 22.5t23.5 13t26 4q32 0 51 -21t19 -52q0 -32 -19.5 -52.5t-48.5 -20.5q-12 0 -25 4t-24.5 12.5t-18.5 22.5t-7 35z" />
    <glyph glyph-name="Ibreve" unicode="&#x12c;" horiz-adv-x="355" 
d="M99 283v162q0 64 -0.5 109t-0.5 83h-74q-1 23 -2 45t-1 45t1 46t2 45h308q1 -23 1 -45.5v-45.5v-45t-1 -45h-73q-2 -67 -2.5 -132t-0.5 -145v-77h76q1 -36 1 -71v-71v-70.5t-1 -70.5h-308q-1 35 -2 70.5t-1 70.5q0 36 1 71t2 71h75zM325 1016q0 -35 -12.5 -62t-32.5 -45
t-46.5 -27.5t-54.5 -9.5q-29 0 -55 9.5t-46 27.5t-32.5 45t-12.5 62h69q2 -38 23.5 -61t53.5 -23t53.5 23t23.5 61h69z" />
    <glyph glyph-name="Imacron" unicode="&#x12a;" horiz-adv-x="355" 
d="M99 283v162q0 64 -0.5 109t-0.5 83h-74q-1 23 -2 45t-1 45t1 46t2 45h308q1 -23 1 -45.5v-45.5v-45t-1 -45h-73q-2 -67 -2.5 -132t-0.5 -145v-77h76q1 -36 1 -71v-71v-70.5t-1 -70.5h-308q-1 35 -2 70.5t-1 70.5q0 36 1 71t2 71h75zM352 995v-94h-330v94h330z" />
    <glyph glyph-name="Itilde" unicode="&#x128;" horiz-adv-x="355" 
d="M99 283v162q0 64 -0.5 109t-0.5 83h-74q-1 23 -2 45t-1 45t1 46t2 45h308q1 -23 1 -45.5v-45.5v-45t-1 -45h-73q-2 -67 -2.5 -132t-0.5 -145v-77h76q1 -36 1 -71v-71v-70.5t-1 -70.5h-308q-1 35 -2 70.5t-1 70.5q0 36 1 71t2 71h75zM-3 989q26 15 48.5 21.5t43.5 6.5
q28 0 51.5 -9t45.5 -19.5t43.5 -19.5t45.5 -9q21 0 46.5 10.5t54.5 36.5v-108q-29 -22 -54.5 -30.5t-47.5 -8.5q-27 0 -50 9t-45.5 20t-44.5 20t-46 9q-21 0 -43 -8.5t-48 -30.5v110z" />
    <glyph glyph-name="Igrave" unicode="&#xcc;" horiz-adv-x="355" 
d="M99 283v162q0 64 -0.5 109t-0.5 83h-74q-1 23 -2 45t-1 45t1 46t2 45h308q1 -23 1 -45.5v-45.5v-45t-1 -45h-73q-2 -67 -2.5 -132t-0.5 -145v-77h76q1 -36 1 -71v-71v-70.5t-1 -70.5h-308q-1 35 -2 70.5t-1 70.5q0 36 1 71t2 71h75zM242 849h-91l-128 191h146z" />
    <glyph glyph-name="Jcircumflex" unicode="&#x134;" horiz-adv-x="378" 
d="M352 428q0 -71 -0.5 -118t-1.5 -77t-3 -47t-4 -30q-13 -75 -64.5 -121t-145.5 -46q-24 0 -58.5 3.5t-67.5 12.5q-2 34 -3 69.5t-1 70.5q0 36 1 72t3 72q25 -11 45 -16t42 -5q31 0 50.5 10.5t31 32.5t15.5 57t4 83v196h-139v171h296v-390zM201 1045l171 -113l-30 -68
l-141 68l-141 -68l-30 68z" />
    <glyph glyph-name="Nacute" unicode="&#x143;" horiz-adv-x="597" 
d="M426 818h143q-3 -204 -3 -409t3 -409h-193l-212 489v-489h-137q2 103 3 204.5t1 204.5t-1 204.5t-3 204.5h202l197 -488v488zM310 1040h146l-128 -191h-91z" />
    <glyph glyph-name="Ndotaccent" unicode="&#x1e44;" horiz-adv-x="597" 
d="M426 818h143q-3 -204 -3 -409t3 -409h-193l-212 489v-489h-137q2 103 3 204.5t1 204.5t-1 204.5t-3 204.5h202l197 -488v488zM214 939q0 44 27.5 65.5t60.5 21.5q37 0 60.5 -23.5t23.5 -60.5q0 -41 -26.5 -64.5t-61.5 -23.5q-16 0 -31 5.5t-27 16t-19 26.5t-7 37z" />
    <glyph glyph-name="Ntilde" unicode="&#xd1;" horiz-adv-x="597" 
d="M426 818h143q-3 -204 -3 -409t3 -409h-193l-212 489v-489h-137q2 103 3 204.5t1 204.5t-1 204.5t-3 204.5h202l197 -488v488zM118 989q26 15 48.5 21.5t43.5 6.5q28 0 51.5 -9t45.5 -19.5t43.5 -19.5t45.5 -9q21 0 46.5 10.5t54.5 36.5v-108q-29 -22 -54.5 -30.5
t-47.5 -8.5q-27 0 -50 9t-45.5 20t-44.5 20t-46 9q-21 0 -43 -8.5t-48 -30.5v110z" />
    <glyph glyph-name="Ncaron" unicode="&#x147;" horiz-adv-x="597" 
d="M426 818h143q-3 -204 -3 -409t3 -409h-193l-212 489v-489h-137q2 103 3 204.5t1 204.5t-1 204.5t-3 204.5h202l197 -488v488zM129 977l30 68l141 -69l141 69l30 -68l-171 -114z" />
    <glyph glyph-name="Oacute" unicode="&#xd3;" horiz-adv-x="608" 
d="M304 830q149 0 220 -106t71 -308q0 -205 -69.5 -316t-221.5 -111q-75 0 -130 28.5t-91 83t-53 134t-17 181.5q0 205 71 309.5t220 104.5zM304 247q32 0 56.5 14.5t40.5 40t24 61t8 78.5t-8 79.5t-24 63.5t-40.5 42t-56.5 15t-55.5 -15.5t-40 -42.5t-24.5 -63.5t-8 -78.5
q0 -43 8 -78.5t24.5 -61t40 -40t55.5 -14.5zM314 1040h146l-128 -191h-91z" />
    <glyph glyph-name="Ocircumflex" unicode="&#xd4;" horiz-adv-x="608" 
d="M304 830q149 0 220 -106t71 -308q0 -205 -69.5 -316t-221.5 -111q-75 0 -130 28.5t-91 83t-53 134t-17 181.5q0 205 71 309.5t220 104.5zM304 247q32 0 56.5 14.5t40.5 40t24 61t8 78.5t-8 79.5t-24 63.5t-40.5 42t-56.5 15t-55.5 -15.5t-40 -42.5t-24.5 -63.5t-8 -78.5
q0 -43 8 -78.5t24.5 -61t40 -40t55.5 -14.5zM304 1045l171 -113l-30 -68l-141 68l-141 -68l-30 68z" />
    <glyph glyph-name="Odieresis" unicode="&#xd6;" horiz-adv-x="608" 
d="M304 830q149 0 220 -106t71 -308q0 -205 -69.5 -316t-221.5 -111q-75 0 -130 28.5t-91 83t-53 134t-17 181.5q0 205 71 309.5t220 104.5zM304 247q32 0 56.5 14.5t40.5 40t24 61t8 78.5t-8 79.5t-24 63.5t-40.5 42t-56.5 15t-55.5 -15.5t-40 -42.5t-24.5 -63.5t-8 -78.5
q0 -43 8 -78.5t24.5 -61t40 -40t55.5 -14.5zM138 939q0 39 23.5 56t50.5 17q32 0 50.5 -21t18.5 -52q0 -32 -19.5 -52.5t-48.5 -20.5q-12 0 -25 4t-24.5 12.5t-18.5 22.5t-7 34zM327 940q0 19 6.5 32.5t17 22.5t23.5 13t26 4q32 0 51 -21t19 -52q0 -32 -19.5 -52.5
t-48.5 -20.5q-12 0 -25 4t-24.5 12.5t-18.5 22.5t-7 35z" />
    <glyph glyph-name="Obreve" unicode="&#x14e;" horiz-adv-x="608" 
d="M304 830q149 0 220 -106t71 -308q0 -205 -69.5 -316t-221.5 -111q-75 0 -130 28.5t-91 83t-53 134t-17 181.5q0 205 71 309.5t220 104.5zM304 247q32 0 56.5 14.5t40.5 40t24 61t8 78.5t-8 79.5t-24 63.5t-40.5 42t-56.5 15t-55.5 -15.5t-40 -42.5t-24.5 -63.5t-8 -78.5
q0 -43 8 -78.5t24.5 -61t40 -40t55.5 -14.5zM450 1016q0 -35 -12.5 -62t-32.5 -45t-46.5 -27.5t-54.5 -9.5q-29 0 -55 9.5t-46 27.5t-32.5 45t-12.5 62h69q2 -38 23.5 -61t53.5 -23t53.5 23t23.5 61h69z" />
    <glyph glyph-name="Omacron" unicode="&#x14c;" horiz-adv-x="608" 
d="M304 830q149 0 220 -106t71 -308q0 -205 -69.5 -316t-221.5 -111q-75 0 -130 28.5t-91 83t-53 134t-17 181.5q0 205 71 309.5t220 104.5zM304 247q32 0 56.5 14.5t40.5 40t24 61t8 78.5t-8 79.5t-24 63.5t-40.5 42t-56.5 15t-55.5 -15.5t-40 -42.5t-24.5 -63.5t-8 -78.5
q0 -43 8 -78.5t24.5 -61t40 -40t55.5 -14.5zM477 995v-94h-330v94h330z" />
    <glyph glyph-name="Otilde" unicode="&#xd5;" horiz-adv-x="608" 
d="M304 830q149 0 220 -106t71 -308q0 -205 -69.5 -316t-221.5 -111q-75 0 -130 28.5t-91 83t-53 134t-17 181.5q0 205 71 309.5t220 104.5zM304 247q32 0 56.5 14.5t40.5 40t24 61t8 78.5t-8 79.5t-24 63.5t-40.5 42t-56.5 15t-55.5 -15.5t-40 -42.5t-24.5 -63.5t-8 -78.5
q0 -43 8 -78.5t24.5 -61t40 -40t55.5 -14.5zM122 989q26 15 48.5 21.5t43.5 6.5q28 0 51.5 -9t45.5 -19.5t43.5 -19.5t45.5 -9q21 0 46.5 10.5t54.5 36.5v-108q-29 -22 -54.5 -30.5t-47.5 -8.5q-27 0 -50 9t-45.5 20t-44.5 20t-46 9q-21 0 -43 -8.5t-48 -30.5v110z" />
    <glyph glyph-name="Ograve" unicode="&#xd2;" horiz-adv-x="608" 
d="M304 830q149 0 220 -106t71 -308q0 -205 -69.5 -316t-221.5 -111q-75 0 -130 28.5t-91 83t-53 134t-17 181.5q0 205 71 309.5t220 104.5zM304 247q32 0 56.5 14.5t40.5 40t24 61t8 78.5t-8 79.5t-24 63.5t-40.5 42t-56.5 15t-55.5 -15.5t-40 -42.5t-24.5 -63.5t-8 -78.5
q0 -43 8 -78.5t24.5 -61t40 -40t55.5 -14.5zM367 849h-91l-128 191h146z" />
    <glyph glyph-name="Ohungarumlaut" unicode="&#x150;" horiz-adv-x="608" 
d="M304 830q149 0 220 -106t71 -308q0 -205 -69.5 -316t-221.5 -111q-75 0 -130 28.5t-91 83t-53 134t-17 181.5q0 205 71 309.5t220 104.5zM304 247q32 0 56.5 14.5t40.5 40t24 61t8 78.5t-8 79.5t-24 63.5t-40.5 42t-56.5 15t-55.5 -15.5t-40 -42.5t-24.5 -63.5t-8 -78.5
q0 -43 8 -78.5t24.5 -61t40 -40t55.5 -14.5zM244 1040h110l-94 -191h-81zM414 1040h110l-94 -191h-81z" />
    <glyph glyph-name="Racute" unicode="&#x154;" horiz-adv-x="589" 
d="M27 0q3 95 4 189.5t1 179.5q0 121 -1.5 230t-3.5 219q49 5 98.5 8.5t100.5 3.5q73 0 137 -10.5t111 -39t74.5 -78.5t27.5 -129q0 -98 -40.5 -154t-109.5 -84l163 -335h-178l-133 305q-41 -3 -85 -3q0 -77 1 -151t6 -151h-173zM193 454q31 -3 57 -3q68 0 96.5 25.5
t28.5 76.5q0 31 -8.5 50t-23 30t-34 15t-41.5 4q-16 0 -35.5 -1.5t-39.5 -4.5v-192zM290 1040h146l-128 -191h-91z" />
    <glyph glyph-name="Rcaron" unicode="&#x158;" horiz-adv-x="589" 
d="M27 0q3 95 4 189.5t1 179.5q0 121 -1.5 230t-3.5 219q49 5 98.5 8.5t100.5 3.5q73 0 137 -10.5t111 -39t74.5 -78.5t27.5 -129q0 -98 -40.5 -154t-109.5 -84l163 -335h-178l-133 305q-41 -3 -85 -3q0 -77 1 -151t6 -151h-173zM193 454q31 -3 57 -3q68 0 96.5 25.5
t28.5 76.5q0 31 -8.5 50t-23 30t-34 15t-41.5 4q-16 0 -35.5 -1.5t-39.5 -4.5v-192zM109 977l30 68l141 -69l141 69l30 -68l-171 -114z" />
    <glyph glyph-name="Sacute" unicode="&#x15a;" horiz-adv-x="460" 
d="M17 615q0 64 24.5 105.5t62 66t83 34t87.5 9.5q12 0 30.5 -1t39 -3t42 -5.5t40.5 -9.5q2 -26 3 -48.5t1 -51.5t-1 -55.5t-3 -50.5q-8 1 -20.5 3t-26 3l-27 2t-25.5 1q-48 0 -70 -15t-22 -41q0 -15 7 -28.5t18.5 -25.5t26 -23t29.5 -21q24 -17 48.5 -37.5t44.5 -49t33 -66
t13 -86.5q0 -64 -22 -108t-56.5 -71.5t-77 -40t-84.5 -12.5q-19 0 -46.5 2.5t-55.5 7t-53 11t-40 15.5q-4 18 -6.5 37t-2.5 42q0 16 1.5 39t3.5 47t4.5 46t4.5 37q11 -6 32 -13.5t45.5 -14.5t49.5 -12t44 -5q32 0 48 13.5t16 36.5q0 25 -18 44.5t-45 38.5t-58.5 40.5
t-58.5 50.5t-45 68.5t-18 94.5zM284 1040h146l-128 -191h-91z" />
    <glyph glyph-name="Scircumflex" unicode="&#x15c;" horiz-adv-x="460" 
d="M17 615q0 64 24.5 105.5t62 66t83 34t87.5 9.5q12 0 30.5 -1t39 -3t42 -5.5t40.5 -9.5q2 -26 3 -48.5t1 -51.5t-1 -55.5t-3 -50.5q-8 1 -20.5 3t-26 3l-27 2t-25.5 1q-48 0 -70 -15t-22 -41q0 -15 7 -28.5t18.5 -25.5t26 -23t29.5 -21q24 -17 48.5 -37.5t44.5 -49t33 -66
t13 -86.5q0 -64 -22 -108t-56.5 -71.5t-77 -40t-84.5 -12.5q-19 0 -46.5 2.5t-55.5 7t-53 11t-40 15.5q-4 18 -6.5 37t-2.5 42q0 16 1.5 39t3.5 47t4.5 46t4.5 37q11 -6 32 -13.5t45.5 -14.5t49.5 -12t44 -5q32 0 48 13.5t16 36.5q0 25 -18 44.5t-45 38.5t-58.5 40.5
t-58.5 50.5t-45 68.5t-18 94.5zM274 1045l171 -113l-30 -68l-141 68l-141 -68l-30 68z" />
    <glyph glyph-name="Scaron" unicode="&#x160;" horiz-adv-x="460" 
d="M17 615q0 64 24.5 105.5t62 66t83 34t87.5 9.5q12 0 30.5 -1t39 -3t42 -5.5t40.5 -9.5q2 -26 3 -48.5t1 -51.5t-1 -55.5t-3 -50.5q-8 1 -20.5 3t-26 3l-27 2t-25.5 1q-48 0 -70 -15t-22 -41q0 -15 7 -28.5t18.5 -25.5t26 -23t29.5 -21q24 -17 48.5 -37.5t44.5 -49t33 -66
t13 -86.5q0 -64 -22 -108t-56.5 -71.5t-77 -40t-84.5 -12.5q-19 0 -46.5 2.5t-55.5 7t-53 11t-40 15.5q-4 18 -6.5 37t-2.5 42q0 16 1.5 39t3.5 47t4.5 46t4.5 37q11 -6 32 -13.5t45.5 -14.5t49.5 -12t44 -5q32 0 48 13.5t16 36.5q0 25 -18 44.5t-45 38.5t-58.5 40.5
t-58.5 50.5t-45 68.5t-18 94.5zM103 977l30 68l141 -69l141 69l30 -68l-171 -114z" />
    <glyph glyph-name="Tcaron" unicode="&#x164;" horiz-adv-x="419" 
d="M408 633h-115q-2 -89 -3 -180.5t-1 -197.5v-109.5v-68t0.5 -43t0.5 -34.5h-168q1 44 2 91.5t1.5 103t1 120t0.5 142.5v99t-1 77h-115v185h397v-185zM43 977l30 68l141 -69l141 69l30 -68l-171 -114z" />
    <glyph glyph-name="Uacute" unicode="&#xda;" horiz-adv-x="597" 
d="M566 819q2 -146 6 -252.5t4 -181.5q0 -49 -3 -97.5t-13 -92.5t-28.5 -81.5t-49 -65.5t-75.5 -43.5t-107 -15.5q-64 0 -109.5 16.5t-76.5 44.5t-49.5 66.5t-28.5 82.5t-13 91t-3 94q0 37 1 79t3 94t4.5 116t5.5 145h176q-3 -90 -5 -152.5t-3.5 -104.5t-2 -66.5t-1 -37.5
t-0.5 -18.5v-8.5q0 -97 22 -146t79 -49q58 0 78.5 53t20.5 161v11.5t-0.5 20.5t-1 37.5t-2 63t-3.5 97t-5 139.5zM309 1040h146l-128 -191h-91z" />
    <glyph glyph-name="Ucircumflex" unicode="&#xdb;" horiz-adv-x="597" 
d="M566 819q2 -146 6 -252.5t4 -181.5q0 -49 -3 -97.5t-13 -92.5t-28.5 -81.5t-49 -65.5t-75.5 -43.5t-107 -15.5q-64 0 -109.5 16.5t-76.5 44.5t-49.5 66.5t-28.5 82.5t-13 91t-3 94q0 37 1 79t3 94t4.5 116t5.5 145h176q-3 -90 -5 -152.5t-3.5 -104.5t-2 -66.5t-1 -37.5
t-0.5 -18.5v-8.5q0 -97 22 -146t79 -49q58 0 78.5 53t20.5 161v11.5t-0.5 20.5t-1 37.5t-2 63t-3.5 97t-5 139.5zM299 1045l171 -113l-30 -68l-141 68l-141 -68l-30 68z" />
    <glyph glyph-name="Udieresis" unicode="&#xdc;" horiz-adv-x="597" 
d="M566 819q2 -146 6 -252.5t4 -181.5q0 -49 -3 -97.5t-13 -92.5t-28.5 -81.5t-49 -65.5t-75.5 -43.5t-107 -15.5q-64 0 -109.5 16.5t-76.5 44.5t-49.5 66.5t-28.5 82.5t-13 91t-3 94q0 37 1 79t3 94t4.5 116t5.5 145h176q-3 -90 -5 -152.5t-3.5 -104.5t-2 -66.5t-1 -37.5
t-0.5 -18.5v-8.5q0 -97 22 -146t79 -49q58 0 78.5 53t20.5 161v11.5t-0.5 20.5t-1 37.5t-2 63t-3.5 97t-5 139.5zM133 939q0 39 23.5 56t50.5 17q32 0 50.5 -21t18.5 -52q0 -32 -19.5 -52.5t-48.5 -20.5q-12 0 -25 4t-24.5 12.5t-18.5 22.5t-7 34zM322 940q0 19 6.5 32.5
t17 22.5t23.5 13t26 4q32 0 51 -21t19 -52q0 -32 -19.5 -52.5t-48.5 -20.5q-12 0 -25 4t-24.5 12.5t-18.5 22.5t-7 35z" />
    <glyph glyph-name="Uring" unicode="&#x16e;" horiz-adv-x="597" 
d="M566 819q2 -146 6 -252.5t4 -181.5q0 -49 -3 -97.5t-13 -92.5t-28.5 -81.5t-49 -65.5t-75.5 -43.5t-107 -15.5q-64 0 -109.5 16.5t-76.5 44.5t-49.5 66.5t-28.5 82.5t-13 91t-3 94q0 37 1 79t3 94t4.5 116t5.5 145h176q-3 -90 -5 -152.5t-3.5 -104.5t-2 -66.5t-1 -37.5
t-0.5 -18.5v-8.5q0 -97 22 -146t79 -49q58 0 78.5 53t20.5 161v11.5t-0.5 20.5t-1 37.5t-2 63t-3.5 97t-5 139.5zM299 897q23 0 36.5 14t13.5 37t-13.5 36.5t-36.5 13.5t-37.5 -13.5t-14.5 -36.5t14.5 -37t37.5 -14zM299 849q-51 0 -77 29.5t-26 69.5t26 68t77 28t76 -28
t25 -68t-25 -69.5t-76 -29.5z" />
    <glyph glyph-name="Ubreve" unicode="&#x16c;" horiz-adv-x="597" 
d="M566 819q2 -146 6 -252.5t4 -181.5q0 -49 -3 -97.5t-13 -92.5t-28.5 -81.5t-49 -65.5t-75.5 -43.5t-107 -15.5q-64 0 -109.5 16.5t-76.5 44.5t-49.5 66.5t-28.5 82.5t-13 91t-3 94q0 37 1 79t3 94t4.5 116t5.5 145h176q-3 -90 -5 -152.5t-3.5 -104.5t-2 -66.5t-1 -37.5
t-0.5 -18.5v-8.5q0 -97 22 -146t79 -49q58 0 78.5 53t20.5 161v11.5t-0.5 20.5t-1 37.5t-2 63t-3.5 97t-5 139.5zM445 1016q0 -35 -12.5 -62t-32.5 -45t-46.5 -27.5t-54.5 -9.5q-29 0 -55 9.5t-46 27.5t-32.5 45t-12.5 62h69q2 -38 23.5 -61t53.5 -23t53.5 23t23.5 61h69z
" />
    <glyph glyph-name="Umacron" unicode="&#x16a;" horiz-adv-x="597" 
d="M566 819q2 -146 6 -252.5t4 -181.5q0 -49 -3 -97.5t-13 -92.5t-28.5 -81.5t-49 -65.5t-75.5 -43.5t-107 -15.5q-64 0 -109.5 16.5t-76.5 44.5t-49.5 66.5t-28.5 82.5t-13 91t-3 94q0 37 1 79t3 94t4.5 116t5.5 145h176q-3 -90 -5 -152.5t-3.5 -104.5t-2 -66.5t-1 -37.5
t-0.5 -18.5v-8.5q0 -97 22 -146t79 -49q58 0 78.5 53t20.5 161v11.5t-0.5 20.5t-1 37.5t-2 63t-3.5 97t-5 139.5zM472 995v-94h-330v94h330z" />
    <glyph glyph-name="Utilde" unicode="&#x168;" horiz-adv-x="597" 
d="M566 819q2 -146 6 -252.5t4 -181.5q0 -49 -3 -97.5t-13 -92.5t-28.5 -81.5t-49 -65.5t-75.5 -43.5t-107 -15.5q-64 0 -109.5 16.5t-76.5 44.5t-49.5 66.5t-28.5 82.5t-13 91t-3 94q0 37 1 79t3 94t4.5 116t5.5 145h176q-3 -90 -5 -152.5t-3.5 -104.5t-2 -66.5t-1 -37.5
t-0.5 -18.5v-8.5q0 -97 22 -146t79 -49q58 0 78.5 53t20.5 161v11.5t-0.5 20.5t-1 37.5t-2 63t-3.5 97t-5 139.5zM117 989q26 15 48.5 21.5t43.5 6.5q28 0 51.5 -9t45.5 -19.5t43.5 -19.5t45.5 -9q21 0 46.5 10.5t54.5 36.5v-108q-29 -22 -54.5 -30.5t-47.5 -8.5
q-27 0 -50 9t-45.5 20t-44.5 20t-46 9q-21 0 -43 -8.5t-48 -30.5v110z" />
    <glyph glyph-name="Ugrave" unicode="&#xd9;" horiz-adv-x="597" 
d="M566 819q2 -146 6 -252.5t4 -181.5q0 -49 -3 -97.5t-13 -92.5t-28.5 -81.5t-49 -65.5t-75.5 -43.5t-107 -15.5q-64 0 -109.5 16.5t-76.5 44.5t-49.5 66.5t-28.5 82.5t-13 91t-3 94q0 37 1 79t3 94t4.5 116t5.5 145h176q-3 -90 -5 -152.5t-3.5 -104.5t-2 -66.5t-1 -37.5
t-0.5 -18.5v-8.5q0 -97 22 -146t79 -49q58 0 78.5 53t20.5 161v11.5t-0.5 20.5t-1 37.5t-2 63t-3.5 97t-5 139.5zM362 849h-91l-128 191h146z" />
    <glyph glyph-name="Uhungarumlaut" unicode="&#x170;" horiz-adv-x="597" 
d="M566 819q2 -146 6 -252.5t4 -181.5q0 -49 -3 -97.5t-13 -92.5t-28.5 -81.5t-49 -65.5t-75.5 -43.5t-107 -15.5q-64 0 -109.5 16.5t-76.5 44.5t-49.5 66.5t-28.5 82.5t-13 91t-3 94q0 37 1 79t3 94t4.5 116t5.5 145h176q-3 -90 -5 -152.5t-3.5 -104.5t-2 -66.5t-1 -37.5
t-0.5 -18.5v-8.5q0 -97 22 -146t79 -49q58 0 78.5 53t20.5 161v11.5t-0.5 20.5t-1 37.5t-2 63t-3.5 97t-5 139.5zM239 1040h110l-94 -191h-81zM409 1040h110l-94 -191h-81z" />
    <glyph glyph-name="Wacute" unicode="&#x1e82;" horiz-adv-x="812" 
d="M644 818h166l-122 -818h-197l-87 438l-87 -438h-192l-126 818h166l63 -559l114 552l128 6l113 -558zM414 1040h146l-128 -191h-91z" />
    <glyph glyph-name="Wcircumflex" unicode="&#x174;" horiz-adv-x="812" 
d="M644 818h166l-122 -818h-197l-87 438l-87 -438h-192l-126 818h166l63 -559l114 552l128 6l113 -558zM404 1045l171 -113l-30 -68l-141 68l-141 -68l-30 68z" />
    <glyph glyph-name="Wdieresis" unicode="&#x1e84;" horiz-adv-x="812" 
d="M644 818h166l-122 -818h-197l-87 438l-87 -438h-192l-126 818h166l63 -559l114 552l128 6l113 -558zM238 939q0 39 23.5 56t50.5 17q32 0 50.5 -21t18.5 -52q0 -32 -19.5 -52.5t-48.5 -20.5q-12 0 -25 4t-24.5 12.5t-18.5 22.5t-7 34zM427 940q0 19 6.5 32.5t17 22.5
t23.5 13t26 4q32 0 51 -21t19 -52q0 -32 -19.5 -52.5t-48.5 -20.5q-12 0 -25 4t-24.5 12.5t-18.5 22.5t-7 35z" />
    <glyph glyph-name="Wgrave" unicode="&#x1e80;" horiz-adv-x="812" 
d="M644 818h166l-122 -818h-197l-87 438l-87 -438h-192l-126 818h166l63 -559l114 552l128 6l113 -558zM467 849h-91l-128 191h146z" />
    <glyph glyph-name="Yacute" unicode="&#xdd;" 
d="M382 818h165l-195 -518v-45v-109.5v-68t0.5 -43t0.5 -34.5h-173q2 65 3 136t2 164l-194 518h166l112 -341zM278 1040h146l-128 -191h-91z" />
    <glyph glyph-name="Ycircumflex" unicode="&#x176;" 
d="M382 818h165l-195 -518v-45v-109.5v-68t0.5 -43t0.5 -34.5h-173q2 65 3 136t2 164l-194 518h166l112 -341zM268 1045l171 -113l-30 -68l-141 68l-141 -68l-30 68z" />
    <glyph glyph-name="Ydieresis" unicode="&#x178;" 
d="M382 818h165l-195 -518v-45v-109.5v-68t0.5 -43t0.5 -34.5h-173q2 65 3 136t2 164l-194 518h166l112 -341zM102 939q0 39 23.5 56t50.5 17q32 0 50.5 -21t18.5 -52q0 -32 -19.5 -52.5t-48.5 -20.5q-12 0 -25 4t-24.5 12.5t-18.5 22.5t-7 34zM291 940q0 19 6.5 32.5
t17 22.5t23.5 13t26 4q32 0 51 -21t19 -52q0 -32 -19.5 -52.5t-48.5 -20.5q-12 0 -25 4t-24.5 12.5t-18.5 22.5t-7 35z" />
    <glyph glyph-name="Ytilde" unicode="&#x1ef8;" 
d="M382 818h165l-195 -518v-45v-109.5v-68t0.5 -43t0.5 -34.5h-173q2 65 3 136t2 164l-194 518h166l112 -341zM86 989q26 15 48.5 21.5t43.5 6.5q28 0 51.5 -9t45.5 -19.5t43.5 -19.5t45.5 -9q21 0 46.5 10.5t54.5 36.5v-108q-29 -22 -54.5 -30.5t-47.5 -8.5q-27 0 -50 9
t-45.5 20t-44.5 20t-46 9q-21 0 -43 -8.5t-48 -30.5v110z" />
    <glyph glyph-name="Ygrave" unicode="&#x1ef2;" 
d="M382 818h165l-195 -518v-45v-109.5v-68t0.5 -43t0.5 -34.5h-173q2 65 3 136t2 164l-194 518h166l112 -341zM331 849h-91l-128 191h146z" />
    <glyph glyph-name="Zacute" unicode="&#x179;" horiz-adv-x="506" 
d="M12 0q-8 43 -8 93q0 31 3 58t8 54l279 434h-260q-3 17 -4.5 37t-1.5 41q0 27 2 53.5t6 47.5h446q2 -18 3.5 -37t1.5 -41q0 -17 -1 -38.5t-4 -56.5l-279 -432h285q4 -23 5.5 -50.5t1.5 -56.5q0 -30 -1.5 -57.5t-5.5 -48.5h-476zM278 1040h146l-128 -191h-91z" />
    <glyph glyph-name="Zdotaccent" unicode="&#x17b;" horiz-adv-x="506" 
d="M12 0q-8 43 -8 93q0 31 3 58t8 54l279 434h-260q-3 17 -4.5 37t-1.5 41q0 27 2 53.5t6 47.5h446q2 -18 3.5 -37t1.5 -41q0 -17 -1 -38.5t-4 -56.5l-279 -432h285q4 -23 5.5 -50.5t1.5 -56.5q0 -30 -1.5 -57.5t-5.5 -48.5h-476zM182 939q0 44 27.5 65.5t60.5 21.5
q37 0 60.5 -23.5t23.5 -60.5q0 -41 -26.5 -64.5t-61.5 -23.5q-16 0 -31 5.5t-27 16t-19 26.5t-7 37z" />
    <glyph glyph-name="Zcaron" unicode="&#x17d;" horiz-adv-x="506" 
d="M12 0q-8 43 -8 93q0 31 3 58t8 54l279 434h-260q-3 17 -4.5 37t-1.5 41q0 27 2 53.5t6 47.5h446q2 -18 3.5 -37t1.5 -41q0 -17 -1 -38.5t-4 -56.5l-279 -432h285q4 -23 5.5 -50.5t1.5 -56.5q0 -30 -1.5 -57.5t-5.5 -48.5h-476zM97 977l30 68l141 -69l141 69l30 -68
l-171 -114z" />
    <glyph glyph-name="Aringacute" unicode="&#x1fa;" horiz-adv-x="534" 
d="M267 910q48 0 72.5 -27.5t24.5 -64.5h27l147 -818h-169l-25 164h-154l-24 -164h-170l148 818h24q0 37 25.5 64.5t73.5 27.5zM217 343h100l-50 330zM254 1045h107l-54 -116h-75zM267 767q23 0 36.5 14t13.5 37t-13.5 36.5t-36.5 13.5t-37.5 -13.5t-14.5 -36.5t14.5 -37
t37.5 -14z" />
    <glyph glyph-name="uni01C4" unicode="&#x1c4;" horiz-adv-x="1152" 
d="M24 815q57 8 109 11.5t89 3.5q88 0 162 -24t130 -86q51 -58 76 -140.5t25 -177.5q0 -93 -24 -169t-73.5 -130t-124.5 -84t-177 -30q-23 0 -74.5 2t-113.5 9q1 46 1.5 89.5t1 86t0.5 85.5v89q0 131 -1.5 251t-5.5 214zM218 664q-10 0 -18.5 -1t-16.5 -2q-1 -47 -1 -93.5
v-93.5q0 -23 0.5 -49t1 -53.5t1.5 -55t1 -51.5q9 -2 18 -2.5t16 -0.5q37 0 68.5 16t55 43.5t36.5 64.5t13 79q0 31 -8.5 66.5t-29 64.5t-54 48.5t-83.5 19.5zM659 0q-8 43 -8 93q0 31 3 58t8 54l279 434h-260q-3 17 -4.5 37t-1.5 41q0 27 2 53.5t6 47.5h446q2 -18 3.5 -37
t1.5 -41q0 -17 -1 -38.5t-4 -56.5l-279 -432h285q4 -23 5.5 -50.5t1.5 -56.5q0 -30 -1.5 -57.5t-5.5 -48.5h-476zM744 977l30 68l141 -69l141 69l30 -68l-171 -114z" />
    <glyph glyph-name="uni01C5" unicode="&#x1c5;" horiz-adv-x="1086" 
d="M24 815q57 8 109 11.5t89 3.5q88 0 162 -24t130 -86q51 -58 76 -140.5t25 -177.5q0 -93 -24 -169t-73.5 -130t-124.5 -84t-177 -30q-23 0 -74.5 2t-113.5 9q1 46 1.5 89.5t1 86t0.5 85.5v89q0 131 -1.5 251t-5.5 214zM218 664q-10 0 -18.5 -1t-16.5 -2q-1 -47 -1 -93.5
v-93.5q0 -23 0.5 -49t1 -53.5t1.5 -55t1 -51.5q9 -2 18 -2.5t16 -0.5q37 0 68.5 16t55 43.5t36.5 64.5t13 79q0 31 -8.5 66.5t-29 64.5t-54 48.5t-83.5 19.5zM663 0q-5 20 -6.5 44t-1.5 49q0 31 2.5 58t7.5 54l211 192h-193q-3 20 -5 45.5t-2 54.5q0 28 2 54t5 47h378
q2 -18 3.5 -37t1.5 -42q0 -16 -1 -38t-4 -56l-240 -212h243q3 -23 5 -50.5t2 -56.5q0 -30 -2 -57.5t-5 -48.5h-401zM716 778l30 68l141 -69l141 69l30 -68l-171 -114z" />
    <glyph glyph-name="Tbar" unicode="&#x166;" horiz-adv-x="431" 
d="M414 633h-118v-144h108v-92h-108v-397h-168q1 39 1.5 82t1.5 91t1.5 103.5t0.5 120.5h-106v92h105v144h-115v185h397v-185z" />
    <glyph glyph-name="Hbar" unicode="&#x126;" horiz-adv-x="539" 
d="M509 818q-3 -47 -3 -89h38v-82h-40q-2 -70 -2.5 -138.5t-0.5 -148.5q0 -74 0.5 -161t1.5 -199h-166q2 60 3 125.5t2 149.5h-148q0 -59 0.5 -126.5t1.5 -148.5h-166q1 44 2 90t2 99t1 116v140q0 66 -0.5 113.5t-0.5 88.5h-38v82h38v89h168q-2 -23 -2 -45.5t-1 -43.5h142
v89h168zM342 522q0 36 -0.5 66.5t-0.5 58.5h-145q-1 -32 -1.5 -62.5t-0.5 -62.5h148z" />
    <glyph glyph-name="Lacute" unicode="&#x139;" horiz-adv-x="366" 
d="M200 818q-3 -137 -4.5 -226t-2.5 -149.5t-1 -101.5v-83l157 6q2 -33 3 -65t1 -64q0 -33 -1 -66.5t-3 -68.5h-323q3 140 4.5 287t1.5 287v126t-1 118h169zM124 1040h146l-128 -191h-91z" />
    <glyph glyph-name="Lcaron" unicode="&#x13d;" horiz-adv-x="371" 
d="M200 818q-3 -137 -4.5 -226t-2.5 -149.5t-1 -101.5v-83l157 6q2 -33 3 -65t1 -64q0 -33 -1 -66.5t-3 -68.5h-323q3 140 4.5 287t1.5 287v126t-1 118h169zM281 841h104l-43 -201h-79z" />
    <glyph glyph-name="Lslash" unicode="&#x141;" horiz-adv-x="368" 
d="M201 818q-3 -53 -4 -130.5t-1 -160.5l104 35v-112l-106 -36v-156l157 6q2 -33 3 -65t1 -64q0 -33 -1 -66.5t-3 -68.5h-323q2 87 3 178l2 182l-29 -10v112l30 10v122.5v92.5t-0.5 71t-0.5 60h168z" />
    <glyph glyph-name="Ldot" unicode="&#x13f;" horiz-adv-x="442" 
d="M200 818q-3 -137 -4.5 -226t-2.5 -149.5t-1 -101.5v-83l157 6q2 -33 3 -65t1 -64q0 -33 -1 -66.5t-3 -68.5h-323q3 140 4.5 287t1.5 287v126t-1 118h169zM341 564q25 0 44.5 -10t33 -25.5t20.5 -34t7 -35.5q0 -22 -8.5 -42t-23 -35t-34 -24t-40.5 -9q-27 0 -47 8.5
t-33 23t-19.5 32.5t-6.5 37q0 20 7 40.5t20.5 37t33.5 26.5t46 10z" />
    <glyph glyph-name="Oslash" unicode="&#xd8;" horiz-adv-x="617" 
d="M309 830q60 0 107 -17.5t82 -51.5l38 57h96l-85 -126q53 -100 53 -276q0 -205 -69.5 -316t-221.5 -111q-60 0 -106.5 17.5t-81.5 51.5l-39 -58h-96l86 128q-28 54 -41 125.5t-13 162.5q0 205 71 309.5t220 104.5zM181 441q0 -71 21 -119l189 281q-32 38 -82 38
q-32 0 -55.5 -15.5t-40 -42.5t-24.5 -63.5t-8 -78.5zM309 247q32 0 56.5 14.5t40.5 40t24 61t8 78.5q0 40 -8 77l-174 -259q24 -12 53 -12z" />
    <glyph glyph-name="Oslashacute" unicode="&#x1fe;" horiz-adv-x="617" 
d="M309 830q60 0 107 -17.5t82 -51.5l38 57h96l-85 -126q53 -100 53 -276q0 -205 -69.5 -316t-221.5 -111q-60 0 -106.5 17.5t-81.5 51.5l-39 -58h-96l86 128q-28 54 -41 125.5t-13 162.5q0 205 71 309.5t220 104.5zM181 441q0 -71 21 -119l189 281q-32 38 -82 38
q-32 0 -55.5 -15.5t-40 -42.5t-24.5 -63.5t-8 -78.5zM319 1040h146l-128 -191h-91zM309 247q32 0 56.5 14.5t40.5 40t24 61t8 78.5q0 40 -8 77l-174 -259q24 -12 53 -12z" />
    <glyph glyph-name="iacute" unicode="&#xed;" horiz-adv-x="199" 
d="M26 582h147v-582h-147v582zM112 841h146l-128 -191h-91z" />
    <glyph glyph-name="idieresis" unicode="&#xef;" horiz-adv-x="199" 
d="M-54 740q0 39 20.5 56t43.5 17q32 0 50.5 -21t18.5 -52q0 -32 -19.5 -52.5t-48.5 -20.5q-11 0 -22 4t-21 12.5t-16 22.5t-6 34zM125 741q0 38 20 55t43 17q32 0 51 -21t19 -52q0 -32 -19.5 -52.5t-48.5 -20.5q-11 0 -22 4t-21 12.5t-16 22.5t-6 35zM26 582h147v-582h-147
v582z" />
    <glyph glyph-name="icircumflex" unicode="&#xee;" horiz-adv-x="199" 
d="M102 846l151 -113l-30 -68l-121 68l-121 -68l-30 68zM26 582h147v-582h-147v582z" />
    <glyph glyph-name="itilde" unicode="&#x129;" horiz-adv-x="199" 
d="M-33 790q18 15 34 21.5t30 6.5q19 0 36 -9t32 -19.5t30 -19.5t32 -9q15 0 33 10.5t38 36.5v-108q-20 -22 -38 -30.5t-33 -8.5q-19 0 -35.5 9t-32 20t-31 20t-31.5 9q-15 0 -30.5 -8.5t-33.5 -30.5v110zM26 582h147v-582h-147v582z" />
    <glyph glyph-name="imacron" unicode="&#x12b;" horiz-adv-x="199" 
d="M207 796v-94h-215v94h215zM26 582h147v-582h-147v582z" />
    <glyph glyph-name="ibreve" unicode="&#x12d;" horiz-adv-x="199" 
d="M26 582h147v-582h-147v582zM248 817q0 -35 -12.5 -62t-32.5 -45t-46.5 -27.5t-54.5 -9.5q-29 0 -55 9.5t-46 27.5t-32.5 45t-12.5 62h69q2 -38 23.5 -61t53.5 -23t53.5 23t23.5 61h69z" />
    <glyph glyph-name="jcircumflex" unicode="&#x135;" horiz-adv-x="188" 
d="M94 846l151 -113l-30 -68l-121 68l-121 -68l-30 68zM162 -3q0 -38 -2 -68.5t-11 -54.5q-25 -66 -114 -66q-8 0 -20 0.5t-24.5 1.5t-24 2.5t-18.5 3.5q-4 14 -5 29t-1 27q0 21 2 42t6 37q6 -2 17.5 -3t18.5 -1q25 0 32.5 13.5t7.5 54.5v567h136v-585z" />
    <glyph glyph-name="igrave" unicode="&#xec;" horiz-adv-x="199" 
d="M26 582h147v-582h-147v582zM155 650h-91l-128 191h146z" />
    <glyph glyph-name="iogonek" unicode="&#x12f;" horiz-adv-x="199" 
d="M26 582h147v-582h-20q-30 -28 -49.5 -59.5t-19.5 -51.5q0 -21 22 -21q14 0 34 4t39 12l7 -67q-63 -22 -106 -22q-40 0 -63 19t-23 51q0 29 19.5 64.5t54.5 70.5h-42v582zM103 830q24 0 43.5 -9.5t32.5 -24.5t20 -33.5t7 -35.5q0 -23 -8.5 -42.5t-23 -34t-33 -23
t-39.5 -8.5q-26 0 -46 8.5t-33.5 22t-20 31.5t-6.5 37t7.5 39t21 36.5t33.5 26.5t45 10z" />
    <glyph glyph-name="eogonek" unicode="&#x119;" horiz-adv-x="522" 
d="M395 -183q-63 -22 -106 -22q-40 0 -63 19t-23 51q0 27 16.5 60t48.5 67q-34 4 -68 14t-66 31q-38 25 -62.5 58.5t-38.5 69t-19 69.5t-5 61q0 40 9.5 83.5t29.5 83t51 72.5t73 52q51 23 108 23q60 0 108 -24t78 -66q29 -40 36.5 -89t7.5 -115h-280q13 -43 43 -70t83 -27
q16 0 34.5 2.5t36.5 7t34 10t28 10.5q2 -29 2.5 -61.5t0.5 -64.5q0 -53 -3 -95q-61 -30 -137 -36q-26 -26 -42.5 -54.5t-16.5 -47.5q0 -21 22 -21q14 0 34 4t39 12zM287 501q-21 0 -40 -17.5t-25 -61.5h131q-4 40 -23.5 59.5t-42.5 19.5z" />
    <glyph glyph-name="aogonek" unicode="&#x105;" 
d="M542 -183q-63 -22 -106 -22q-40 0 -63 19t-23 51q0 29 19.5 64.5t54.5 70.5h-52v49q-36 -29 -76 -44.5t-78 -15.5q-45 0 -83 22t-65.5 61.5t-43.5 94.5t-16 120q0 68 17 127t46.5 102.5t70 68t87.5 24.5q41 0 78 -17.5t63 -43.5v50h142v-598q-15 -14 -28.5 -29t-23.5 -30
t-16 -28.5t-6 -23.5q0 -21 22 -21q14 0 34 4t39 12zM201 361q0 -41 22.5 -66t57.5 -25q38 0 64.5 27t26.5 69q0 19 -6.5 36t-18.5 29.5t-28 19.5t-34 7q-36 0 -60 -27t-24 -70z" />
    <glyph glyph-name="uogonek" unicode="&#x173;" horiz-adv-x="459" 
d="M466 -183q-63 -22 -106 -22q-40 0 -63 19t-23 51q0 29 19.5 64.5t54.5 70.5h-60v53q-24 -29 -58 -46.5t-69 -17.5q-22 0 -42.5 6.5t-37.5 17.5t-29.5 26.5t-18.5 33.5q-4 14 -6.5 40.5t-2.5 56.5v428h147v-300q0 -30 14 -47.5t38 -17.5q12 0 24.5 5t22 13t15.5 19t6 23
v305h147q-1 -33 -2 -69.5l-2 -73t-1.5 -72.5t-0.5 -68v-57t0.5 -83t0.5 -92v-83q-30 -28 -49.5 -59.5t-19.5 -51.5q0 -21 22 -21q14 0 34 4t39 12z" />
    <glyph glyph-name="oogonek" unicode="&#x1eb;" horiz-adv-x="480" 
d="M333 -183q-63 -22 -106 -22q-40 0 -63 19t-23 51q0 27 16.5 60t48.5 66q-52 6 -88.5 28.5t-60 61.5t-34 93.5t-10.5 124.5q0 150 52.5 230t175.5 80q122 0 174.5 -80t52.5 -230q0 -134 -41 -211.5t-134 -93.5q-28 -27 -45 -56t-17 -49q0 -21 22 -21q14 0 34 4t39 12z
M241 224q20 0 35.5 8t25.5 21t15 29.5t5 34.5t-5 35t-15 30t-25.5 21t-35.5 8q-41 0 -61.5 -29t-20.5 -65q0 -18 5 -34.5t15.5 -29.5t25.5 -21t36 -8z" />
    <glyph glyph-name="Eogonek" unicode="&#x118;" horiz-adv-x="415" 
d="M318 -183q-63 -22 -106 -22q-40 0 -63 19t-23 51q0 29 19 64.5t54 70.5h-171q1 21 1.5 56t0.5 80v97.5v108.5q0 76 -0.5 152t-0.5 141.5t-0.5 113.5t-0.5 68h86t96 0.5t96 1.5t88 2q0 -13 0.5 -22.5t0.5 -26.5q0 -12 -0.5 -28.5t-1 -34l-1 -35t-1.5 -32.5h-201v-116h175
v-149h-175v-112h204q1 -23 2 -46.5t1.5 -53.5t0.5 -70v-96h-114q-30 -28 -49 -59t-19 -51q0 -21 22 -21q14 0 34 4t39 12z" />
    <glyph glyph-name="Iogonek" unicode="&#x12e;" horiz-adv-x="355" 
d="M271 -183q-63 -22 -106 -22q-40 0 -63 19t-23 51q0 29 19.5 64.5t54.5 70.5h-129q-1 35 -2 70.5t-1 70.5q0 36 1 71t2 71h75v162q0 64 -0.5 109t-0.5 83h-74q-1 23 -2 45t-1 45t1 46t2 45h308q1 -23 1 -45.5v-45.5v-45t-1 -45h-73q-2 -67 -2.5 -132t-0.5 -145v-77h76
q1 -36 1 -71v-71v-70.5t-1 -70.5h-94q-30 -28 -49.5 -59.5t-19.5 -51.5q0 -21 22 -21q14 0 34 4t39 12z" />
    <glyph glyph-name="Aogonek" unicode="&#x104;" horiz-adv-x="534" 
d="M532 -183q-63 -22 -106 -22q-40 0 -63 19t-23 51q0 29 19 64.5t54 70.5h-44l-25 164h-154l-24 -164h-170l148 818h247l147 -818h-40q-30 -28 -49 -59.5t-19 -51.5q0 -21 22 -21q14 0 34 4t39 12zM217 343h100l-50 330z" />
    <glyph glyph-name="Uogonek" unicode="&#x172;" horiz-adv-x="597" 
d="M392 -183q-63 -22 -106 -22q-40 0 -63 19t-23 51q0 27 16.5 60t47.5 66q-83 7 -131.5 44t-73.5 92.5t-32 123t-7 133.5q0 37 1 79t3 94t4.5 116t5.5 145h176q-3 -90 -5 -152.5t-3.5 -104.5t-2 -66.5t-1 -37.5t-0.5 -18.5v-8.5q0 -97 22 -146t79 -49q58 0 78.5 53
t20.5 161v11.5t-0.5 20.5t-1 37.5t-2 63t-3.5 97t-5 139.5h180q2 -146 6 -252t4 -181q0 -68 -7 -134.5t-30 -120.5t-67.5 -91t-120.5 -46q-27 -27 -44 -56t-17 -48q0 -21 22 -21q14 0 34 4t39 12z" />
    <glyph glyph-name="Oogonek" unicode="&#x1ea;" horiz-adv-x="608" 
d="M397 -183q-63 -22 -106 -22q-40 0 -63 19t-23 51q0 27 16.5 60t47.5 66q-133 12 -194.5 122t-61.5 303q0 205 71 309.5t220 104.5t220 -106t71 -308q0 -187 -57 -295.5t-182 -127.5q-27 -26 -44 -55t-17 -49q0 -21 22 -21q14 0 34 4t39 12zM304 247q32 0 56.5 14.5
t40.5 40t24 61t8 78.5t-8 79.5t-24 63.5t-40.5 42t-56.5 15t-55.5 -15.5t-40 -42.5t-24.5 -63.5t-8 -78.5q0 -43 8 -78.5t24.5 -61t40 -40t55.5 -14.5z" />
    <glyph glyph-name="idotbelow" unicode="&#x1ecb;" horiz-adv-x="199" 
d="M26 582h147v-582h-147v582zM103 830q24 0 43.5 -9.5t32.5 -24.5t20 -33.5t7 -35.5q0 -23 -8.5 -42.5t-23 -34t-33 -23t-39.5 -8.5q-26 0 -46 8.5t-33.5 22t-20 31.5t-6.5 37t7.5 39t21 36.5t33.5 26.5t45 10zM94 -52q36 0 55.5 -24t19.5 -53t-19.5 -52.5t-55.5 -23.5
t-55.5 23.5t-19.5 52.5t19.5 53t55.5 24z" />
    <glyph glyph-name="hdotbelow" unicode="&#x1e25;" horiz-adv-x="459" 
d="M181 841q-3 -56 -5 -97.5t-3 -76t-1.5 -64t-0.5 -59.5q24 30 58 47.5t69 17.5q22 0 42.5 -6.5t37.5 -17.5t29.5 -26.5t18.5 -33.5q4 -14 6.5 -40.5t2.5 -57.5v-427h-147v300q0 30 -14.5 47.5t-38.5 17.5q-25 0 -44.5 -16t-19.5 -39v-310h-147q2 133 2 284.5v325.5v90.5
v61.5t-0.5 43t-0.5 36h156zM233 -52q36 0 55.5 -24t19.5 -53t-19.5 -52.5t-55.5 -23.5t-55.5 23.5t-19.5 52.5t19.5 53t55.5 24z" />
    <glyph glyph-name="edotbelow" unicode="&#x1eb9;" horiz-adv-x="522" 
d="M230 315q13 -43 43 -70t83 -27q16 0 34.5 2.5t36.5 7t34 10t28 10.5q2 -29 2.5 -61.5t0.5 -64.5q0 -53 -3 -95q-78 -38 -175 -38q-45 0 -91 10t-89 38q-38 25 -62.5 58.5t-38.5 69t-19 69.5t-5 61q0 40 9.5 83.5t29.5 83t51 72.5t73 52q51 23 108 23q60 0 108 -24t78 -66
q29 -40 36.5 -89t7.5 -115h-280zM287 501q-21 0 -40 -17.5t-25 -61.5h131q-4 40 -23.5 59.5t-42.5 19.5zM303 -52q36 0 55.5 -24t19.5 -53t-19.5 -52.5t-55.5 -23.5t-55.5 23.5t-19.5 52.5t19.5 53t55.5 24z" />
    <glyph glyph-name="tdotbelow" unicode="&#x1e6d;" horiz-adv-x="303" 
d="M75 714h137v-116h77v-266h-79v-140q0 -41 7 -54.5t32 -13.5q7 0 19 1t18 3q2 -7 2 -28.5v-43.5v-34.5t-1 -21.5q-12 -2 -26.5 -3.5t-28 -2.5t-25 -1.5t-18.5 -0.5q-36 0 -59 14t-36 37.5t-18 53t-5 60.5q0 12 0.5 35.5t1 49.5t1.5 50.5t1 39.5h-60v266h60v116zM181 -52
q36 0 55.5 -24t19.5 -53t-19.5 -52.5t-55.5 -23.5t-55.5 23.5t-19.5 52.5t19.5 53t55.5 24z" />
    <glyph glyph-name="rdotbelow" unicode="&#x1e5b;" horiz-adv-x="314" 
d="M152 598l7 -76q12 19 29 35t35.5 27.5t37 18t34.5 6.5q2 -26 3.5 -59.5t1.5 -68.5q0 -40 -1.5 -79t-3.5 -72q-9 4 -25 6t-27 2q-37 0 -54.5 -17.5t-17.5 -43.5v-277h-147q1 162 1.5 307.5t0.5 290.5h126zM110 -52q36 0 55.5 -24t19.5 -53t-19.5 -52.5t-55.5 -23.5
t-55.5 23.5t-19.5 52.5t19.5 53t55.5 24z" />
    <glyph glyph-name="sdotbelow" unicode="&#x1e63;" horiz-adv-x="383" 
d="M82 561q34 27 73 37.5t79 10.5q29 0 57.5 -5t54.5 -13q2 -61 2.5 -99.5t0.5 -59.5q0 -30 -1 -42.5t-2 -23.5q-2 0 -10 2t-19 4t-23.5 3.5t-24.5 1.5q-18 0 -30.5 -4.5t-12.5 -17.5q0 -11 8 -20.5t19.5 -19t25 -18t25.5 -15.5q27 -18 50.5 -48.5t23.5 -80.5
q0 -44 -19.5 -75t-49.5 -51t-67.5 -29t-73.5 -9q-14 0 -32 1t-36.5 4t-36.5 7.5t-33 11.5q-5 17 -7 36.5t-2 38.5q0 9 0.5 22t1.5 26.5t3 26.5t4 22q11 -5 25.5 -10.5t30.5 -10.5t31.5 -8.5t29.5 -3.5q20 0 31 8t11 22q0 12 -7 21.5t-17 18t-22 15t-22 11.5q-19 10 -39 22
t-36 29.5t-26 42.5t-10 61q0 42 16.5 84t55.5 74zM185 -52q36 0 55.5 -24t19.5 -53t-19.5 -52.5t-55.5 -23.5t-55.5 23.5t-19.5 52.5t19.5 53t55.5 24z" />
    <glyph glyph-name="ddotbelow" unicode="&#x1e0d;" 
d="M509 0h-137v49q-36 -29 -76 -44.5t-78 -15.5q-45 0 -83 22t-65.5 61.5t-43.5 94.5t-16 120q0 68 17 127t46.5 102.5t70 68t87.5 24.5q41 0 78 -17.5t63 -43.5v293h142zM201 361q0 -41 22.5 -66t57.5 -25q38 0 64.5 27t26.5 69q0 19 -6.5 36t-18.5 29.5t-28 19.5t-34 7
q-36 0 -60 -27t-24 -70zM284 -52q36 0 55.5 -24t19.5 -53t-19.5 -52.5t-55.5 -23.5t-55.5 23.5t-19.5 52.5t19.5 53t55.5 24z" />
    <glyph glyph-name="udotbelow" unicode="&#x1ee5;" horiz-adv-x="459" 
d="M288 0v53q-24 -29 -58 -46.5t-69 -17.5q-22 0 -42.5 6.5t-37.5 17.5t-29.5 26.5t-18.5 33.5q-4 14 -6.5 40.5t-2.5 56.5v428h147v-300q0 -30 14 -47.5t38 -17.5q12 0 24.5 5t22 13t15.5 19t6 23v305h147q-1 -33 -2 -69.5l-2 -73t-1.5 -72.5t-0.5 -68v-57t0.5 -83t0.5 -92
v-83h-145zM236 -52q36 0 55.5 -24t19.5 -53t-19.5 -52.5t-55.5 -23.5t-55.5 23.5t-19.5 52.5t19.5 53t55.5 24z" />
    <glyph glyph-name="odotbelow" unicode="&#x1ecd;" horiz-adv-x="479" 
d="M240 609q122 0 174.5 -80t52.5 -230q0 -151 -52.5 -230.5t-174.5 -79.5q-123 0 -175.5 79.5t-52.5 230.5q0 150 52.5 230t175.5 80zM240 224q20 0 35.5 8t25.5 21t15 29.5t5 34.5t-5 35t-15 30t-25.5 21t-35.5 8q-41 0 -61.5 -29t-20.5 -65q0 -18 5 -34.5t15.5 -29.5
t25.5 -21t36 -8zM240 -52q36 0 55.5 -24t19.5 -53t-19.5 -52.5t-55.5 -23.5t-55.5 23.5t-19.5 52.5t19.5 53t55.5 24z" />
    <glyph glyph-name="zdotbelow" unicode="&#x1e93;" horiz-adv-x="440" 
d="M17 0q-5 20 -6.5 44t-1.5 49q0 31 2.5 58t7.5 54l211 192h-193q-3 20 -5 45.5t-2 54.5q0 28 2 54t5 47h378q2 -18 3.5 -37t1.5 -42q0 -16 -1 -38t-4 -56l-240 -212h243q3 -23 5 -50.5t2 -56.5q0 -30 -2 -57.5t-5 -48.5h-401zM217 -52q36 0 55.5 -24t19.5 -53t-19.5 -52.5
t-55.5 -23.5t-55.5 23.5t-19.5 52.5t19.5 53t55.5 24z" />
    <glyph glyph-name="Ddotbelow" unicode="&#x1e0c;" horiz-adv-x="625" 
d="M24 815q57 8 109 11.5t89 3.5q88 0 162 -24t130 -86q51 -58 76 -140.5t25 -177.5q0 -93 -24 -169t-73.5 -130t-124.5 -84t-177 -30q-23 0 -74.5 2t-113.5 9q1 46 1.5 89.5t1 86t0.5 85.5v89q0 131 -1.5 251t-5.5 214zM218 664q-10 0 -18.5 -1t-16.5 -2q-1 -47 -1 -93.5
v-93.5q0 -23 0.5 -49t1 -53.5t1.5 -55t1 -51.5q9 -2 18 -2.5t16 -0.5q37 0 68.5 16t55 43.5t36.5 64.5t13 79q0 31 -8.5 66.5t-29 64.5t-54 48.5t-83.5 19.5zM233 -52q36 0 55.5 -24t19.5 -53t-19.5 -52.5t-55.5 -23.5t-55.5 23.5t-19.5 52.5t19.5 53t55.5 24z" />
    <glyph glyph-name="Edotbelow" unicode="&#x1eb8;" horiz-adv-x="415" 
d="M398 -3q-28 1 -74 1.5t-98.5 1t-105 0.5h-92.5q1 21 1.5 56t0.5 80v97.5v108.5q0 76 -0.5 152t-0.5 141.5t-0.5 113.5t-0.5 68h86t96 0.5t96 1.5t88 2q0 -13 0.5 -22.5t0.5 -26.5q0 -12 -0.5 -28.5t-1 -34l-1 -35t-1.5 -32.5h-201v-116h175v-149h-175v-112h204
q1 -23 2 -47t1.5 -54t0.5 -70.5v-96.5zM226 -52q36 0 55.5 -24t19.5 -53t-19.5 -52.5t-55.5 -23.5t-55.5 23.5t-19.5 52.5t19.5 53t55.5 24z" />
    <glyph glyph-name="Hdotbelow" unicode="&#x1e24;" horiz-adv-x="529" 
d="M506 818q-3 -63 -4.5 -119t-2.5 -110.5t-1.5 -110t-0.5 -118.5q0 -74 0.5 -161t1.5 -199h-166q2 60 3 125.5t2 149.5h-148q0 -59 0.5 -126.5t1.5 -148.5h-166q1 44 2 90t2 99t1 116v140v117.5t-0.5 90.5t-0.5 79.5v85.5h169q-4 -83 -6 -153.5t-3 -142.5h148v83.5t-0.5 72
t-0.5 68v72.5h169zM265 -52q36 0 55.5 -24t19.5 -53t-19.5 -52.5t-55.5 -23.5t-55.5 23.5t-19.5 52.5t19.5 53t55.5 24z" />
    <glyph glyph-name="Idotbelow" unicode="&#x1eca;" horiz-adv-x="355" 
d="M99 283v162q0 64 -0.5 109t-0.5 83h-74q-1 23 -2 45t-1 45t1 46t2 45h308q1 -23 1 -45.5v-45.5v-45t-1 -45h-73q-2 -67 -2.5 -132t-0.5 -145v-77h76q1 -36 1 -71v-71v-70.5t-1 -70.5h-308q-1 35 -2 70.5t-1 70.5q0 36 1 71t2 71h75zM179 -52q36 0 55.5 -24t19.5 -53
t-19.5 -52.5t-55.5 -23.5t-55.5 23.5t-19.5 52.5t19.5 53t55.5 24z" />
    <glyph glyph-name="Tdotbelow" unicode="&#x1e6c;" horiz-adv-x="419" 
d="M408 633h-115q-2 -89 -3 -180.5t-1 -197.5v-109.5v-68t0.5 -43t0.5 -34.5h-168q1 44 2 91.5t1.5 103t1 120t0.5 142.5v99t-1 77h-115v185h397v-185zM201 -52q36 0 55.5 -24t19.5 -53t-19.5 -52.5t-55.5 -23.5t-55.5 23.5t-19.5 52.5t19.5 53t55.5 24z" />
    <glyph glyph-name="Zdotbelow" unicode="&#x1e92;" horiz-adv-x="506" 
d="M12 0q-8 43 -8 93q0 31 3 58t8 54l279 434h-260q-3 17 -4.5 37t-1.5 41q0 27 2 53.5t6 47.5h446q2 -18 3.5 -37t1.5 -41q0 -17 -1 -38.5t-4 -56.5l-279 -432h285q4 -23 5.5 -50.5t1.5 -56.5q0 -30 -1.5 -57.5t-5.5 -48.5h-476zM242 -52q36 0 55.5 -24t19.5 -53
t-19.5 -52.5t-55.5 -23.5t-55.5 23.5t-19.5 52.5t19.5 53t55.5 24z" />
    <glyph glyph-name="Udotbelow" unicode="&#x1ee4;" horiz-adv-x="597" 
d="M566 819q2 -146 6 -252.5t4 -181.5q0 -49 -3 -97.5t-13 -92.5t-28.5 -81.5t-49 -65.5t-75.5 -43.5t-107 -15.5q-64 0 -109.5 16.5t-76.5 44.5t-49.5 66.5t-28.5 82.5t-13 91t-3 94q0 37 1 79t3 94t4.5 116t5.5 145h176q-3 -90 -5 -152.5t-3.5 -104.5t-2 -66.5t-1 -37.5
t-0.5 -18.5v-8.5q0 -97 22 -146t79 -49q58 0 78.5 53t20.5 161v11.5t-0.5 20.5t-1 37.5t-2 63t-3.5 97t-5 139.5zM300 -52q36 0 55.5 -24t19.5 -53t-19.5 -52.5t-55.5 -23.5t-55.5 23.5t-19.5 52.5t19.5 53t55.5 24z" />
    <glyph glyph-name="Odotbelow" unicode="&#x1ecc;" horiz-adv-x="608" 
d="M304 830q149 0 220 -106t71 -308q0 -205 -69.5 -316t-221.5 -111q-75 0 -130 28.5t-91 83t-53 134t-17 181.5q0 205 71 309.5t220 104.5zM304 247q32 0 56.5 14.5t40.5 40t24 61t8 78.5t-8 79.5t-24 63.5t-40.5 42t-56.5 15t-55.5 -15.5t-40 -42.5t-24.5 -63.5t-8 -78.5
q0 -43 8 -78.5t24.5 -61t40 -40t55.5 -14.5zM305 -52q36 0 55.5 -24t19.5 -53t-19.5 -52.5t-55.5 -23.5t-55.5 23.5t-19.5 52.5t19.5 53t55.5 24z" />
    <glyph glyph-name="Sdotbelow" unicode="&#x1e62;" horiz-adv-x="460" 
d="M17 615q0 64 24.5 105.5t62 66t83 34t87.5 9.5q12 0 30.5 -1t39 -3t42 -5.5t40.5 -9.5q2 -26 3 -48.5t1 -51.5t-1 -55.5t-3 -50.5q-8 1 -20.5 3t-26 3l-27 2t-25.5 1q-48 0 -70 -15t-22 -41q0 -15 7 -28.5t18.5 -25.5t26 -23t29.5 -21q24 -17 48.5 -37.5t44.5 -49t33 -66
t13 -86.5q0 -64 -22 -108t-56.5 -71.5t-77 -40t-84.5 -12.5q-19 0 -46.5 2.5t-55.5 7t-53 11t-40 15.5q-4 18 -6.5 37t-2.5 42q0 16 1.5 39t3.5 47t4.5 46t4.5 37q11 -6 32 -13.5t45.5 -14.5t49.5 -12t44 -5q32 0 48 13.5t16 36.5q0 25 -18 44.5t-45 38.5t-58.5 40.5
t-58.5 50.5t-45 68.5t-18 94.5zM216 -52q36 0 55.5 -24t19.5 -53t-19.5 -52.5t-55.5 -23.5t-55.5 23.5t-19.5 52.5t19.5 53t55.5 24z" />
    <glyph glyph-name="Rdotbelow" unicode="&#x1e5a;" horiz-adv-x="589" 
d="M27 0q3 95 4 189.5t1 179.5q0 121 -1.5 230t-3.5 219q49 5 98.5 8.5t100.5 3.5q73 0 137 -10.5t111 -39t74.5 -78.5t27.5 -129q0 -98 -40.5 -154t-109.5 -84l163 -335h-178l-133 305q-41 -3 -85 -3q0 -77 1 -151t6 -151h-173zM193 454q31 -3 57 -3q68 0 96.5 25.5
t28.5 76.5q0 31 -8.5 50t-23 30t-34 15t-41.5 4q-16 0 -35.5 -1.5t-39.5 -4.5v-192zM296 -52q36 0 55.5 -24t19.5 -53t-19.5 -52.5t-55.5 -23.5t-55.5 23.5t-19.5 52.5t19.5 53t55.5 24z" />
    <glyph glyph-name="ccedilla" unicode="&#xe7;" horiz-adv-x="430" 
d="M301 609q59 0 107 -17q0 -17 0.5 -36.5t0.5 -39.5q0 -21 -0.5 -42t-0.5 -39q-33 28 -81 28q-30 0 -50 -9.5t-32.5 -24.5t-17.5 -32.5t-5 -33.5q0 -22 8 -41.5t22 -34.5t32.5 -23.5t39.5 -8.5q20 0 42 8t42 22q0 -33 0.5 -68.5t0.5 -71.5q0 -35 -0.5 -71.5t-0.5 -72.5
q-56 -12 -111 -12q-68 0 -121 21.5t-90 61.5t-56.5 97.5t-19.5 128.5q0 67 18 124.5t54.5 98.5t91 64.5t127.5 23.5zM352 -54l-60 -151h-96l24 150z" />
    <glyph glyph-name="Ccedilla" unicode="&#xc7;" horiz-adv-x="516" 
d="M387 830q36 0 62.5 -4.5t49.5 -12.5q0 -17 0.5 -36t0.5 -41t-0.5 -46.5t-0.5 -45.5q-38 24 -91 24q-50 0 -83.5 -18.5t-54 -47.5t-29 -63.5t-8.5 -65.5q0 -42 13 -79t36.5 -64.5t55 -43.5t68.5 -16q17 0 43.5 5t49.5 19q0 -35 0.5 -73t0.5 -74q0 -38 -0.5 -74t-0.5 -72
q-56 -12 -114 -12q-88 0 -157.5 29t-118 83.5t-74 132t-25.5 173.5q0 92 24 169.5t71.5 134t118 88t163.5 31.5zM428 -54l-60 -151h-96l24 150z" />
    <glyph glyph-name="ncommaaccent" unicode="&#x146;" horiz-adv-x="457" 
d="M170 598v-54q24 30 58.5 47.5t70.5 17.5q44 0 78 -24t45 -57q5 -15 8.5 -41.5t3.5 -59.5v-427h-147v290q0 45 -16.5 60.5t-38.5 15.5q-29 0 -45.5 -18.5t-16.5 -47.5v-300h-145q0 33 0.5 69.5t0.5 73v72.5v68v57t-0.5 83t-0.5 92v83h145zM299 -55l-60 -150h-96l24 150
h132z" />
    <glyph glyph-name="rcommaaccent" unicode="&#x157;" horiz-adv-x="314" 
d="M152 598l7 -76q12 19 29 35t35.5 27.5t37 18t34.5 6.5q2 -26 3.5 -59.5t1.5 -68.5q0 -40 -1.5 -79t-3.5 -72q-9 4 -25 6t-27 2q-37 0 -54.5 -17.5t-17.5 -43.5v-277h-147q1 162 1.5 307.5t0.5 290.5h126zM181 -55l-60 -150h-96l24 150h132z" />
    <glyph glyph-name="lcommaaccent" unicode="&#x13c;" horiz-adv-x="198" 
d="M181 841q-5 -139 -7.5 -282t-2.5 -304v-109.5v-68t0.5 -43t0.5 -34.5h-150q3 88 4 206t1 274v115.5t-0.5 86.5t-0.5 75.5v83.5h155zM165 -55l-60 -150h-96l24 150h132z" />
    <glyph glyph-name="Lcommaaccent" unicode="&#x13b;" horiz-adv-x="366" 
d="M200 818q-3 -137 -4.5 -226t-2.5 -149.5t-1 -101.5v-83l157 6q2 -33 3 -65t1 -64q0 -33 -1 -66.5t-3 -68.5h-323q3 140 4.5 287t1.5 287v126t-1 118h169zM258 -55l-60 -150h-96l24 150h132z" />
    <glyph glyph-name="kcommaaccent" unicode="&#x137;" horiz-adv-x="482" 
d="M488 598l-160 -283l171 -315h-171l-139 250h-7v-57.5t0.5 -58.5t1.5 -63t2 -71h-165q5 123 6 275.5t1 334.5v99v62t-0.5 39t-1.5 31h170q-3 -92 -5 -165.5t-3.5 -133t-2.5 -107t-2 -87.5h7l138 250h160zM320 -55l-60 -150h-96l24 150h132z" />
    <glyph glyph-name="Gcommaaccent" unicode="&#x122;" horiz-adv-x="584" 
d="M565 455v-454q-54 -7 -95.5 -9.5t-68.5 -2.5q-92 0 -165 29t-123 83.5t-76.5 132t-26.5 173.5q0 92 25 169.5t74.5 134t124 88t172.5 31.5q42 0 72.5 -5.5t59.5 -14.5q0 -16 0.5 -35t0.5 -41t-0.5 -47t-0.5 -45q-49 26 -112 26q-55 0 -92 -18.5t-59.5 -47.5t-32 -64.5
t-9.5 -68.5q0 -38 11.5 -74t34.5 -64t57.5 -45t81.5 -17h9.5t9.5 1v185h128zM457 -55l-60 -150h-96l24 150h132z" />
    <glyph glyph-name="Ncommaaccent" unicode="&#x145;" horiz-adv-x="597" 
d="M426 818h143q-3 -204 -3 -409t3 -409h-193l-212 489v-489h-137q2 103 3 204.5t1 204.5t-1 204.5t-3 204.5h202l197 -488v488zM345 -55l-60 -150h-96l24 150h132z" />
    <glyph glyph-name="Rcommaaccent" unicode="&#x156;" horiz-adv-x="589" 
d="M27 0q3 95 4 189.5t1 179.5q0 121 -1.5 230t-3.5 219q49 5 98.5 8.5t100.5 3.5q73 0 137 -10.5t111 -39t74.5 -78.5t27.5 -129q0 -98 -40.5 -154t-109.5 -84l163 -335h-178l-133 305q-41 -3 -85 -3q0 -77 1 -151t6 -151h-173zM193 454q31 -3 57 -3q68 0 96.5 25.5
t28.5 76.5q0 31 -8.5 50t-23 30t-34 15t-41.5 4q-16 0 -35.5 -1.5t-39.5 -4.5v-192zM367 -55l-60 -150h-96l24 150h132z" />
    <glyph glyph-name="Kcommaaccent" unicode="&#x136;" horiz-adv-x="557" 
d="M209 818q-3 -60 -4.5 -106t-2.5 -88t-1.5 -86.5t-0.5 -101.5h4l178 383h186l-196 -399l208 -420h-187l-189 396h-4v-84t0.5 -98.5t1 -106t0.5 -107.5h-176q1 44 2 91.5t2 103t1 120v142.5v115.5t-0.5 86.5t-0.5 75.5v83.5h179zM346 -55l-60 -150h-96l24 150h132z" />
    <glyph glyph-name="uni021B" unicode="&#x21b;" horiz-adv-x="303" 
d="M75 714h137v-116h77v-266h-79v-140q0 -41 7 -54.5t32 -13.5q7 0 19 1t18 3q2 -7 2 -28.5v-43.5v-34.5t-1 -21.5q-12 -2 -26.5 -3.5t-28 -2.5t-25 -1.5t-18.5 -0.5q-36 0 -59 14t-36 37.5t-18 53t-5 60.5q0 12 0.5 35.5t1 49.5t1.5 50.5t1 39.5h-60v266h60v116zM252 -55
l-60 -150h-96l24 150h132z" />
    <glyph glyph-name="uni0219" unicode="&#x219;" horiz-adv-x="383" 
d="M82 561q34 27 73 37.5t79 10.5q29 0 57.5 -5t54.5 -13q2 -61 2.5 -99.5t0.5 -59.5q0 -30 -1 -42.5t-2 -23.5q-2 0 -10 2t-19 4t-23.5 3.5t-24.5 1.5q-18 0 -30.5 -4.5t-12.5 -17.5q0 -11 8 -20.5t19.5 -19t25 -18t25.5 -15.5q27 -18 50.5 -48.5t23.5 -80.5
q0 -44 -19.5 -75t-49.5 -51t-67.5 -29t-73.5 -9q-14 0 -32 1t-36.5 4t-36.5 7.5t-33 11.5q-5 17 -7 36.5t-2 38.5q0 9 0.5 22t1.5 26.5t3 26.5t4 22q11 -5 25.5 -10.5t30.5 -10.5t31.5 -8.5t29.5 -3.5q20 0 31 8t11 22q0 12 -7 21.5t-17 18t-22 15t-22 11.5q-19 10 -39 22
t-36 29.5t-26 42.5t-10 61q0 42 16.5 84t55.5 74zM256 -55l-60 -150h-96l24 150h132z" />
    <glyph glyph-name="uni021A" unicode="&#x21a;" horiz-adv-x="419" 
d="M408 633h-115q-2 -89 -3 -180.5t-1 -197.5v-109.5v-68t0.5 -43t0.5 -34.5h-168q1 44 2 91.5t1.5 103t1 120t0.5 142.5v99t-1 77h-115v185h397v-185zM272 -55l-60 -150h-96l24 150h132z" />
    <glyph glyph-name="uni0218" unicode="&#x218;" horiz-adv-x="460" 
d="M17 615q0 64 24.5 105.5t62 66t83 34t87.5 9.5q12 0 30.5 -1t39 -3t42 -5.5t40.5 -9.5q2 -26 3 -48.5t1 -51.5t-1 -55.5t-3 -50.5q-8 1 -20.5 3t-26 3l-27 2t-25.5 1q-48 0 -70 -15t-22 -41q0 -15 7 -28.5t18.5 -25.5t26 -23t29.5 -21q24 -17 48.5 -37.5t44.5 -49t33 -66
t13 -86.5q0 -64 -22 -108t-56.5 -71.5t-77 -40t-84.5 -12.5q-19 0 -46.5 2.5t-55.5 7t-53 11t-40 15.5q-4 18 -6.5 37t-2.5 42q0 16 1.5 39t3.5 47t4.5 46t4.5 37q11 -6 32 -13.5t45.5 -14.5t49.5 -12t44 -5q32 0 48 13.5t16 36.5q0 25 -18 44.5t-45 38.5t-58.5 40.5
t-58.5 50.5t-45 68.5t-18 94.5zM287 -55l-60 -150h-96l24 150h132z" />
    <glyph glyph-name="uni0163" unicode="&#x163;" horiz-adv-x="303" 
d="M75 714h137v-116h77v-266h-79v-140q0 -41 7 -54.5t32 -13.5q7 0 19 1t18 3q2 -7 2 -28.5v-43.5v-34.5t-1 -21.5q-12 -2 -26.5 -3.5t-28 -2.5t-25 -1.5t-18.5 -0.5q-36 0 -59 14t-36 37.5t-18 53t-5 60.5q0 12 0.5 35.5t1 49.5t1.5 50.5t1 39.5h-60v266h60v116zM259 -54
l-60 -151h-96l24 150z" />
    <glyph glyph-name="uni015F" unicode="&#x15f;" horiz-adv-x="383" 
d="M82 561q34 27 73 37.5t79 10.5q29 0 57.5 -5t54.5 -13q2 -61 2.5 -99.5t0.5 -59.5q0 -30 -1 -42.5t-2 -23.5q-2 0 -10 2t-19 4t-23.5 3.5t-24.5 1.5q-18 0 -30.5 -4.5t-12.5 -17.5q0 -11 8 -20.5t19.5 -19t25 -18t25.5 -15.5q27 -18 50.5 -48.5t23.5 -80.5
q0 -44 -19.5 -75t-49.5 -51t-67.5 -29t-73.5 -9q-14 0 -32 1t-36.5 4t-36.5 7.5t-33 11.5q-5 17 -7 36.5t-2 38.5q0 9 0.5 22t1.5 26.5t3 26.5t4 22q11 -5 25.5 -10.5t30.5 -10.5t31.5 -8.5t29.5 -3.5q20 0 31 8t11 22q0 12 -7 21.5t-17 18t-22 15t-22 11.5q-19 10 -39 22
t-36 29.5t-26 42.5t-10 61q0 42 16.5 84t55.5 74zM263 -54l-60 -151h-96l24 150z" />
    <glyph glyph-name="uni0162" unicode="&#x162;" horiz-adv-x="419" 
d="M408 633h-115q-2 -89 -3 -180.5t-1 -197.5v-109.5v-68t0.5 -43t0.5 -34.5h-168q1 44 2 91.5t1.5 103t1 120t0.5 142.5v99t-1 77h-115v185h397v-185zM279 -54l-60 -151h-96l24 150z" />
    <glyph glyph-name="uni015E" unicode="&#x15e;" horiz-adv-x="460" 
d="M17 615q0 64 24.5 105.5t62 66t83 34t87.5 9.5q12 0 30.5 -1t39 -3t42 -5.5t40.5 -9.5q2 -26 3 -48.5t1 -51.5t-1 -55.5t-3 -50.5q-8 1 -20.5 3t-26 3l-27 2t-25.5 1q-48 0 -70 -15t-22 -41q0 -15 7 -28.5t18.5 -25.5t26 -23t29.5 -21q24 -17 48.5 -37.5t44.5 -49t33 -66
t13 -86.5q0 -64 -22 -108t-56.5 -71.5t-77 -40t-84.5 -12.5q-19 0 -46.5 2.5t-55.5 7t-53 11t-40 15.5q-4 18 -6.5 37t-2.5 42q0 16 1.5 39t3.5 47t4.5 46t4.5 37q11 -6 32 -13.5t45.5 -14.5t49.5 -12t44 -5q32 0 48 13.5t16 36.5q0 25 -18 44.5t-45 38.5t-58.5 40.5
t-58.5 50.5t-45 68.5t-18 94.5zM294 -54l-60 -151h-96l24 150z" />
    <glyph glyph-name="percent" unicode="%" horiz-adv-x="661" 
d="M93 0l386 818h92l-386 -818h-92zM158 830q69 0 103.5 -53.5t34.5 -151.5q0 -100 -35.5 -154t-105.5 -54t-104.5 53.5t-34.5 149.5q0 103 37.5 156.5t104.5 53.5zM156 532q30 0 45.5 28t15.5 68t-15.5 65.5t-44.5 25.5t-45 -25.5t-16 -66.5q0 -39 15.5 -67t44.5 -28z
M506 402q69 0 103.5 -53.5t34.5 -151.5q0 -100 -35.5 -154t-105.5 -54t-104.5 53.5t-34.5 149.5q0 103 37.5 156.5t104.5 53.5zM504 104q30 0 45.5 28t15.5 68t-15.5 65.5t-44.5 25.5t-45 -25.5t-16 -66.5q0 -39 15.5 -67t44.5 -28z" />
    <glyph glyph-name="perthousand" unicode="&#x2030;" horiz-adv-x="971" 
d="M94 0l386 818h92l-386 -818h-92zM159 830q69 0 103.5 -53.5t34.5 -151.5q0 -100 -35.5 -154t-105.5 -54t-104.5 53.5t-34.5 149.5q0 103 37.5 156.5t104.5 53.5zM157 532q30 0 45.5 28t15.5 68t-15.5 65.5t-44.5 25.5t-45 -25.5t-16 -66.5q0 -39 15.5 -67t44.5 -28z
M507 402q69 0 103.5 -53.5t34.5 -151.5q0 -100 -35.5 -154t-105.5 -54t-104.5 53.5t-34.5 149.5q0 103 37.5 156.5t104.5 53.5zM505 104q30 0 45.5 28t15.5 68t-15.5 65.5t-44.5 25.5t-45 -25.5t-16 -66.5q0 -39 15.5 -67t44.5 -28zM817 402q69 0 103.5 -53.5t34.5 -151.5
q0 -100 -35.5 -154t-105.5 -54t-104.5 53.5t-34.5 149.5q0 103 37.5 156.5t104.5 53.5zM815 104q30 0 45.5 28t15.5 68t-15.5 65.5t-44.5 25.5t-45 -25.5t-16 -66.5q0 -39 15.5 -67t44.5 -28z" />
    <glyph glyph-name="onehalf" unicode="&#xbd;" horiz-adv-x="743" 
d="M549 817l-347 -859l-62 38l340 859zM187 895q-2 -39 -2.5 -75.5t-1.5 -77.5t-1 -89v-109h54q2 -18 3 -36.5t1 -37.5q0 -17 -1 -35.5t-3 -38.5h-212q-1 17 -1.5 33t-0.5 33v40.5t2 41.5h50q0 52 -0.5 109t-0.5 105l-50 -8q-2 13 -2.5 26t-0.5 26q0 14 0.5 37t2.5 36z
M725 376q0 -34 -11 -59t-28 -44t-37 -34.5t-37.5 -30.5t-30 -30.5t-13.5 -35.5l149 6q2 -18 3 -37.5t1 -38.5v-36.5t-2 -35.5h-264v109q0 34 10.5 59t25.5 44t33.5 33.5t33.5 28t25.5 28t10.5 33.5q0 25 -17.5 35.5t-33.5 10.5q-20 0 -40 -12t-31 -30q-1 14 -1.5 32t-0.5 36
q0 17 0.5 30.5t1.5 29.5q9 12 22.5 19.5t28.5 11.5t29 5.5t24 1.5q22 0 48 -5.5t48.5 -20t37.5 -39.5t15 -64z" />
    <glyph glyph-name="onethird" unicode="&#x2153;" horiz-adv-x="743" 
d="M558 817l-347 -859l-62 38l340 859zM189 895q-2 -39 -2.5 -75.5t-1.5 -77.5t-1 -89v-109h54q2 -18 3 -36.5t1 -37.5q0 -17 -1 -35.5t-3 -38.5h-212q-1 17 -1.5 33t-0.5 33v40.5t2 41.5h50q0 52 -0.5 109t-0.5 105l-50 -8q-2 13 -2.5 26t-0.5 26q0 14 0.5 37t2.5 36z
M508 222q-1 11 -1 20.5v20.5q0 9 0.5 18.5t1.5 18.5q7 -1 13.5 -1.5t12.5 -0.5q35 0 50 15.5t15 34.5t-15 35t-41 16q-21 0 -42.5 -11t-33.5 -29q-1 15 -1 29v32v14v9.5t0.5 9.5t0.5 13q9 12 22 19.5t28 12t29.5 6t26.5 1.5q27 0 53 -7.5t45.5 -22t31.5 -36.5t12 -51
q0 -23 -7.5 -43.5t-19 -37t-26 -28t-28.5 -16.5q15 -2 31.5 -10t30 -22.5t22 -37t8.5 -54.5q0 -40 -14.5 -67.5t-37.5 -45t-51.5 -25.5t-56.5 -8q-29 0 -60.5 8t-51.5 26q-2 16 -2 31v32v36t2 32q11 -17 34.5 -28.5t46.5 -11.5q25 0 43 13t18 42q0 9 -2.5 18t-10 16
t-21 11.5t-35.5 4.5h-9.5t-10.5 -1z" />
    <glyph glyph-name="onequarter" unicode="&#xbc;" horiz-adv-x="743" 
d="M560 817l-347 -859l-62 38l340 859zM188 895q-2 -39 -2.5 -75.5t-1.5 -77.5t-1 -89v-109h54q2 -18 3 -36.5t1 -37.5q0 -17 -1 -35.5t-3 -38.5h-212q-1 17 -1.5 33t-0.5 33v40.5t2 41.5h50q0 52 -0.5 109t-0.5 105l-50 -8q-2 13 -2.5 26t-0.5 26q0 14 0.5 37t2.5 36z
M690 491v-259h36v-133h-36v-99h-111v99h-157v133l124 259h144zM503 232h76v168z" />
    <glyph glyph-name="twothirds" unicode="&#x2154;" horiz-adv-x="741" 
d="M570 817l-347 -859l-62 38l340 859zM290 772q0 -34 -11 -59t-28 -44t-37 -34.5t-37.5 -30.5t-30 -30.5t-13.5 -35.5l149 6q2 -18 3 -37.5t1 -38.5v-36.5t-2 -35.5h-264v109q0 35 10.5 59.5t25.5 43.5t33.5 33.5t33.5 28t25.5 28t10.5 33.5q0 25 -17.5 35.5t-33.5 10.5
q-20 0 -40 -12t-31 -30q-1 14 -1.5 32t-0.5 36q0 17 0.5 30.5t1.5 29.5q9 12 22.5 19.5t28.5 11.5t29 5.5t24 1.5q22 0 48 -5.5t48.5 -20t37.5 -39.5t15 -64zM506 222q-1 11 -1 20.5v20.5q0 9 0.5 18.5t1.5 18.5q7 -1 13.5 -1.5t12.5 -0.5q35 0 50 15.5t15 34.5t-15 35
t-41 16q-21 0 -42.5 -11t-33.5 -29q-1 15 -1 29v32v14v9.5t0.5 9.5t0.5 13q9 12 22 19.5t28 12t29.5 6t26.5 1.5q27 0 53 -7.5t45.5 -22t31.5 -36.5t12 -51q0 -23 -7.5 -43.5t-19 -37t-26 -28t-28.5 -16.5q15 -2 31.5 -10t30 -22.5t22 -37t8.5 -54.5q0 -40 -14.5 -67.5
t-37.5 -45t-51.5 -25.5t-56.5 -8q-29 0 -60.5 8t-51.5 26q-2 16 -2 31v32v36t2 32q11 -17 34.5 -28.5t46.5 -11.5q25 0 43 13t18 42q0 9 -2.5 18t-10 16t-21 11.5t-35.5 4.5h-9.5t-10.5 -1z" />
    <glyph glyph-name="threequarters" unicode="&#xbe;" horiz-adv-x="740" 
d="M567 817l-347 -859l-62 38l340 859zM72 618q-1 11 -1 20.5v20.5q0 9 0.5 18.5t1.5 18.5q7 -1 13.5 -1.5t12.5 -0.5q35 0 50 15.5t15 34.5t-15 35t-41 16q-21 0 -42.5 -11t-33.5 -29q-1 15 -1 29v32v14v9.5t0.5 9.5t0.5 13q9 12 22 19.5t28 12t29.5 6t26.5 1.5
q27 0 53 -7.5t45.5 -22t31.5 -36.5t12 -51q0 -23 -7.5 -43.5t-19 -37t-26 -28t-28.5 -16.5q15 -2 31.5 -10t30 -22.5t22 -37t8.5 -54.5q0 -40 -14.5 -67.5t-37.5 -45t-51.5 -25.5t-56.5 -8q-29 0 -60.5 8t-51.5 26q-2 16 -2 31v32v36t2 32q11 -17 34.5 -28.5t46.5 -11.5
q25 0 43 13t18 42q0 9 -2.5 18t-10 16t-21 11.5t-35.5 4.5h-9.5t-10.5 -1zM686 491v-259h36v-133h-36v-99h-111v99h-157v133l124 259h144zM499 232h76v168z" />
    </font>
</defs>
</svg>
